<?xml version="1.0" encoding="UTF-8" standalone="no"?>
<!DOCTYPE svg PUBLIC "-//W3C//DTD SVG 1.1//EN"
 "http://www.w3.org/Graphics/SVG/1.1/DTD/svg11.dtd">
<!-- Generated by graphviz version 2.43.0 (0)
 -->
<!-- Title: examples/esp32/main/esp32_max22200_bus.hpp Pages: 1 -->
<svg width="943pt" height="159pt"
 viewBox="0.00 0.00 942.83 159.00" xmlns="http://www.w3.org/2000/svg" xmlns:xlink="http://www.w3.org/1999/xlink">
<g id="graph0" class="graph" transform="scale(1 1) rotate(0) translate(4 155)">
<title>examples/esp32/main/esp32_max22200_bus.hpp</title>
<!-- Node1 -->
<g id="Node000001" class="node">
<title>Node1</title>
<g id="a_Node000001"><a xlink:title="ESP32 SPI transport implementation for MAX22200 driver (header&#45;only)">
<polygon fill="#999999" stroke="#666666" points="557.33,-151 408.33,-151 408.33,-121 557.33,-121 557.33,-151"/>
<text text-anchor="start" x="416.33" y="-139" font-family="Helvetica,sans-Serif" font-size="10.00">examples/esp32/main</text>
<text text-anchor="middle" x="482.83" y="-128" font-family="Helvetica,sans-Serif" font-size="10.00">/esp32_max22200_bus.hpp</text>
</a>
</g>
</g>
<!-- Node2 -->
<g id="Node000002" class="node">
<title>Node2</title>
<g id="a_Node000002"><a xlink:href="max22200__spi__interface_8hpp.html" target="_top" xlink:title="CRTP&#45;based template interface for SPI communication.">
<polygon fill="white" stroke="#666666" points="129.33,-85 16.33,-85 16.33,-55 129.33,-55 129.33,-85"/>
<text text-anchor="start" x="24.33" y="-73" font-family="Helvetica,sans-Serif" font-size="10.00">../../../inc/max22200</text>
<text text-anchor="middle" x="72.83" y="-62" font-family="Helvetica,sans-Serif" font-size="10.00">_spi_interface.hpp</text>
</a>
</g>
</g>
<!-- Node1&#45;&gt;Node2 -->
<g id="edge1_Node000001_Node000002" class="edge">
<title>Node1&#45;&gt;Node2</title>
<g id="a_edge1_Node000001_Node000002"><a xlink:title=" ">
<path fill="none" stroke="#63b8ff" d="M408.27,-125.06C339.47,-115.63 234.56,-100.63 143.83,-85 142.36,-84.75 140.88,-84.49 139.38,-84.22"/>
<polygon fill="#63b8ff" stroke="#63b8ff" points="139.83,-80.75 129.37,-82.4 138.58,-87.63 139.83,-80.75"/>
</a>
</g>
</g>
<!-- Node3 -->
<g id="Node000003" class="node">
<title>Node3</title>
<g id="a_Node000003"><a xlink:title=" ">
<polygon fill="#e0e0e0" stroke="#999999" points="57.33,-19 4.33,-19 4.33,0 57.33,0 57.33,-19"/>
<text text-anchor="middle" x="30.83" y="-7" font-family="Helvetica,sans-Serif" font-size="10.00">cstddef</text>
</a>
</g>
</g>
<!-- Node1&#45;&gt;Node3 -->
<g id="edge10_Node000001_Node000003" class="edge">
<title>Node1&#45;&gt;Node3</title>
<g id="a_edge10_Node000001_Node000003"><a xlink:title=" ">
<path fill="none" stroke="#63b8ff" d="M408.24,-132.54C281.01,-127.58 33.16,-114.23 6.83,-85 -7.59,-68.98 5.08,-44.21 16.8,-27.68"/>
<polygon fill="#63b8ff" stroke="#63b8ff" points="19.78,-29.54 23.04,-19.46 14.2,-25.31 19.78,-29.54"/>
</a>
</g>
</g>
<!-- Node4 -->
<g id="Node000004" class="node">
<title>Node4</title>
<g id="a_Node000004"><a xlink:title=" ">
<polygon fill="#e0e0e0" stroke="#999999" points="182.83,-19 132.83,-19 132.83,0 182.83,0 182.83,-19"/>
<text text-anchor="middle" x="157.83" y="-7" font-family="Helvetica,sans-Serif" font-size="10.00">cstdint</text>
</a>
</g>
</g>
<!-- Node1&#45;&gt;Node4 -->
<g id="edge11_Node000001_Node000004" class="edge">
<title>Node1&#45;&gt;Node4</title>
<g id="a_edge11_Node000001_Node000004"><a xlink:title=" ">
<path fill="none" stroke="#63b8ff" d="M408.14,-131.86C328.94,-127 210.81,-114.84 177.83,-85 162.42,-71.06 158.35,-46.64 157.53,-29.57"/>
<polygon fill="#63b8ff" stroke="#63b8ff" points="161.02,-29.1 157.38,-19.15 154.02,-29.2 161.02,-29.1"/>
</a>
</g>
</g>
<!-- Node5 -->
<g id="Node000005" class="node">
<title>Node5</title>
<g id="a_Node000005"><a xlink:href="esp32__max22200__test__config_8hpp.html" target="_top" xlink:title="Hardware configuration for MAX22200 driver on ESP32&#45;C6.">
<polygon fill="white" stroke="#666666" points="313.33,-85 186.33,-85 186.33,-55 313.33,-55 313.33,-85"/>
<text text-anchor="start" x="194.33" y="-73" font-family="Helvetica,sans-Serif" font-size="10.00">esp32_max22200_test</text>
<text text-anchor="middle" x="249.83" y="-62" font-family="Helvetica,sans-Serif" font-size="10.00">_config.hpp</text>
</a>
</g>
</g>
<!-- Node1&#45;&gt;Node5 -->
<g id="edge4_Node000001_Node000005" class="edge">
<title>Node1&#45;&gt;Node5</title>
<g id="a_edge4_Node000001_Node000005"><a xlink:title=" ">
<path fill="none" stroke="#63b8ff" d="M431.7,-120.95C396.04,-111.16 348.3,-98.05 310.68,-87.71"/>
<polygon fill="#63b8ff" stroke="#63b8ff" points="311.42,-84.29 300.85,-85.01 309.56,-91.04 311.42,-84.29"/>
</a>
</g>
</g>
<!-- Node6 -->
<g id="Node000006" class="node">
<title>Node6</title>
<g id="a_Node000006"><a xlink:title=" ">
<polygon fill="#e0e0e0" stroke="#999999" points="409.83,-79.5 331.83,-79.5 331.83,-60.5 409.83,-60.5 409.83,-79.5"/>
<text text-anchor="middle" x="370.83" y="-67.5" font-family="Helvetica,sans-Serif" font-size="10.00">driver/gpio.h</text>
</a>
</g>
</g>
<!-- Node1&#45;&gt;Node6 -->
<g id="edge6_Node000001_Node000006" class="edge">
<title>Node1&#45;&gt;Node6</title>
<g id="a_edge6_Node000001_Node000006"><a xlink:title=" ">
<path fill="none" stroke="#63b8ff" d="M458.26,-120.95C439.31,-110.13 413.26,-95.24 394.53,-84.54"/>
<polygon fill="#63b8ff" stroke="#63b8ff" points="396.16,-81.44 385.74,-79.52 392.69,-87.52 396.16,-81.44"/>
</a>
</g>
</g>
<!-- Node7 -->
<g id="Node000007" class="node">
<title>Node7</title>
<g id="a_Node000007"><a xlink:title=" ">
<polygon fill="#e0e0e0" stroke="#999999" points="537.83,-79.5 427.83,-79.5 427.83,-60.5 537.83,-60.5 537.83,-79.5"/>
<text text-anchor="middle" x="482.83" y="-67.5" font-family="Helvetica,sans-Serif" font-size="10.00">driver/spi_master.h</text>
</a>
</g>
</g>
<!-- Node1&#45;&gt;Node7 -->
<g id="edge7_Node000001_Node000007" class="edge">
<title>Node1&#45;&gt;Node7</title>
<g id="a_edge7_Node000001_Node000007"><a xlink:title=" ">
<path fill="none" stroke="#63b8ff" d="M482.83,-120.8C482.83,-111.7 482.83,-99.79 482.83,-89.9"/>
<polygon fill="#63b8ff" stroke="#63b8ff" points="486.33,-89.84 482.83,-79.84 479.33,-89.84 486.33,-89.84"/>
</a>
</g>
</g>
<!-- Node8 -->
<g id="Node000008" class="node">
<title>Node8</title>
<g id="a_Node000008"><a xlink:title=" ">
<polygon fill="#e0e0e0" stroke="#999999" points="619.33,-79.5 556.33,-79.5 556.33,-60.5 619.33,-60.5 619.33,-79.5"/>
<text text-anchor="middle" x="587.83" y="-67.5" font-family="Helvetica,sans-Serif" font-size="10.00">esp_log.h</text>
</a>
</g>
</g>
<!-- Node1&#45;&gt;Node8 -->
<g id="edge8_Node000001_Node000008" class="edge">
<title>Node1&#45;&gt;Node8</title>
<g id="a_edge8_Node000001_Node000008"><a xlink:title=" ">
<path fill="none" stroke="#63b8ff" d="M505.88,-120.95C523.4,-110.27 547.39,-95.65 564.89,-84.98"/>
<polygon fill="#63b8ff" stroke="#63b8ff" points="567.14,-87.71 573.86,-79.52 563.5,-81.73 567.14,-87.71"/>
</a>
</g>
</g>
<!-- Node9 -->
<g id="Node000009" class="node">
<title>Node9</title>
<g id="a_Node000009"><a xlink:title=" ">
<polygon fill="#e0e0e0" stroke="#999999" points="726.33,-79.5 637.33,-79.5 637.33,-60.5 726.33,-60.5 726.33,-79.5"/>
<text text-anchor="middle" x="681.83" y="-67.5" font-family="Helvetica,sans-Serif" font-size="10.00">esp_rom_sys.h</text>
</a>
</g>
</g>
<!-- Node1&#45;&gt;Node9 -->
<g id="edge9_Node000001_Node000009" class="edge">
<title>Node1&#45;&gt;Node9</title>
<g id="a_edge9_Node000001_Node000009"><a xlink:title=" ">
<path fill="none" stroke="#63b8ff" d="M526.51,-120.95C562.17,-109.48 611.99,-93.46 645.51,-82.68"/>
<polygon fill="#63b8ff" stroke="#63b8ff" points="646.9,-85.91 655.35,-79.52 644.76,-79.25 646.9,-85.91"/>
</a>
</g>
</g>
<!-- Node10 -->
<g id="Node000010" class="node">
<title>Node10</title>
<g id="a_Node000010"><a xlink:title=" ">
<polygon fill="#e0e0e0" stroke="#999999" points="790.83,-79.5 744.83,-79.5 744.83,-60.5 790.83,-60.5 790.83,-79.5"/>
<text text-anchor="middle" x="767.83" y="-67.5" font-family="Helvetica,sans-Serif" font-size="10.00">cstdio</text>
</a>
</g>
</g>
<!-- Node1&#45;&gt;Node10 -->
<g id="edge12_Node000001_Node000010" class="edge">
<title>Node1&#45;&gt;Node10</title>
<g id="a_edge12_Node000001_Node000010"><a xlink:title=" ">
<path fill="none" stroke="#63b8ff" d="M557.52,-124.61C608.46,-116.47 677.09,-103.41 735.83,-85 737.47,-84.49 739.13,-83.92 740.79,-83.31"/>
<polygon fill="#63b8ff" stroke="#63b8ff" points="742.18,-86.53 750.16,-79.55 739.57,-80.03 742.18,-86.53"/>
</a>
</g>
</g>
<!-- Node11 -->
<g id="Node000011" class="node">
<title>Node11</title>
<g id="a_Node000011"><a xlink:title=" ">
<polygon fill="#e0e0e0" stroke="#999999" points="858.83,-79.5 808.83,-79.5 808.83,-60.5 858.83,-60.5 858.83,-79.5"/>
<text text-anchor="middle" x="833.83" y="-67.5" font-family="Helvetica,sans-Serif" font-size="10.00">cstring</text>
</a>
</g>
</g>
<!-- Node1&#45;&gt;Node11 -->
<g id="edge13_Node000001_Node000011" class="edge">
<title>Node1&#45;&gt;Node11</title>
<g id="a_edge13_Node000001_Node000011"><a xlink:title=" ">
<path fill="none" stroke="#63b8ff" d="M557.55,-128.21C622.46,-121.13 718.56,-107.8 799.83,-85 801.77,-84.46 803.74,-83.84 805.72,-83.16"/>
<polygon fill="#63b8ff" stroke="#63b8ff" points="807.29,-86.31 815.41,-79.51 804.81,-79.76 807.29,-86.31"/>
</a>
</g>
</g>
<!-- Node12 -->
<g id="Node000012" class="node">
<title>Node12</title>
<g id="a_Node000012"><a xlink:title=" ">
<polygon fill="#e0e0e0" stroke="#999999" points="934.83,-79.5 876.83,-79.5 876.83,-60.5 934.83,-60.5 934.83,-79.5"/>
<text text-anchor="middle" x="905.83" y="-67.5" font-family="Helvetica,sans-Serif" font-size="10.00">memory</text>
</a>
</g>
</g>
<!-- Node1&#45;&gt;Node12 -->
<g id="edge14_Node000001_Node000012" class="edge">
<title>Node1&#45;&gt;Node12</title>
<g id="a_edge14_Node000001_Node000012"><a xlink:title=" ">
<path fill="none" stroke="#63b8ff" d="M557.55,-130.27C635.79,-124.17 761.8,-111.07 867.83,-85 870.34,-84.38 872.92,-83.65 875.48,-82.86"/>
<polygon fill="#63b8ff" stroke="#63b8ff" points="876.85,-86.09 885.19,-79.56 874.6,-79.46 876.85,-86.09"/>
</a>
</g>
</g>
<!-- Node2&#45;&gt;Node3 -->
<g id="edge2_Node000002_Node000003" class="edge">
<title>Node2&#45;&gt;Node3</title>
<g id="a_edge2_Node000002_Node000003"><a xlink:title=" ">
<path fill="none" stroke="#63b8ff" d="M62.67,-54.84C56.76,-46.61 49.27,-36.18 43.04,-27.51"/>
<polygon fill="#63b8ff" stroke="#63b8ff" points="45.8,-25.35 37.13,-19.27 40.12,-29.43 45.8,-25.35"/>
</a>
</g>
</g>
<!-- Node2&#45;&gt;Node4 -->
<g id="edge3_Node000002_Node000004" class="edge">
<title>Node2&#45;&gt;Node4</title>
<g id="a_edge3_Node000002_Node000004"><a xlink:title=" ">
<path fill="none" stroke="#63b8ff" d="M93.41,-54.84C106.5,-45.83 123.42,-34.18 136.63,-25.09"/>
<polygon fill="#63b8ff" stroke="#63b8ff" points="138.84,-27.82 145.1,-19.27 134.88,-22.05 138.84,-27.82"/>
</a>
</g>
</g>
<!-- Node5&#45;&gt;Node4 -->
<g id="edge5_Node000005_Node000004" class="edge">
<title>Node5&#45;&gt;Node4</title>
<g id="a_edge5_Node000005_Node000004"><a xlink:title=" ">
<path fill="none" stroke="#63b8ff" d="M227.56,-54.84C213.17,-45.68 194.5,-33.82 180.11,-24.66"/>
<polygon fill="#63b8ff" stroke="#63b8ff" points="181.67,-21.51 171.35,-19.09 177.91,-27.41 181.67,-21.51"/>
</a>
</g>
</g>
</g>
</svg>
