<?xml version="1.0" encoding="UTF-8" standalone="no"?>
<!DOCTYPE svg PUBLIC "-//W3C//DTD SVG 1.1//EN"
 "http://www.w3.org/Graphics/SVG/1.1/DTD/svg11.dtd">
<!-- Generated by graphviz version 2.43.0 (0)
 -->
<!-- Title: examples/esp32/main/esp32_max22200_bus.hpp Pages: 1 -->
<svg width="772pt" height="159pt"
 viewBox="0.00 0.00 771.67 159.00" xmlns="http://www.w3.org/2000/svg" xmlns:xlink="http://www.w3.org/1999/xlink">
<g id="graph0" class="graph" transform="scale(1 1) rotate(0) translate(4 155)">
<title>examples/esp32/main/esp32_max22200_bus.hpp</title>
<!-- Node1 -->
<g id="Node000001" class="node">
<title>Node1</title>
<g id="a_Node000001"><a xlink:title="ESP32 SPI transport implementation for MAX22200 driver (header&#45;only)">
<polygon fill="#999999" stroke="#666666" points="445.17,-151 296.17,-151 296.17,-121 445.17,-121 445.17,-151"/>
<text text-anchor="start" x="304.17" y="-139" font-family="Helvetica,sans-Serif" font-size="10.00">examples/esp32/main</text>
<text text-anchor="middle" x="370.67" y="-128" font-family="Helvetica,sans-Serif" font-size="10.00">/esp32_max22200_bus.hpp</text>
</a>
</g>
</g>
<!-- Node2 -->
<g id="Node000002" class="node">
<title>Node2</title>
<g id="a_Node000002"><a xlink:href="max22200__spi__interface_8hpp.html" target="_top" xlink:title="CRTP&#45;based template interface for SPI communication.">
<polygon fill="white" stroke="#666666" points="129.17,-85 16.17,-85 16.17,-55 129.17,-55 129.17,-85"/>
<text text-anchor="start" x="24.17" y="-73" font-family="Helvetica,sans-Serif" font-size="10.00">../../../inc/max22200</text>
<text text-anchor="middle" x="72.67" y="-62" font-family="Helvetica,sans-Serif" font-size="10.00">_spi_interface.hpp</text>
</a>
</g>
</g>
<!-- Node1&#45;&gt;Node2 -->
<g id="edge1_Node000001_Node000002" class="edge">
<title>Node1&#45;&gt;Node2</title>
<g id="a_edge1_Node000001_Node000002"><a xlink:title=" ">
<path fill="none" stroke="#63b8ff" d="M305.27,-120.95C256.06,-110.39 188.87,-95.96 139.35,-85.32"/>
<polygon fill="#63b8ff" stroke="#63b8ff" points="139.89,-81.86 129.38,-83.18 138.42,-88.7 139.89,-81.86"/>
</a>
</g>
</g>
<!-- Node3 -->
<g id="Node000003" class="node">
<title>Node3</title>
<g id="a_Node000003"><a xlink:title=" ">
<polygon fill="#e0e0e0" stroke="#999999" points="57.17,-19 4.17,-19 4.17,0 57.17,0 57.17,-19"/>
<text text-anchor="middle" x="30.67" y="-7" font-family="Helvetica,sans-Serif" font-size="10.00">cstddef</text>
</a>
</g>
</g>
<!-- Node1&#45;&gt;Node3 -->
<g id="edge9_Node000001_Node000003" class="edge">
<title>Node1&#45;&gt;Node3</title>
<g id="a_edge9_Node000001_Node000003"><a xlink:title=" ">
<path fill="none" stroke="#63b8ff" d="M295.83,-135.79C200.43,-135.01 43.4,-127.13 6.67,-85 -7.5,-68.75 5.1,-44.04 16.74,-27.59"/>
<polygon fill="#63b8ff" stroke="#63b8ff" points="19.69,-29.49 22.93,-19.4 14.11,-25.27 19.69,-29.49"/>
</a>
</g>
</g>
<!-- Node4 -->
<g id="Node000004" class="node">
<title>Node4</title>
<g id="a_Node000004"><a xlink:title=" ">
<polygon fill="#e0e0e0" stroke="#999999" points="182.67,-19 132.67,-19 132.67,0 182.67,0 182.67,-19"/>
<text text-anchor="middle" x="157.67" y="-7" font-family="Helvetica,sans-Serif" font-size="10.00">cstdint</text>
</a>
</g>
</g>
<!-- Node1&#45;&gt;Node4 -->
<g id="edge10_Node000001_Node000004" class="edge">
<title>Node1&#45;&gt;Node4</title>
<g id="a_edge10_Node000001_Node000004"><a xlink:title=" ">
<path fill="none" stroke="#63b8ff" d="M295.87,-133.17C255.88,-128.3 208.64,-115.7 177.67,-85 162.98,-70.45 158.74,-46.35 157.68,-29.52"/>
<polygon fill="#63b8ff" stroke="#63b8ff" points="161.17,-29.12 157.37,-19.23 154.17,-29.33 161.17,-29.12"/>
</a>
</g>
</g>
<!-- Node5 -->
<g id="Node000005" class="node">
<title>Node5</title>
<g id="a_Node000005"><a xlink:href="esp32__max22200__test__config_8hpp.html" target="_top" xlink:title="Hardware configuration for MAX22200 driver on ESP32&#45;C6.">
<polygon fill="white" stroke="#666666" points="313.17,-85 186.17,-85 186.17,-55 313.17,-55 313.17,-85"/>
<text text-anchor="start" x="194.17" y="-73" font-family="Helvetica,sans-Serif" font-size="10.00">esp32_max22200_test</text>
<text text-anchor="middle" x="249.67" y="-62" font-family="Helvetica,sans-Serif" font-size="10.00">_config.hpp</text>
</a>
</g>
</g>
<!-- Node1&#45;&gt;Node5 -->
<g id="edge4_Node000001_Node000005" class="edge">
<title>Node1&#45;&gt;Node5</title>
<g id="a_edge4_Node000001_Node000005"><a xlink:title=" ">
<path fill="none" stroke="#63b8ff" d="M344.11,-120.95C326.78,-111.78 303.94,-99.71 285.07,-89.72"/>
<polygon fill="#63b8ff" stroke="#63b8ff" points="286.64,-86.59 276.16,-85.01 283.36,-92.78 286.64,-86.59"/>
</a>
</g>
</g>
<!-- Node6 -->
<g id="Node000006" class="node">
<title>Node6</title>
<g id="a_Node000006"><a xlink:title=" ">
<polygon fill="#e0e0e0" stroke="#999999" points="409.67,-79.5 331.67,-79.5 331.67,-60.5 409.67,-60.5 409.67,-79.5"/>
<text text-anchor="middle" x="370.67" y="-67.5" font-family="Helvetica,sans-Serif" font-size="10.00">driver/gpio.h</text>
</a>
</g>
</g>
<!-- Node1&#45;&gt;Node6 -->
<g id="edge6_Node000001_Node000006" class="edge">
<title>Node1&#45;&gt;Node6</title>
<g id="a_edge6_Node000001_Node000006"><a xlink:title=" ">
<path fill="none" stroke="#63b8ff" d="M370.67,-120.8C370.67,-111.7 370.67,-99.79 370.67,-89.9"/>
<polygon fill="#63b8ff" stroke="#63b8ff" points="374.17,-89.84 370.67,-79.84 367.17,-89.84 374.17,-89.84"/>
</a>
</g>
</g>
<!-- Node7 -->
<g id="Node000007" class="node">
<title>Node7</title>
<g id="a_Node000007"><a xlink:title=" ">
<polygon fill="#e0e0e0" stroke="#999999" points="537.67,-79.5 427.67,-79.5 427.67,-60.5 537.67,-60.5 537.67,-79.5"/>
<text text-anchor="middle" x="482.67" y="-67.5" font-family="Helvetica,sans-Serif" font-size="10.00">driver/spi_master.h</text>
</a>
</g>
</g>
<!-- Node1&#45;&gt;Node7 -->
<g id="edge7_Node000001_Node000007" class="edge">
<title>Node1&#45;&gt;Node7</title>
<g id="a_edge7_Node000001_Node000007"><a xlink:title=" ">
<path fill="none" stroke="#63b8ff" d="M395.25,-120.95C414.2,-110.13 440.24,-95.24 458.97,-84.54"/>
<polygon fill="#63b8ff" stroke="#63b8ff" points="460.82,-87.52 467.76,-79.52 457.34,-81.44 460.82,-87.52"/>
</a>
</g>
</g>
<!-- Node8 -->
<g id="Node000008" class="node">
<title>Node8</title>
<g id="a_Node000008"><a xlink:title=" ">
<polygon fill="#e0e0e0" stroke="#999999" points="619.17,-79.5 556.17,-79.5 556.17,-60.5 619.17,-60.5 619.17,-79.5"/>
<text text-anchor="middle" x="587.67" y="-67.5" font-family="Helvetica,sans-Serif" font-size="10.00">esp_log.h</text>
</a>
</g>
</g>
<!-- Node1&#45;&gt;Node8 -->
<g id="edge8_Node000001_Node000008" class="edge">
<title>Node1&#45;&gt;Node8</title>
<g id="a_edge8_Node000001_Node000008"><a xlink:title=" ">
<path fill="none" stroke="#63b8ff" d="M422.86,-120.94C457.99,-111.29 505.28,-97.93 546.67,-85 548.97,-84.28 551.34,-83.52 553.72,-82.74"/>
<polygon fill="#63b8ff" stroke="#63b8ff" points="555.07,-85.98 563.45,-79.5 552.86,-79.34 555.07,-85.98"/>
</a>
</g>
</g>
<!-- Node9 -->
<g id="Node000009" class="node">
<title>Node9</title>
<g id="a_Node000009"><a xlink:title=" ">
<polygon fill="#e0e0e0" stroke="#999999" points="687.67,-79.5 637.67,-79.5 637.67,-60.5 687.67,-60.5 687.67,-79.5"/>
<text text-anchor="middle" x="662.67" y="-67.5" font-family="Helvetica,sans-Serif" font-size="10.00">cstring</text>
</a>
</g>
</g>
<!-- Node1&#45;&gt;Node9 -->
<g id="edge11_Node000001_Node000009" class="edge">
<title>Node1&#45;&gt;Node9</title>
<g id="a_edge11_Node000001_Node000009"><a xlink:title=" ">
<path fill="none" stroke="#63b8ff" d="M445.29,-124.57C497.33,-116.33 568.02,-103.16 628.67,-85 630.55,-84.44 632.47,-83.81 634.39,-83.13"/>
<polygon fill="#63b8ff" stroke="#63b8ff" points="635.75,-86.36 643.85,-79.53 633.26,-79.82 635.75,-86.36"/>
</a>
</g>
</g>
<!-- Node10 -->
<g id="Node000010" class="node">
<title>Node10</title>
<g id="a_Node000010"><a xlink:title=" ">
<polygon fill="#e0e0e0" stroke="#999999" points="763.67,-79.5 705.67,-79.5 705.67,-60.5 763.67,-60.5 763.67,-79.5"/>
<text text-anchor="middle" x="734.67" y="-67.5" font-family="Helvetica,sans-Serif" font-size="10.00">memory</text>
</a>
</g>
</g>
<!-- Node1&#45;&gt;Node10 -->
<g id="edge12_Node000001_Node000010" class="edge">
<title>Node1&#45;&gt;Node10</title>
<g id="a_edge12_Node000001_Node000010"><a xlink:title=" ">
<path fill="none" stroke="#63b8ff" d="M445.33,-127.86C511.96,-120.48 611.84,-106.89 696.67,-85 699.11,-84.37 701.61,-83.64 704.11,-82.85"/>
<polygon fill="#63b8ff" stroke="#63b8ff" points="705.27,-86.16 713.6,-79.61 703.01,-79.53 705.27,-86.16"/>
</a>
</g>
</g>
<!-- Node2&#45;&gt;Node3 -->
<g id="edge2_Node000002_Node000003" class="edge">
<title>Node2&#45;&gt;Node3</title>
<g id="a_edge2_Node000002_Node000003"><a xlink:title=" ">
<path fill="none" stroke="#63b8ff" d="M62.5,-54.84C56.59,-46.61 49.1,-36.18 42.88,-27.51"/>
<polygon fill="#63b8ff" stroke="#63b8ff" points="45.64,-25.35 36.96,-19.27 39.95,-29.43 45.64,-25.35"/>
</a>
</g>
</g>
<!-- Node2&#45;&gt;Node4 -->
<g id="edge3_Node000002_Node000004" class="edge">
<title>Node2&#45;&gt;Node4</title>
<g id="a_edge3_Node000002_Node000004"><a xlink:title=" ">
<path fill="none" stroke="#63b8ff" d="M93.24,-54.84C106.34,-45.83 123.25,-34.18 136.47,-25.09"/>
<polygon fill="#63b8ff" stroke="#63b8ff" points="138.68,-27.82 144.93,-19.27 134.71,-22.05 138.68,-27.82"/>
</a>
</g>
</g>
<!-- Node5&#45;&gt;Node4 -->
<g id="edge5_Node000005_Node000004" class="edge">
<title>Node5&#45;&gt;Node4</title>
<g id="a_edge5_Node000005_Node000004"><a xlink:title=" ">
<path fill="none" stroke="#63b8ff" d="M227.4,-54.84C213,-45.68 194.34,-33.82 179.94,-24.66"/>
<polygon fill="#63b8ff" stroke="#63b8ff" points="181.5,-21.51 171.18,-19.09 177.74,-27.41 181.5,-21.51"/>
</a>
</g>
</g>
</g>
</svg>
