<?xml version="1.0" encoding="UTF-8" standalone="no"?>
<!DOCTYPE svg PUBLIC "-//W3C//DTD SVG 1.1//EN"
 "http://www.w3.org/Graphics/SVG/1.1/DTD/svg11.dtd">
<!-- Generated by graphviz version 2.43.0 (0)
 -->
<!-- Title: examples/esp32/main/esp32_max22200_spi.cpp Pages: 1 -->
<svg width="480pt" height="214pt"
 viewBox="0.00 0.00 480.33 214.00" xmlns="http://www.w3.org/2000/svg" xmlns:xlink="http://www.w3.org/1999/xlink">
<g id="graph0" class="graph" transform="scale(1 1) rotate(0) translate(4 210)">
<title>examples/esp32/main/esp32_max22200_spi.cpp</title>
<!-- Node1 -->
<g id="Node000001" class="node">
<title>Node1</title>
<g id="a_Node000001"><a xlink:title="ESP32 SPI transport implementation for MAX22200 driver.">
<polygon fill="#999999" stroke="#666666" points="435.83,-206 289.83,-206 289.83,-176 435.83,-176 435.83,-206"/>
<text text-anchor="start" x="297.83" y="-194" font-family="Helvetica,sans-Serif" font-size="10.00">examples/esp32/main</text>
<text text-anchor="middle" x="362.83" y="-183" font-family="Helvetica,sans-Serif" font-size="10.00">/esp32_max22200_spi.cpp</text>
</a>
</g>
</g>
<!-- Node2 -->
<g id="Node000002" class="node">
<title>Node2</title>
<g id="a_Node000002"><a xlink:href="esp32__max22200__spi_8hpp.html" target="_top" xlink:title="ESP32 SPI transport implementation for MAX22200 driver.">
<polygon fill="white" stroke="#666666" points="315.33,-140 172.33,-140 172.33,-121 315.33,-121 315.33,-140"/>
<text text-anchor="middle" x="243.83" y="-128" font-family="Helvetica,sans-Serif" font-size="10.00">esp32_max22200_spi.hpp</text>
</a>
</g>
</g>
<!-- Node1&#45;&gt;Node2 -->
<g id="edge1_Node000001_Node000002" class="edge">
<title>Node1&#45;&gt;Node2</title>
<g id="a_edge1_Node000001_Node000002"><a xlink:title=" ">
<path fill="none" stroke="#63b8ff" d="M334.33,-175.99C314.91,-166.45 289.4,-153.9 270.41,-144.57"/>
<polygon fill="#63b8ff" stroke="#63b8ff" points="271.92,-141.41 261.4,-140.14 268.83,-147.69 271.92,-141.41"/>
</a>
</g>
</g>
<!-- Node7 -->
<g id="Node000007" class="node">
<title>Node7</title>
<g id="a_Node000007"><a xlink:title=" ">
<polygon fill="#e0e0e0" stroke="#999999" points="390.83,-79.5 280.83,-79.5 280.83,-60.5 390.83,-60.5 390.83,-79.5"/>
<text text-anchor="middle" x="335.83" y="-67.5" font-family="Helvetica,sans-Serif" font-size="10.00">driver/spi_master.h</text>
</a>
</g>
</g>
<!-- Node1&#45;&gt;Node7 -->
<g id="edge10_Node000001_Node000007" class="edge">
<title>Node1&#45;&gt;Node7</title>
<g id="a_edge10_Node000001_Node000007"><a xlink:title=" ">
<path fill="none" stroke="#63b8ff" d="M359.63,-175.88C354.75,-154.41 345.48,-113.52 340.06,-89.64"/>
<polygon fill="#63b8ff" stroke="#63b8ff" points="343.43,-88.69 337.81,-79.71 336.6,-90.24 343.43,-88.69"/>
</a>
</g>
</g>
<!-- Node8 -->
<g id="Node000008" class="node">
<title>Node8</title>
<g id="a_Node000008"><a xlink:title=" ">
<polygon fill="#e0e0e0" stroke="#999999" points="472.33,-79.5 409.33,-79.5 409.33,-60.5 472.33,-60.5 472.33,-79.5"/>
<text text-anchor="middle" x="440.83" y="-67.5" font-family="Helvetica,sans-Serif" font-size="10.00">esp_log.h</text>
</a>
</g>
</g>
<!-- Node1&#45;&gt;Node8 -->
<g id="edge11_Node000001_Node000008" class="edge">
<title>Node1&#45;&gt;Node8</title>
<g id="a_edge11_Node000001_Node000008"><a xlink:title=" ">
<path fill="none" stroke="#63b8ff" d="M369.72,-175.84C376.87,-161.6 388.67,-139.19 400.83,-121 408.68,-109.25 418.59,-96.85 426.59,-87.33"/>
<polygon fill="#63b8ff" stroke="#63b8ff" points="429.44,-89.38 433.28,-79.51 424.12,-84.83 429.44,-89.38"/>
</a>
</g>
</g>
<!-- Node9 -->
<g id="Node000009" class="node">
<title>Node9</title>
<g id="a_Node000009"><a xlink:title=" ">
<polygon fill="#e0e0e0" stroke="#999999" points="459.83,-140 409.83,-140 409.83,-121 459.83,-121 459.83,-140"/>
<text text-anchor="middle" x="434.83" y="-128" font-family="Helvetica,sans-Serif" font-size="10.00">cstring</text>
</a>
</g>
</g>
<!-- Node1&#45;&gt;Node9 -->
<g id="edge12_Node000001_Node000009" class="edge">
<title>Node1&#45;&gt;Node9</title>
<g id="a_edge12_Node000001_Node000009"><a xlink:title=" ">
<path fill="none" stroke="#63b8ff" d="M380.26,-175.84C391.14,-167 405.13,-155.63 416.22,-146.62"/>
<polygon fill="#63b8ff" stroke="#63b8ff" points="418.49,-149.29 424.04,-140.27 414.07,-143.86 418.49,-149.29"/>
</a>
</g>
</g>
<!-- Node3 -->
<g id="Node000003" class="node">
<title>Node3</title>
<g id="a_Node000003"><a xlink:href="max22200__spi__interface_8hpp.html" target="_top" xlink:title="CRTP&#45;based template interface for SPI communication.">
<polygon fill="white" stroke="#666666" points="224.33,-85 111.33,-85 111.33,-55 224.33,-55 224.33,-85"/>
<text text-anchor="start" x="119.33" y="-73" font-family="Helvetica,sans-Serif" font-size="10.00">../../../inc/max22200</text>
<text text-anchor="middle" x="167.83" y="-62" font-family="Helvetica,sans-Serif" font-size="10.00">_spi_interface.hpp</text>
</a>
</g>
</g>
<!-- Node2&#45;&gt;Node3 -->
<g id="edge2_Node000002_Node000003" class="edge">
<title>Node2&#45;&gt;Node3</title>
<g id="a_edge2_Node000002_Node000003"><a xlink:title=" ">
<path fill="none" stroke="#63b8ff" d="M232.61,-120.87C222.59,-113.15 207.5,-101.54 194.41,-91.46"/>
<polygon fill="#63b8ff" stroke="#63b8ff" points="196.23,-88.44 186.17,-85.11 191.96,-93.99 196.23,-88.44"/>
</a>
</g>
</g>
<!-- Node4 -->
<g id="Node000004" class="node">
<title>Node4</title>
<g id="a_Node000004"><a xlink:title=" ">
<polygon fill="#e0e0e0" stroke="#999999" points="236.33,-19 183.33,-19 183.33,0 236.33,0 236.33,-19"/>
<text text-anchor="middle" x="209.83" y="-7" font-family="Helvetica,sans-Serif" font-size="10.00">cstddef</text>
</a>
</g>
</g>
<!-- Node2&#45;&gt;Node4 -->
<g id="edge8_Node000002_Node000004" class="edge">
<title>Node2&#45;&gt;Node4</title>
<g id="a_edge8_Node000002_Node000004"><a xlink:title=" ">
<path fill="none" stroke="#63b8ff" d="M243.46,-120.57C242.66,-106.37 240.21,-77.9 232.83,-55 229.83,-45.7 225.04,-36 220.6,-28.03"/>
<polygon fill="#63b8ff" stroke="#63b8ff" points="223.58,-26.19 215.51,-19.32 217.53,-29.72 223.58,-26.19"/>
</a>
</g>
</g>
<!-- Node5 -->
<g id="Node000005" class="node">
<title>Node5</title>
<g id="a_Node000005"><a xlink:title=" ">
<polygon fill="#e0e0e0" stroke="#999999" points="109.83,-19 59.83,-19 59.83,0 109.83,0 109.83,-19"/>
<text text-anchor="middle" x="84.83" y="-7" font-family="Helvetica,sans-Serif" font-size="10.00">cstdint</text>
</a>
</g>
</g>
<!-- Node2&#45;&gt;Node5 -->
<g id="edge9_Node000002_Node000005" class="edge">
<title>Node2&#45;&gt;Node5</title>
<g id="a_edge9_Node000002_Node000005"><a xlink:title=" ">
<path fill="none" stroke="#63b8ff" d="M172.24,-125.94C110.03,-121.16 26.71,-110.14 5.83,-85 -2.69,-74.74 -0.9,-66.51 5.83,-55 15.46,-38.53 33.68,-27.68 50.2,-20.82"/>
<polygon fill="#63b8ff" stroke="#63b8ff" points="51.54,-24.05 59.65,-17.23 49.06,-17.51 51.54,-24.05"/>
</a>
</g>
</g>
<!-- Node6 -->
<g id="Node000006" class="node">
<title>Node6</title>
<g id="a_Node000006"><a xlink:title=" ">
<polygon fill="#e0e0e0" stroke="#999999" points="92.83,-79.5 14.83,-79.5 14.83,-60.5 92.83,-60.5 92.83,-79.5"/>
<text text-anchor="middle" x="53.83" y="-67.5" font-family="Helvetica,sans-Serif" font-size="10.00">driver/gpio.h</text>
</a>
</g>
</g>
<!-- Node2&#45;&gt;Node6 -->
<g id="edge5_Node000002_Node000006" class="edge">
<title>Node2&#45;&gt;Node6</title>
<g id="a_edge5_Node000002_Node000006"><a xlink:title=" ">
<path fill="none" stroke="#63b8ff" d="M216.2,-120.99C183.27,-110.86 128.1,-93.87 91.34,-82.55"/>
<polygon fill="#63b8ff" stroke="#63b8ff" points="92.08,-79.11 81.49,-79.52 90.02,-85.8 92.08,-79.11"/>
</a>
</g>
</g>
<!-- Node2&#45;&gt;Node7 -->
<g id="edge6_Node000002_Node000007" class="edge">
<title>Node2&#45;&gt;Node7</title>
<g id="a_edge6_Node000002_Node000007"><a xlink:title=" ">
<path fill="none" stroke="#63b8ff" d="M257.4,-120.87C272.22,-111.45 296.15,-96.23 313.69,-85.08"/>
<polygon fill="#63b8ff" stroke="#63b8ff" points="315.64,-87.99 322.2,-79.67 311.88,-82.08 315.64,-87.99"/>
</a>
</g>
</g>
<!-- Node2&#45;&gt;Node8 -->
<g id="edge7_Node000002_Node000008" class="edge">
<title>Node2&#45;&gt;Node8</title>
<g id="a_edge7_Node000002_Node000008"><a xlink:title=" ">
<path fill="none" stroke="#63b8ff" d="M275.64,-120.94C307.27,-112.31 357.09,-98.38 399.83,-85 401.99,-84.32 404.2,-83.61 406.43,-82.89"/>
<polygon fill="#63b8ff" stroke="#63b8ff" points="407.8,-86.12 416.18,-79.64 405.59,-79.48 407.8,-86.12"/>
</a>
</g>
</g>
<!-- Node3&#45;&gt;Node4 -->
<g id="edge3_Node000003_Node000004" class="edge">
<title>Node3&#45;&gt;Node4</title>
<g id="a_edge3_Node000003_Node000004"><a xlink:title=" ">
<path fill="none" stroke="#63b8ff" d="M178,-54.84C183.91,-46.61 191.39,-36.18 197.62,-27.51"/>
<polygon fill="#63b8ff" stroke="#63b8ff" points="200.55,-29.43 203.54,-19.27 194.86,-25.35 200.55,-29.43"/>
</a>
</g>
</g>
<!-- Node3&#45;&gt;Node5 -->
<g id="edge4_Node000003_Node000005" class="edge">
<title>Node3&#45;&gt;Node5</title>
<g id="a_edge4_Node000003_Node000005"><a xlink:title=" ">
<path fill="none" stroke="#63b8ff" d="M147.74,-54.84C134.95,-45.83 118.43,-34.18 105.53,-25.09"/>
<polygon fill="#63b8ff" stroke="#63b8ff" points="107.46,-22.17 97.27,-19.27 103.42,-27.89 107.46,-22.17"/>
</a>
</g>
</g>
</g>
</svg>
