<?xml version="1.0" encoding="UTF-8" standalone="no"?>
<!DOCTYPE svg PUBLIC "-//W3C//DTD SVG 1.1//EN"
 "http://www.w3.org/Graphics/SVG/1.1/DTD/svg11.dtd">
<!-- Generated by graphviz version 2.43.0 (0)
 -->
<!-- Title: examples/esp32/main/esp32_max22200_spi.hpp Pages: 1 -->
<svg width="480pt" height="159pt"
 viewBox="0.00 0.00 480.26 159.00" xmlns="http://www.w3.org/2000/svg" xmlns:xlink="http://www.w3.org/1999/xlink">
<g id="graph0" class="graph" transform="scale(1 1) rotate(0) translate(4 155)">
<title>examples/esp32/main/esp32_max22200_spi.hpp</title>
<!-- Node1 -->
<g id="Node000001" class="node">
<title>Node1</title>
<g id="a_Node000001"><a xlink:title="ESP32 SPI transport implementation for MAX22200 driver.">
<polygon fill="#999999" stroke="#666666" points="262.76,-151 116.76,-151 116.76,-121 262.76,-121 262.76,-151"/>
<text text-anchor="start" x="124.76" y="-139" font-family="Helvetica,sans-Serif" font-size="10.00">examples/esp32/main</text>
<text text-anchor="middle" x="189.76" y="-128" font-family="Helvetica,sans-Serif" font-size="10.00">/esp32_max22200_spi.hpp</text>
</a>
</g>
</g>
<!-- Node2 -->
<g id="Node000002" class="node">
<title>Node2</title>
<g id="a_Node000002"><a xlink:href="max22200__spi__interface_8hpp.html" target="_top" xlink:title="CRTP&#45;based template interface for SPI communication.">
<polygon fill="white" stroke="#666666" points="128.26,-85 15.26,-85 15.26,-55 128.26,-55 128.26,-85"/>
<text text-anchor="start" x="23.26" y="-73" font-family="Helvetica,sans-Serif" font-size="10.00">../../../inc/max22200</text>
<text text-anchor="middle" x="71.76" y="-62" font-family="Helvetica,sans-Serif" font-size="10.00">_spi_interface.hpp</text>
</a>
</g>
</g>
<!-- Node1&#45;&gt;Node2 -->
<g id="edge1_Node000001_Node000002" class="edge">
<title>Node1&#45;&gt;Node2</title>
<g id="a_edge1_Node000001_Node000002"><a xlink:title=" ">
<path fill="none" stroke="#63b8ff" d="M163.86,-120.95C147.03,-111.83 124.89,-99.82 106.53,-89.86"/>
<polygon fill="#63b8ff" stroke="#63b8ff" points="108.05,-86.7 97.6,-85.01 104.72,-92.86 108.05,-86.7"/>
</a>
</g>
</g>
<!-- Node3 -->
<g id="Node000003" class="node">
<title>Node3</title>
<g id="a_Node000003"><a xlink:title=" ">
<polygon fill="#e0e0e0" stroke="#999999" points="59.26,-19 6.26,-19 6.26,0 59.26,0 59.26,-19"/>
<text text-anchor="middle" x="32.76" y="-7" font-family="Helvetica,sans-Serif" font-size="10.00">cstddef</text>
</a>
</g>
</g>
<!-- Node1&#45;&gt;Node3 -->
<g id="edge7_Node000001_Node000003" class="edge">
<title>Node1&#45;&gt;Node3</title>
<g id="a_edge7_Node000001_Node000003"><a xlink:title=" ">
<path fill="none" stroke="#63b8ff" d="M116.37,-124.31C71.26,-116.07 19.53,-103.01 5.76,-85 -7.49,-67.66 6.04,-43.21 18.26,-27.11"/>
<polygon fill="#63b8ff" stroke="#63b8ff" points="21.15,-29.1 24.73,-19.13 15.72,-24.69 21.15,-29.1"/>
</a>
</g>
</g>
<!-- Node4 -->
<g id="Node000004" class="node">
<title>Node4</title>
<g id="a_Node000004"><a xlink:title=" ">
<polygon fill="#e0e0e0" stroke="#999999" points="134.76,-19 84.76,-19 84.76,0 134.76,0 134.76,-19"/>
<text text-anchor="middle" x="109.76" y="-7" font-family="Helvetica,sans-Serif" font-size="10.00">cstdint</text>
</a>
</g>
</g>
<!-- Node1&#45;&gt;Node4 -->
<g id="edge8_Node000001_Node000004" class="edge">
<title>Node1&#45;&gt;Node4</title>
<g id="a_edge8_Node000001_Node000004"><a xlink:title=" ">
<path fill="none" stroke="#63b8ff" d="M180.58,-120.72C165.8,-97.71 136.77,-52.53 120.85,-27.76"/>
<polygon fill="#63b8ff" stroke="#63b8ff" points="123.62,-25.59 115.27,-19.07 117.73,-29.37 123.62,-25.59"/>
</a>
</g>
</g>
<!-- Node5 -->
<g id="Node000005" class="node">
<title>Node5</title>
<g id="a_Node000005"><a xlink:title=" ">
<polygon fill="#e0e0e0" stroke="#999999" points="262.76,-79.5 184.76,-79.5 184.76,-60.5 262.76,-60.5 262.76,-79.5"/>
<text text-anchor="middle" x="223.76" y="-67.5" font-family="Helvetica,sans-Serif" font-size="10.00">driver/gpio.h</text>
</a>
</g>
</g>
<!-- Node1&#45;&gt;Node5 -->
<g id="edge4_Node000001_Node000005" class="edge">
<title>Node1&#45;&gt;Node5</title>
<g id="a_edge4_Node000001_Node000005"><a xlink:title=" ">
<path fill="none" stroke="#63b8ff" d="M197.31,-120.8C202.29,-111.41 208.88,-99.02 214.23,-88.95"/>
<polygon fill="#63b8ff" stroke="#63b8ff" points="217.46,-90.32 219.06,-79.84 211.28,-87.03 217.46,-90.32"/>
</a>
</g>
</g>
<!-- Node6 -->
<g id="Node000006" class="node">
<title>Node6</title>
<g id="a_Node000006"><a xlink:title=" ">
<polygon fill="#e0e0e0" stroke="#999999" points="390.76,-79.5 280.76,-79.5 280.76,-60.5 390.76,-60.5 390.76,-79.5"/>
<text text-anchor="middle" x="335.76" y="-67.5" font-family="Helvetica,sans-Serif" font-size="10.00">driver/spi_master.h</text>
</a>
</g>
</g>
<!-- Node1&#45;&gt;Node6 -->
<g id="edge5_Node000001_Node000006" class="edge">
<title>Node1&#45;&gt;Node6</title>
<g id="a_edge5_Node000001_Node000006"><a xlink:title=" ">
<path fill="none" stroke="#63b8ff" d="M221.8,-120.95C247.18,-109.83 282.32,-94.42 306.85,-83.67"/>
<polygon fill="#63b8ff" stroke="#63b8ff" points="308.58,-86.74 316.33,-79.52 305.77,-80.33 308.58,-86.74"/>
</a>
</g>
</g>
<!-- Node7 -->
<g id="Node000007" class="node">
<title>Node7</title>
<g id="a_Node000007"><a xlink:title=" ">
<polygon fill="#e0e0e0" stroke="#999999" points="472.26,-79.5 409.26,-79.5 409.26,-60.5 472.26,-60.5 472.26,-79.5"/>
<text text-anchor="middle" x="440.76" y="-67.5" font-family="Helvetica,sans-Serif" font-size="10.00">esp_log.h</text>
</a>
</g>
</g>
<!-- Node1&#45;&gt;Node7 -->
<g id="edge6_Node000001_Node000007" class="edge">
<title>Node1&#45;&gt;Node7</title>
<g id="a_edge6_Node000001_Node000007"><a xlink:title=" ">
<path fill="none" stroke="#63b8ff" d="M255.92,-120.95C297.48,-111.7 352.06,-98.79 399.76,-85 402.23,-84.29 404.76,-83.52 407.31,-82.71"/>
<polygon fill="#63b8ff" stroke="#63b8ff" points="408.62,-85.97 417.03,-79.53 406.44,-79.31 408.62,-85.97"/>
</a>
</g>
</g>
<!-- Node2&#45;&gt;Node3 -->
<g id="edge2_Node000002_Node000003" class="edge">
<title>Node2&#45;&gt;Node3</title>
<g id="a_edge2_Node000002_Node000003"><a xlink:title=" ">
<path fill="none" stroke="#63b8ff" d="M62.32,-54.84C56.89,-46.69 50.03,-36.4 44.28,-27.78"/>
<polygon fill="#63b8ff" stroke="#63b8ff" points="47.06,-25.65 38.6,-19.27 41.24,-29.53 47.06,-25.65"/>
</a>
</g>
</g>
<!-- Node2&#45;&gt;Node4 -->
<g id="edge3_Node000002_Node000004" class="edge">
<title>Node2&#45;&gt;Node4</title>
<g id="a_edge3_Node000002_Node000004"><a xlink:title=" ">
<path fill="none" stroke="#63b8ff" d="M80.96,-54.84C86.25,-46.69 92.94,-36.4 98.54,-27.78"/>
<polygon fill="#63b8ff" stroke="#63b8ff" points="101.55,-29.56 104.07,-19.27 95.68,-25.75 101.55,-29.56"/>
</a>
</g>
</g>
</g>
</svg>
