<?xml version="1.0" encoding="UTF-8" standalone="no"?>
<!DOCTYPE svg PUBLIC "-//W3C//DTD SVG 1.1//EN"
 "http://www.w3.org/Graphics/SVG/1.1/DTD/svg11.dtd">
<!-- Generated by graphviz version 2.43.0 (0)
 -->
<!-- Title: inc/max22200_registers.hpp Pages: 1 -->
<svg width="204pt" height="214pt"
 viewBox="0.00 0.00 204.00 214.00" xmlns="http://www.w3.org/2000/svg" xmlns:xlink="http://www.w3.org/1999/xlink">
<g id="graph0" class="graph" transform="scale(1 1) rotate(0) translate(4 210)">
<title>inc/max22200_registers.hpp</title>
<!-- Node1 -->
<g id="Node000001" class="node">
<title>Node1</title>
<g id="a_Node000001"><a xlink:title="Register definitions and constants for MAX22200 IC.">
<polygon fill="#999999" stroke="#666666" points="155,-206 0,-206 0,-187 155,-187 155,-206"/>
<text text-anchor="middle" x="77.5" y="-194" font-family="Helvetica,sans-Serif" font-size="10.00">inc/max22200_registers.hpp</text>
</a>
</g>
</g>
<!-- Node2 -->
<g id="Node000002" class="node">
<title>Node2</title>
<g id="a_Node000002"><a xlink:href="max22200_8hpp.html" target="_top" xlink:title="Main driver class for MAX22200 octal solenoid and motor driver.">
<polygon fill="white" stroke="#666666" points="131,-96 24,-96 24,-77 131,-77 131,-96"/>
<text text-anchor="middle" x="77.5" y="-84" font-family="Helvetica,sans-Serif" font-size="10.00">inc/max22200.hpp</text>
</a>
</g>
</g>
<!-- Node1&#45;&gt;Node2 -->
<g id="edge1_Node000001_Node000002" class="edge">
<title>Node1&#45;&gt;Node2</title>
<g id="a_edge1_Node000001_Node000002"><a xlink:title=" ">
<path fill="none" stroke="#63b8ff" d="M62.81,-178.85C56.82,-170.98 50.59,-161.1 47.5,-151 41.23,-130.48 57.76,-108.16 68.7,-96.22"/>
<polygon fill="#63b8ff" stroke="#63b8ff" points="60.26,-181.26 69.29,-186.8 65.68,-176.84 60.26,-181.26"/>
</a>
</g>
</g>
<!-- Node4 -->
<g id="Node000004" class="node">
<title>Node4</title>
<g id="a_Node000004"><a xlink:href="max22200__types_8hpp.html" target="_top" xlink:title="Type definitions and structures for MAX22200 driver.">
<polygon fill="white" stroke="#666666" points="196,-151 57,-151 57,-132 196,-132 196,-151"/>
<text text-anchor="middle" x="126.5" y="-139" font-family="Helvetica,sans-Serif" font-size="10.00">inc/max22200_types.hpp</text>
</a>
</g>
</g>
<!-- Node1&#45;&gt;Node4 -->
<g id="edge3_Node000001_Node000004" class="edge">
<title>Node1&#45;&gt;Node4</title>
<g id="a_edge3_Node000001_Node000004"><a xlink:title=" ">
<path fill="none" stroke="#63b8ff" d="M92.53,-179.24C101.12,-169.95 111.54,-158.68 118.56,-151.09"/>
<polygon fill="#63b8ff" stroke="#63b8ff" points="89.81,-177.03 85.59,-186.75 94.95,-181.78 89.81,-177.03"/>
</a>
</g>
</g>
<!-- Node3 -->
<g id="Node000003" class="node">
<title>Node3</title>
<g id="a_Node000003"><a xlink:href="max22200__comprehensive__test_8cpp.html" target="_top" xlink:title="Comprehensive test suite for MAX22200 driver on ESP32&#45;C6.">
<polygon fill="white" stroke="#666666" points="153.5,-41 1.5,-41 1.5,0 153.5,0 153.5,-41"/>
<text text-anchor="start" x="9.5" y="-29" font-family="Helvetica,sans-Serif" font-size="10.00">examples/esp32/main</text>
<text text-anchor="start" x="9.5" y="-18" font-family="Helvetica,sans-Serif" font-size="10.00">/max22200_comprehensive</text>
<text text-anchor="middle" x="77.5" y="-7" font-family="Helvetica,sans-Serif" font-size="10.00">_test.cpp</text>
</a>
</g>
</g>
<!-- Node2&#45;&gt;Node3 -->
<g id="edge2_Node000002_Node000003" class="edge">
<title>Node2&#45;&gt;Node3</title>
<g id="a_edge2_Node000002_Node000003"><a xlink:title=" ">
<path fill="none" stroke="#63b8ff" d="M77.5,-66.63C77.5,-58.56 77.5,-49.15 77.5,-41.01"/>
<polygon fill="#63b8ff" stroke="#63b8ff" points="74,-66.87 77.5,-76.87 81,-66.87 74,-66.87"/>
</a>
</g>
</g>
<!-- Node4&#45;&gt;Node2 -->
<g id="edge4_Node000004_Node000002" class="edge">
<title>Node4&#45;&gt;Node2</title>
<g id="a_edge4_Node000004_Node000002"><a xlink:title=" ">
<path fill="none" stroke="#63b8ff" d="M111.47,-124.24C102.88,-114.95 92.46,-103.68 85.44,-96.09"/>
<polygon fill="#63b8ff" stroke="#63b8ff" points="109.05,-126.78 118.41,-131.75 114.19,-122.03 109.05,-126.78"/>
</a>
</g>
</g>
</g>
</svg>
