<?xml version="1.0" encoding="UTF-8" standalone="no"?>
<!DOCTYPE svg PUBLIC "-//W3C//DTD SVG 1.1//EN"
 "http://www.w3.org/Graphics/SVG/1.1/DTD/svg11.dtd">
<!-- Generated by graphviz version 2.43.0 (0)
 -->
<!-- Title: inc/max22200_spi_interface.hpp Pages: 1 -->
<svg width="447pt" height="170pt"
 viewBox="0.00 0.00 447.00 170.00" xmlns="http://www.w3.org/2000/svg" xmlns:xlink="http://www.w3.org/1999/xlink">
<g id="graph0" class="graph" transform="scale(1 1) rotate(0) translate(4 166)">
<title>inc/max22200_spi_interface.hpp</title>
<!-- Node1 -->
<g id="Node000001" class="node">
<title>Node1</title>
<g id="a_Node000001"><a xlink:title="CRTP&#45;based template interface for SPI communication.">
<polygon fill="#999999" stroke="#666666" points="328,-162 153,-162 153,-143 328,-143 328,-162"/>
<text text-anchor="middle" x="240.5" y="-150" font-family="Helvetica,sans-Serif" font-size="10.00">inc/max22200_spi_interface.hpp</text>
</a>
</g>
</g>
<!-- Node2 -->
<g id="Node000002" class="node">
<title>Node2</title>
<g id="a_Node000002"><a xlink:href="esp32__max22200__bus_8hpp.html" target="_top" xlink:title="ESP32 SPI transport implementation for MAX22200 driver (header&#45;only)">
<polygon fill="white" stroke="#666666" points="149,-107 0,-107 0,-77 149,-77 149,-107"/>
<text text-anchor="start" x="8" y="-95" font-family="Helvetica,sans-Serif" font-size="10.00">examples/esp32/main</text>
<text text-anchor="middle" x="74.5" y="-84" font-family="Helvetica,sans-Serif" font-size="10.00">/esp32_max22200_bus.hpp</text>
</a>
</g>
</g>
<!-- Node1&#45;&gt;Node2 -->
<g id="edge1_Node000001_Node000002" class="edge">
<title>Node1&#45;&gt;Node2</title>
<g id="a_edge1_Node000001_Node000002"><a xlink:title=" ">
<path fill="none" stroke="#63b8ff" d="M206.68,-139.58C179.96,-130.16 142.6,-117 114.41,-107.06"/>
<polygon fill="#63b8ff" stroke="#63b8ff" points="205.77,-142.97 216.36,-142.99 208.09,-136.37 205.77,-142.97"/>
</a>
</g>
</g>
<!-- Node4 -->
<g id="Node000004" class="node">
<title>Node4</title>
<g id="a_Node000004"><a xlink:href="esp32__max22200__spi_8hpp.html" target="_top" xlink:title="ESP32 SPI transport implementation for MAX22200 driver (header&#45;only)">
<polygon fill="white" stroke="#666666" points="313.5,-107 167.5,-107 167.5,-77 313.5,-77 313.5,-107"/>
<text text-anchor="start" x="175.5" y="-95" font-family="Helvetica,sans-Serif" font-size="10.00">examples/esp32/main</text>
<text text-anchor="middle" x="240.5" y="-84" font-family="Helvetica,sans-Serif" font-size="10.00">/esp32_max22200_spi.hpp</text>
</a>
</g>
</g>
<!-- Node1&#45;&gt;Node4 -->
<g id="edge3_Node000001_Node000004" class="edge">
<title>Node1&#45;&gt;Node4</title>
<g id="a_edge3_Node000001_Node000004"><a xlink:title=" ">
<path fill="none" stroke="#63b8ff" d="M240.5,-132.65C240.5,-124.36 240.5,-114.78 240.5,-107.11"/>
<polygon fill="#63b8ff" stroke="#63b8ff" points="237,-132.87 240.5,-142.87 244,-132.87 237,-132.87"/>
</a>
</g>
</g>
<!-- Node5 -->
<g id="Node000005" class="node">
<title>Node5</title>
<g id="a_Node000005"><a xlink:href="max22200_8hpp.html" target="_top" xlink:title="Main driver class for MAX22200 octal solenoid and motor driver.">
<polygon fill="white" stroke="#666666" points="439,-101.5 332,-101.5 332,-82.5 439,-82.5 439,-101.5"/>
<text text-anchor="middle" x="385.5" y="-89.5" font-family="Helvetica,sans-Serif" font-size="10.00">inc/max22200.hpp</text>
</a>
</g>
</g>
<!-- Node1&#45;&gt;Node5 -->
<g id="edge4_Node000001_Node000005" class="edge">
<title>Node1&#45;&gt;Node5</title>
<g id="a_edge4_Node000001_Node000005"><a xlink:title=" ">
<path fill="none" stroke="#63b8ff" d="M270.91,-139.23C298.93,-127.92 339.79,-111.44 364.39,-101.52"/>
<polygon fill="#63b8ff" stroke="#63b8ff" points="269.55,-136.01 261.58,-142.99 272.17,-142.5 269.55,-136.01"/>
</a>
</g>
</g>
<!-- Node3 -->
<g id="Node000003" class="node">
<title>Node3</title>
<g id="a_Node000003"><a xlink:href="max22200__comprehensive__test_8cpp.html" target="_top" xlink:title="Comprehensive test suite for MAX22200 driver on ESP32&#45;C6.">
<polygon fill="white" stroke="#666666" points="305.5,-41 153.5,-41 153.5,0 305.5,0 305.5,-41"/>
<text text-anchor="start" x="161.5" y="-29" font-family="Helvetica,sans-Serif" font-size="10.00">examples/esp32/main</text>
<text text-anchor="start" x="161.5" y="-18" font-family="Helvetica,sans-Serif" font-size="10.00">/max22200_comprehensive</text>
<text text-anchor="middle" x="229.5" y="-7" font-family="Helvetica,sans-Serif" font-size="10.00">_test.cpp</text>
</a>
</g>
</g>
<!-- Node2&#45;&gt;Node3 -->
<g id="edge2_Node000002_Node000003" class="edge">
<title>Node2&#45;&gt;Node3</title>
<g id="a_edge2_Node000002_Node000003"><a xlink:title=" ">
<path fill="none" stroke="#63b8ff" d="M115.15,-72.77C136.89,-63.02 163.67,-51.02 185.85,-41.07"/>
<polygon fill="#63b8ff" stroke="#63b8ff" points="113.56,-69.65 105.87,-76.94 116.42,-76.04 113.56,-69.65"/>
</a>
</g>
</g>
<!-- Node5&#45;&gt;Node3 -->
<g id="edge5_Node000005_Node000003" class="edge">
<title>Node5&#45;&gt;Node3</title>
<g id="a_edge5_Node000005_Node000003"><a xlink:title=" ">
<path fill="none" stroke="#63b8ff" d="M357.02,-78.31C333.64,-67.89 300.13,-52.97 273.33,-41.03"/>
<polygon fill="#63b8ff" stroke="#63b8ff" points="355.81,-81.61 366.37,-82.48 358.66,-75.21 355.81,-81.61"/>
</a>
</g>
</g>
</g>
</svg>
