<?xml version="1.0" encoding="UTF-8" standalone="no"?>
<!DOCTYPE svg PUBLIC "-//W3C//DTD SVG 1.1//EN"
 "http://www.w3.org/Graphics/SVG/1.1/DTD/svg11.dtd">
<!-- Generated by graphviz version 2.43.0 (0)
 -->
<!-- Title: inc/max22200.hpp Pages: 1 -->
<svg width="645pt" height="192pt"
 viewBox="0.00 0.00 644.60 192.00" xmlns="http://www.w3.org/2000/svg" xmlns:xlink="http://www.w3.org/1999/xlink">
<g id="graph0" class="graph" transform="scale(1 1) rotate(0) translate(4 188)">
<title>inc/max22200.hpp</title>
<!-- Node1 -->
<g id="Node000001" class="node">
<title>Node1</title>
<g id="a_Node000001"><a xlink:title="Main driver class for MAX22200 octal solenoid and motor driver.">
<polygon fill="#999999" stroke="#666666" points="287.6,-184 180.6,-184 180.6,-165 287.6,-165 287.6,-184"/>
<text text-anchor="middle" x="234.1" y="-172" font-family="Helvetica,sans-Serif" font-size="10.00">inc/max22200.hpp</text>
</a>
</g>
</g>
<!-- Node2 -->
<g id="Node000002" class="node">
<title>Node2</title>
<g id="a_Node000002"><a xlink:href="max22200__registers_8hpp.html" target="_top" xlink:title="Register definitions and constants for MAX22200 IC.">
<polygon fill="white" stroke="#666666" points="149.6,-74 12.6,-74 12.6,-55 149.6,-55 149.6,-74"/>
<text text-anchor="middle" x="81.1" y="-62" font-family="Helvetica,sans-Serif" font-size="10.00">max22200_registers.hpp</text>
</a>
</g>
</g>
<!-- Node1&#45;&gt;Node2 -->
<g id="edge1_Node000001_Node000002" class="edge">
<title>Node1&#45;&gt;Node2</title>
<g id="a_edge1_Node000001_Node000002"><a xlink:title=" ">
<path fill="none" stroke="#63b8ff" d="M180.34,-165.52C139.4,-158.22 87.96,-145.96 75.1,-129 65.39,-116.2 68.61,-97.53 73.22,-83.74"/>
<polygon fill="#63b8ff" stroke="#63b8ff" points="76.52,-84.92 76.83,-74.33 69.98,-82.41 76.52,-84.92"/>
</a>
</g>
</g>
<!-- Node3 -->
<g id="Node000003" class="node">
<title>Node3</title>
<g id="a_Node000003"><a xlink:title=" ">
<polygon fill="#e0e0e0" stroke="#999999" points="154.1,-19 104.1,-19 104.1,0 154.1,0 154.1,-19"/>
<text text-anchor="middle" x="129.1" y="-7" font-family="Helvetica,sans-Serif" font-size="10.00">cstdint</text>
</a>
</g>
</g>
<!-- Node1&#45;&gt;Node3 -->
<g id="edge11_Node000001_Node000003" class="edge">
<title>Node1&#45;&gt;Node3</title>
<g id="a_edge11_Node000001_Node000003"><a xlink:title=" ">
<path fill="none" stroke="#63b8ff" d="M180.59,-169.9C122.19,-162.59 33,-140.51 3.1,-74 -14.45,-34.99 50.55,-19.65 93.66,-13.85"/>
<polygon fill="#63b8ff" stroke="#63b8ff" points="94.32,-17.29 103.82,-12.6 93.47,-10.34 94.32,-17.29"/>
</a>
</g>
</g>
<!-- Node4 -->
<g id="Node000004" class="node">
<title>Node4</title>
<g id="a_Node000004"><a xlink:href="max22200__types_8hpp.html" target="_top" xlink:title="Type definitions and structures for MAX22200 driver.">
<polygon fill="white" stroke="#666666" points="206.1,-129 84.1,-129 84.1,-110 206.1,-110 206.1,-129"/>
<text text-anchor="middle" x="145.1" y="-117" font-family="Helvetica,sans-Serif" font-size="10.00">max22200_types.hpp</text>
</a>
</g>
</g>
<!-- Node1&#45;&gt;Node4 -->
<g id="edge3_Node000001_Node000004" class="edge">
<title>Node1&#45;&gt;Node4</title>
<g id="a_edge3_Node000001_Node000004"><a xlink:title=" ">
<path fill="none" stroke="#63b8ff" d="M219.8,-164.98C205.99,-156.77 184.86,-144.18 168.58,-134.49"/>
<polygon fill="#63b8ff" stroke="#63b8ff" points="170.04,-131.28 159.66,-129.17 166.46,-137.29 170.04,-131.28"/>
</a>
</g>
</g>
<!-- Node5 -->
<g id="Node000005" class="node">
<title>Node5</title>
<g id="a_Node000005"><a xlink:title=" ">
<polygon fill="#e0e0e0" stroke="#999999" points="248.1,-74 206.1,-74 206.1,-55 248.1,-55 248.1,-74"/>
<text text-anchor="middle" x="227.1" y="-62" font-family="Helvetica,sans-Serif" font-size="10.00">array</text>
</a>
</g>
</g>
<!-- Node1&#45;&gt;Node5 -->
<g id="edge10_Node000001_Node000005" class="edge">
<title>Node1&#45;&gt;Node5</title>
<g id="a_edge10_Node000001_Node000005"><a xlink:title=" ">
<path fill="none" stroke="#63b8ff" d="M233.52,-164.66C232.39,-147.17 229.84,-107.8 228.31,-84.27"/>
<polygon fill="#63b8ff" stroke="#63b8ff" points="231.8,-83.91 227.66,-74.16 224.81,-84.36 231.8,-83.91"/>
</a>
</g>
</g>
<!-- Node6 -->
<g id="Node000006" class="node">
<title>Node6</title>
<g id="a_Node000006"><a xlink:href="max22200__spi__interface_8hpp.html" target="_top" xlink:title="CRTP&#45;based template interface for SPI communication.">
<polygon fill="white" stroke="#666666" points="420.1,-129 262.1,-129 262.1,-110 420.1,-110 420.1,-129"/>
<text text-anchor="middle" x="341.1" y="-117" font-family="Helvetica,sans-Serif" font-size="10.00">max22200_spi_interface.hpp</text>
</a>
</g>
</g>
<!-- Node1&#45;&gt;Node6 -->
<g id="edge7_Node000001_Node000006" class="edge">
<title>Node1&#45;&gt;Node6</title>
<g id="a_edge7_Node000001_Node000006"><a xlink:title=" ">
<path fill="none" stroke="#63b8ff" d="M251.29,-164.98C268.34,-156.54 294.73,-143.47 314.49,-133.68"/>
<polygon fill="#63b8ff" stroke="#63b8ff" points="316.18,-136.75 323.59,-129.17 313.08,-130.47 316.18,-136.75"/>
</a>
</g>
</g>
<!-- Node8 -->
<g id="Node000008" class="node">
<title>Node8</title>
<g id="a_Node000008"><a xlink:title=" ">
<polygon fill="#e0e0e0" stroke="#999999" points="503.6,-129 438.6,-129 438.6,-110 503.6,-110 503.6,-129"/>
<text text-anchor="middle" x="471.1" y="-117" font-family="Helvetica,sans-Serif" font-size="10.00">functional</text>
</a>
</g>
</g>
<!-- Node1&#45;&gt;Node8 -->
<g id="edge12_Node000001_Node000008" class="edge">
<title>Node1&#45;&gt;Node8</title>
<g id="a_edge12_Node000001_Node000008"><a xlink:title=" ">
<path fill="none" stroke="#63b8ff" d="M272.17,-164.98C314.9,-155.43 384.05,-139.97 428.53,-130.02"/>
<polygon fill="#63b8ff" stroke="#63b8ff" points="429.46,-133.4 438.45,-127.8 427.93,-126.57 429.46,-133.4"/>
</a>
</g>
</g>
<!-- Node9 -->
<g id="Node000009" class="node">
<title>Node9</title>
<g id="a_Node000009"><a xlink:href="max22200_8cpp.html" target="_top" xlink:title=" ">
<polygon fill="white" stroke="#666666" points="636.6,-129 521.6,-129 521.6,-110 636.6,-110 636.6,-129"/>
<text text-anchor="middle" x="579.1" y="-117" font-family="Helvetica,sans-Serif" font-size="10.00">../src/max22200.cpp</text>
</a>
</g>
</g>
<!-- Node1&#45;&gt;Node9 -->
<g id="edge13_Node000001_Node000009" class="edge">
<title>Node1&#45;&gt;Node9</title>
<g id="a_edge13_Node000001_Node000009"><a xlink:title=" ">
<path fill="none" stroke="#63b8ff" d="M287.62,-165.28C348.53,-155.92 448.01,-140.64 513.52,-130.57"/>
<polygon fill="#63b8ff" stroke="#63b8ff" points="514.37,-133.98 523.73,-129.01 513.31,-127.06 514.37,-133.98"/>
</a>
</g>
</g>
<!-- Node2&#45;&gt;Node3 -->
<g id="edge2_Node000002_Node000003" class="edge">
<title>Node2&#45;&gt;Node3</title>
<g id="a_edge2_Node000002_Node000003"><a xlink:title=" ">
<path fill="none" stroke="#63b8ff" d="M89.02,-54.75C95.94,-47.11 106.16,-35.82 114.55,-26.56"/>
<polygon fill="#63b8ff" stroke="#63b8ff" points="117.2,-28.85 121.32,-19.09 112.01,-24.15 117.2,-28.85"/>
</a>
</g>
</g>
<!-- Node4&#45;&gt;Node2 -->
<g id="edge4_Node000004_Node000002" class="edge">
<title>Node4&#45;&gt;Node2</title>
<g id="a_edge4_Node000004_Node000002"><a xlink:title=" ">
<path fill="none" stroke="#63b8ff" d="M134.81,-109.98C125.26,-102.07 110.82,-90.11 99.31,-80.58"/>
<polygon fill="#63b8ff" stroke="#63b8ff" points="101.5,-77.85 91.57,-74.17 97.03,-83.24 101.5,-77.85"/>
</a>
</g>
</g>
<!-- Node4&#45;&gt;Node3 -->
<g id="edge6_Node000004_Node000003" class="edge">
<title>Node4&#45;&gt;Node3</title>
<g id="a_edge6_Node000004_Node000003"><a xlink:title=" ">
<path fill="none" stroke="#63b8ff" d="M149.57,-109.75C155.29,-97.4 163.8,-74.2 158.1,-55 155.12,-44.98 149.09,-35.11 143.3,-27.22"/>
<polygon fill="#63b8ff" stroke="#63b8ff" points="145.97,-24.95 137.04,-19.25 140.47,-29.28 145.97,-24.95"/>
</a>
</g>
</g>
<!-- Node4&#45;&gt;Node5 -->
<g id="edge5_Node000004_Node000005" class="edge">
<title>Node4&#45;&gt;Node5</title>
<g id="a_edge5_Node000004_Node000005"><a xlink:title=" ">
<path fill="none" stroke="#63b8ff" d="M158.27,-109.98C170.87,-101.84 190.1,-89.41 205.03,-79.76"/>
<polygon fill="#63b8ff" stroke="#63b8ff" points="207.18,-82.54 213.68,-74.17 203.38,-76.66 207.18,-82.54"/>
</a>
</g>
</g>
<!-- Node6&#45;&gt;Node3 -->
<g id="edge9_Node000006_Node000003" class="edge">
<title>Node6&#45;&gt;Node3</title>
<g id="a_edge9_Node000006_Node000003"><a xlink:title=" ">
<path fill="none" stroke="#63b8ff" d="M342.03,-109.76C342.97,-96.11 342.6,-69.77 328.1,-55 305.63,-32.13 215.35,-19.34 164.45,-13.82"/>
<polygon fill="#63b8ff" stroke="#63b8ff" points="164.53,-10.31 154.22,-12.75 163.81,-17.28 164.53,-10.31"/>
</a>
</g>
</g>
<!-- Node7 -->
<g id="Node000007" class="node">
<title>Node7</title>
<g id="a_Node000007"><a xlink:title=" ">
<polygon fill="#e0e0e0" stroke="#999999" points="319.6,-74 266.6,-74 266.6,-55 319.6,-55 319.6,-74"/>
<text text-anchor="middle" x="293.1" y="-62" font-family="Helvetica,sans-Serif" font-size="10.00">cstddef</text>
</a>
</g>
</g>
<!-- Node6&#45;&gt;Node7 -->
<g id="edge8_Node000006_Node000007" class="edge">
<title>Node6&#45;&gt;Node7</title>
<g id="a_edge8_Node000006_Node000007"><a xlink:title=" ">
<path fill="none" stroke="#63b8ff" d="M333.17,-109.75C326.25,-102.11 316.03,-90.82 307.64,-81.56"/>
<polygon fill="#63b8ff" stroke="#63b8ff" points="310.18,-79.15 300.87,-74.09 304.99,-83.85 310.18,-79.15"/>
</a>
</g>
</g>
<!-- Node10 -->
<g id="Node000010" class="node">
<title>Node10</title>
<g id="a_Node000010"><a xlink:title=" ">
<polygon fill="#e0e0e0" stroke="#999999" points="605.6,-74 552.6,-74 552.6,-55 605.6,-55 605.6,-74"/>
<text text-anchor="middle" x="579.1" y="-62" font-family="Helvetica,sans-Serif" font-size="10.00">string.h</text>
</a>
</g>
</g>
<!-- Node9&#45;&gt;Node10 -->
<g id="edge14_Node000009_Node000010" class="edge">
<title>Node9&#45;&gt;Node10</title>
<g id="a_edge14_Node000009_Node000010"><a xlink:title=" ">
<path fill="none" stroke="#63b8ff" d="M579.1,-109.75C579.1,-102.8 579.1,-92.85 579.1,-84.13"/>
<polygon fill="#63b8ff" stroke="#63b8ff" points="582.6,-84.09 579.1,-74.09 575.6,-84.09 582.6,-84.09"/>
</a>
</g>
</g>
</g>
</svg>
