<?xml version="1.0" encoding="UTF-8" standalone="no"?>
<!DOCTYPE svg PUBLIC "-//W3C//DTD SVG 1.1//EN"
 "http://www.w3.org/Graphics/SVG/1.1/DTD/svg11.dtd">
<!-- Generated by graphviz version 2.43.0 (0)
 -->
<!-- Title: inc/max22200_registers.hpp Pages: 1 -->
<svg width="328pt" height="214pt"
 viewBox="0.00 0.00 328.00 214.00" xmlns="http://www.w3.org/2000/svg" xmlns:xlink="http://www.w3.org/1999/xlink">
<g id="graph0" class="graph" transform="scale(1 1) rotate(0) translate(4 210)">
<title>inc/max22200_registers.hpp</title>
<!-- Node1 -->
<g id="Node000001" class="node">
<title>Node1</title>
<g id="a_Node000001"><a xlink:title="Register definitions and constants for MAX22200 IC.">
<polygon fill="#999999" stroke="#666666" points="281.5,-206 126.5,-206 126.5,-187 281.5,-187 281.5,-206"/>
<text text-anchor="middle" x="204" y="-194" font-family="Helvetica,sans-Serif" font-size="10.00">inc/max22200_registers.hpp</text>
</a>
</g>
</g>
<!-- Node2 -->
<g id="Node000002" class="node">
<title>Node2</title>
<g id="a_Node000002"><a xlink:href="max22200__comprehensive__test_8cpp.html" target="_top" xlink:title="Comprehensive test suite for MAX22200 driver on ESP32.">
<polygon fill="white" stroke="#666666" points="152,-41 0,-41 0,0 152,0 152,-41"/>
<text text-anchor="start" x="8" y="-29" font-family="Helvetica,sans-Serif" font-size="10.00">examples/esp32/main</text>
<text text-anchor="start" x="8" y="-18" font-family="Helvetica,sans-Serif" font-size="10.00">/max22200_comprehensive</text>
<text text-anchor="middle" x="76" y="-7" font-family="Helvetica,sans-Serif" font-size="10.00">_test.cpp</text>
</a>
</g>
</g>
<!-- Node1&#45;&gt;Node2 -->
<g id="edge1_Node000001_Node000002" class="edge">
<title>Node1&#45;&gt;Node2</title>
<g id="a_edge1_Node000001_Node000002"><a xlink:title=" ">
<path fill="none" stroke="#63b8ff" d="M124.43,-183.82C105.96,-177.21 88.4,-166.94 77,-151 53.72,-118.45 62.33,-68.55 69.74,-41.17"/>
<polygon fill="#63b8ff" stroke="#63b8ff" points="123.54,-187.21 134.14,-186.95 125.69,-180.55 123.54,-187.21"/>
</a>
</g>
</g>
<!-- Node3 -->
<g id="Node000003" class="node">
<title>Node3</title>
<g id="a_Node000003"><a xlink:href="max22200__solenoid__valve__test_8cpp.html" target="_top" xlink:title="Dedicated solenoid/valve test for MAX22200 driver on ESP32.">
<polygon fill="white" stroke="#666666" points="320,-41 170,-41 170,0 320,0 320,-41"/>
<text text-anchor="start" x="178" y="-29" font-family="Helvetica,sans-Serif" font-size="10.00">examples/esp32/main</text>
<text text-anchor="start" x="178" y="-18" font-family="Helvetica,sans-Serif" font-size="10.00">/max22200_solenoid_valve</text>
<text text-anchor="middle" x="245" y="-7" font-family="Helvetica,sans-Serif" font-size="10.00">_test.cpp</text>
</a>
</g>
</g>
<!-- Node1&#45;&gt;Node3 -->
<g id="edge2_Node000001_Node000003" class="edge">
<title>Node1&#45;&gt;Node3</title>
<g id="a_edge2_Node000001_Node000003"><a xlink:title=" ">
<path fill="none" stroke="#63b8ff" d="M224.74,-180.75C247.03,-163.43 281,-132.41 294,-96 301.23,-75.73 286.17,-55.51 270.88,-41.26"/>
<polygon fill="#63b8ff" stroke="#63b8ff" points="222.45,-178.09 216.56,-186.9 226.66,-183.69 222.45,-178.09"/>
</a>
</g>
</g>
<!-- Node4 -->
<g id="Node000004" class="node">
<title>Node4</title>
<g id="a_Node000004"><a xlink:href="max22200_8hpp.html" target="_top" xlink:title="Main driver class for MAX22200 octal solenoid and motor driver.">
<polygon fill="white" stroke="#666666" points="284.5,-96 177.5,-96 177.5,-77 284.5,-77 284.5,-96"/>
<text text-anchor="middle" x="231" y="-84" font-family="Helvetica,sans-Serif" font-size="10.00">inc/max22200.hpp</text>
</a>
</g>
</g>
<!-- Node1&#45;&gt;Node4 -->
<g id="edge3_Node000001_Node000004" class="edge">
<title>Node1&#45;&gt;Node4</title>
<g id="a_edge3_Node000001_Node000004"><a xlink:title=" ">
<path fill="none" stroke="#63b8ff" d="M218.69,-178.85C224.68,-170.98 230.91,-161.1 234,-151 239.74,-132.21 236.05,-108.85 233.26,-96.36"/>
<polygon fill="#63b8ff" stroke="#63b8ff" points="215.82,-176.84 212.21,-186.8 221.24,-181.26 215.82,-176.84"/>
</a>
</g>
</g>
<!-- Node5 -->
<g id="Node000005" class="node">
<title>Node5</title>
<g id="a_Node000005"><a xlink:href="max22200__types_8hpp.html" target="_top" xlink:title="Type definitions and structures for MAX22200 driver.">
<polygon fill="white" stroke="#666666" points="224.5,-151 85.5,-151 85.5,-132 224.5,-132 224.5,-151"/>
<text text-anchor="middle" x="155" y="-139" font-family="Helvetica,sans-Serif" font-size="10.00">inc/max22200_types.hpp</text>
</a>
</g>
</g>
<!-- Node1&#45;&gt;Node5 -->
<g id="edge6_Node000001_Node000005" class="edge">
<title>Node1&#45;&gt;Node5</title>
<g id="a_edge6_Node000001_Node000005"><a xlink:title=" ">
<path fill="none" stroke="#63b8ff" d="M188.97,-179.24C180.38,-169.95 169.96,-158.68 162.94,-151.09"/>
<polygon fill="#63b8ff" stroke="#63b8ff" points="186.55,-181.78 195.91,-186.75 191.69,-177.03 186.55,-181.78"/>
</a>
</g>
</g>
<!-- Node4&#45;&gt;Node2 -->
<g id="edge4_Node000004_Node000002" class="edge">
<title>Node4&#45;&gt;Node2</title>
<g id="a_edge4_Node000004_Node000002"><a xlink:title=" ">
<path fill="none" stroke="#63b8ff" d="M200.6,-72.95C178.58,-63.86 148.4,-51.39 123.25,-41.01"/>
<polygon fill="#63b8ff" stroke="#63b8ff" points="199.52,-76.29 210.1,-76.87 202.19,-69.82 199.52,-76.29"/>
</a>
</g>
</g>
<!-- Node4&#45;&gt;Node3 -->
<g id="edge5_Node000004_Node000003" class="edge">
<title>Node4&#45;&gt;Node3</title>
<g id="a_edge5_Node000004_Node000003"><a xlink:title=" ">
<path fill="none" stroke="#63b8ff" d="M235.07,-66.91C236.84,-58.78 238.93,-49.24 240.73,-41.01"/>
<polygon fill="#63b8ff" stroke="#63b8ff" points="231.61,-66.35 232.89,-76.87 238.44,-67.85 231.61,-66.35"/>
</a>
</g>
</g>
<!-- Node5&#45;&gt;Node2 -->
<g id="edge7_Node000005_Node000002" class="edge">
<title>Node5&#45;&gt;Node2</title>
<g id="a_edge7_Node000005_Node000002"><a xlink:title=" ">
<path fill="none" stroke="#63b8ff" d="M143.66,-123.41C129.21,-101.65 104.29,-64.11 89.06,-41.17"/>
<polygon fill="#63b8ff" stroke="#63b8ff" points="140.87,-125.55 149.32,-131.94 146.7,-121.67 140.87,-125.55"/>
</a>
</g>
</g>
<!-- Node5&#45;&gt;Node3 -->
<g id="edge8_Node000005_Node000003" class="edge">
<title>Node5&#45;&gt;Node3</title>
<g id="a_edge8_Node000005_Node000003"><a xlink:title=" ">
<path fill="none" stroke="#63b8ff" d="M155.64,-121.98C156.88,-108.54 160.22,-90.44 169,-77 178.56,-62.36 193.4,-50.27 207.45,-41.14"/>
<polygon fill="#63b8ff" stroke="#63b8ff" points="152.14,-121.76 155.02,-131.96 159.13,-122.2 152.14,-121.76"/>
</a>
</g>
</g>
<!-- Node5&#45;&gt;Node4 -->
<g id="edge9_Node000005_Node000004" class="edge">
<title>Node5&#45;&gt;Node4</title>
<g id="a_edge9_Node000005_Node000004"><a xlink:title=" ">
<path fill="none" stroke="#63b8ff" d="M175.58,-126.15C189.31,-116.57 206.93,-104.29 218.57,-96.17"/>
<polygon fill="#63b8ff" stroke="#63b8ff" points="173.41,-123.39 167.21,-131.98 177.42,-129.14 173.41,-123.39"/>
</a>
</g>
</g>
</g>
</svg>
