<?xml version="1.0" encoding="UTF-8" standalone="no"?>
<!DOCTYPE svg PUBLIC "-//W3C//DTD SVG 1.1//EN"
 "http://www.w3.org/Graphics/SVG/1.1/DTD/svg11.dtd">
<!-- Generated by graphviz version 2.43.0 (0)
 -->
<!-- Title: inc/max22200_spi_interface.hpp Pages: 1 -->
<svg width="282pt" height="170pt"
 viewBox="0.00 0.00 282.00 170.00" xmlns="http://www.w3.org/2000/svg" xmlns:xlink="http://www.w3.org/1999/xlink">
<g id="graph0" class="graph" transform="scale(1 1) rotate(0) translate(4 166)">
<title>inc/max22200_spi_interface.hpp</title>
<!-- Node1 -->
<g id="Node000001" class="node">
<title>Node1</title>
<g id="a_Node000001"><a xlink:title="CRTP&#45;based template interface for SPI communication.">
<polygon fill="#999999" stroke="#666666" points="235,-162 60,-162 60,-143 235,-143 235,-162"/>
<text text-anchor="middle" x="147.5" y="-150" font-family="Helvetica,sans-Serif" font-size="10.00">inc/max22200_spi_interface.hpp</text>
</a>
</g>
</g>
<!-- Node2 -->
<g id="Node000002" class="node">
<title>Node2</title>
<g id="a_Node000002"><a xlink:href="esp32__max22200__bus_8hpp.html" target="_top" xlink:title="ESP32 SPI transport implementation for MAX22200 driver (header&#45;only)">
<polygon fill="white" stroke="#666666" points="149,-107 0,-107 0,-77 149,-77 149,-107"/>
<text text-anchor="start" x="8" y="-95" font-family="Helvetica,sans-Serif" font-size="10.00">examples/esp32/main</text>
<text text-anchor="middle" x="74.5" y="-84" font-family="Helvetica,sans-Serif" font-size="10.00">/esp32_max22200_bus.hpp</text>
</a>
</g>
</g>
<!-- Node1&#45;&gt;Node2 -->
<g id="edge1_Node000001_Node000002" class="edge">
<title>Node1&#45;&gt;Node2</title>
<g id="a_edge1_Node000001_Node000002"><a xlink:title=" ">
<path fill="none" stroke="#63b8ff" d="M128.78,-136.5C117.49,-127.45 103.2,-116 92.11,-107.11"/>
<polygon fill="#63b8ff" stroke="#63b8ff" points="126.74,-139.35 136.73,-142.87 131.11,-133.88 126.74,-139.35"/>
</a>
</g>
</g>
<!-- Node4 -->
<g id="Node000004" class="node">
<title>Node4</title>
<g id="a_Node000004"><a xlink:href="max22200_8hpp.html" target="_top" xlink:title="Main driver class for MAX22200 octal solenoid and motor driver.">
<polygon fill="white" stroke="#666666" points="274,-101.5 167,-101.5 167,-82.5 274,-82.5 274,-101.5"/>
<text text-anchor="middle" x="220.5" y="-89.5" font-family="Helvetica,sans-Serif" font-size="10.00">inc/max22200.hpp</text>
</a>
</g>
</g>
<!-- Node1&#45;&gt;Node4 -->
<g id="edge3_Node000001_Node000004" class="edge">
<title>Node1&#45;&gt;Node4</title>
<g id="a_edge3_Node000001_Node000004"><a xlink:title=" ">
<path fill="none" stroke="#63b8ff" d="M166.17,-136.54C179.96,-125.49 198.24,-110.84 209.68,-101.67"/>
<polygon fill="#63b8ff" stroke="#63b8ff" points="163.89,-133.88 158.27,-142.87 168.26,-139.35 163.89,-133.88"/>
</a>
</g>
</g>
<!-- Node3 -->
<g id="Node000003" class="node">
<title>Node3</title>
<g id="a_Node000003"><a xlink:href="max22200__comprehensive__test_8cpp.html" target="_top" xlink:title="Comprehensive test suite for MAX22200 driver on ESP32&#45;C6.">
<polygon fill="white" stroke="#666666" points="223.5,-41 71.5,-41 71.5,0 223.5,0 223.5,-41"/>
<text text-anchor="start" x="79.5" y="-29" font-family="Helvetica,sans-Serif" font-size="10.00">examples/esp32/main</text>
<text text-anchor="start" x="79.5" y="-18" font-family="Helvetica,sans-Serif" font-size="10.00">/max22200_comprehensive</text>
<text text-anchor="middle" x="147.5" y="-7" font-family="Helvetica,sans-Serif" font-size="10.00">_test.cpp</text>
</a>
</g>
</g>
<!-- Node2&#45;&gt;Node3 -->
<g id="edge2_Node000002_Node000003" class="edge">
<title>Node2&#45;&gt;Node3</title>
<g id="a_edge2_Node000002_Node000003"><a xlink:title=" ">
<path fill="none" stroke="#63b8ff" d="M96.6,-69.96C106.24,-60.78 117.48,-50.08 126.94,-41.07"/>
<polygon fill="#63b8ff" stroke="#63b8ff" points="94.1,-67.51 89.27,-76.94 98.93,-72.58 94.1,-67.51"/>
</a>
</g>
</g>
<!-- Node4&#45;&gt;Node3 -->
<g id="edge4_Node000004_Node000003" class="edge">
<title>Node4&#45;&gt;Node3</title>
<g id="a_edge4_Node000004_Node000003"><a xlink:title=" ">
<path fill="none" stroke="#63b8ff" d="M204.16,-75.45C193.53,-65.32 179.57,-52.03 168.16,-41.17"/>
<polygon fill="#63b8ff" stroke="#63b8ff" points="201.89,-78.12 211.55,-82.48 206.72,-73.05 201.89,-78.12"/>
</a>
</g>
</g>
</g>
</svg>
