<?xml version="1.0" encoding="UTF-8" standalone="no"?>
<!DOCTYPE svg PUBLIC "-//W3C//DTD SVG 1.1//EN"
 "http://www.w3.org/Graphics/SVG/1.1/DTD/svg11.dtd">
<!-- Generated by graphviz version 2.43.0 (0)
 -->
<!-- Title: inc/max22200.hpp Pages: 1 -->
<svg width="663pt" height="192pt"
 viewBox="0.00 0.00 663.00 192.00" xmlns="http://www.w3.org/2000/svg" xmlns:xlink="http://www.w3.org/1999/xlink">
<g id="graph0" class="graph" transform="scale(1 1) rotate(0) translate(4 188)">
<title>inc/max22200.hpp</title>
<!-- Node1 -->
<g id="Node000001" class="node">
<title>Node1</title>
<g id="a_Node000001"><a xlink:title="Main driver class for MAX22200 octal solenoid and motor driver.">
<polygon fill="#999999" stroke="#666666" points="375,-184 268,-184 268,-165 375,-165 375,-184"/>
<text text-anchor="middle" x="321.5" y="-172" font-family="Helvetica,sans-Serif" font-size="10.00">inc/max22200.hpp</text>
</a>
</g>
</g>
<!-- Node2 -->
<g id="Node000002" class="node">
<title>Node2</title>
<g id="a_Node000002"><a xlink:href="max22200__registers_8hpp.html" target="_top" xlink:title="Register definitions and constants for MAX22200 IC.">
<polygon fill="white" stroke="#666666" points="137,-74 0,-74 0,-55 137,-55 137,-74"/>
<text text-anchor="middle" x="68.5" y="-62" font-family="Helvetica,sans-Serif" font-size="10.00">max22200_registers.hpp</text>
</a>
</g>
</g>
<!-- Node1&#45;&gt;Node2 -->
<g id="edge1_Node000001_Node000002" class="edge">
<title>Node1&#45;&gt;Node2</title>
<g id="a_edge1_Node000001_Node000002"><a xlink:title=" ">
<path fill="none" stroke="#63b8ff" d="M267.9,-172.4C198.2,-169.71 82.16,-160.49 55.5,-129 44.85,-116.42 50.64,-97.45 57.55,-83.52"/>
<polygon fill="#63b8ff" stroke="#63b8ff" points="60.79,-84.88 62.55,-74.43 54.66,-81.5 60.79,-84.88"/>
</a>
</g>
</g>
<!-- Node3 -->
<g id="Node000003" class="node">
<title>Node3</title>
<g id="a_Node000003"><a xlink:title=" ">
<polygon fill="#e0e0e0" stroke="#999999" points="240.5,-19 190.5,-19 190.5,0 240.5,0 240.5,-19"/>
<text text-anchor="middle" x="215.5" y="-7" font-family="Helvetica,sans-Serif" font-size="10.00">cstdint</text>
</a>
</g>
</g>
<!-- Node1&#45;&gt;Node3 -->
<g id="edge11_Node000001_Node000003" class="edge">
<title>Node1&#45;&gt;Node3</title>
<g id="a_edge11_Node000001_Node000003"><a xlink:title=" ">
<path fill="none" stroke="#63b8ff" d="M354.88,-164.96C384.18,-155.48 420.54,-137.75 409.5,-110 384.47,-47.09 299.7,-23.52 250.9,-15.02"/>
<polygon fill="#63b8ff" stroke="#63b8ff" points="251.2,-11.53 240.77,-13.39 250.09,-18.44 251.2,-11.53"/>
</a>
</g>
</g>
<!-- Node4 -->
<g id="Node000004" class="node">
<title>Node4</title>
<g id="a_Node000004"><a xlink:href="max22200__types_8hpp.html" target="_top" xlink:title="Type definitions and structures for MAX22200 driver.">
<polygon fill="white" stroke="#666666" points="186.5,-129 64.5,-129 64.5,-110 186.5,-110 186.5,-129"/>
<text text-anchor="middle" x="125.5" y="-117" font-family="Helvetica,sans-Serif" font-size="10.00">max22200_types.hpp</text>
</a>
</g>
</g>
<!-- Node1&#45;&gt;Node4 -->
<g id="edge3_Node000001_Node000004" class="edge">
<title>Node1&#45;&gt;Node4</title>
<g id="a_edge3_Node000001_Node000004"><a xlink:title=" ">
<path fill="none" stroke="#63b8ff" d="M290.01,-164.98C256.68,-155.97 203.9,-141.7 167.15,-131.76"/>
<polygon fill="#63b8ff" stroke="#63b8ff" points="167.8,-128.31 157.24,-129.08 165.98,-135.07 167.8,-128.31"/>
</a>
</g>
</g>
<!-- Node5 -->
<g id="Node000005" class="node">
<title>Node5</title>
<g id="a_Node000005"><a xlink:title=" ">
<polygon fill="#e0e0e0" stroke="#999999" points="235.5,-74 193.5,-74 193.5,-55 235.5,-55 235.5,-74"/>
<text text-anchor="middle" x="214.5" y="-62" font-family="Helvetica,sans-Serif" font-size="10.00">array</text>
</a>
</g>
</g>
<!-- Node1&#45;&gt;Node5 -->
<g id="edge10_Node000001_Node000005" class="edge">
<title>Node1&#45;&gt;Node5</title>
<g id="a_edge10_Node000001_Node000005"><a xlink:title=" ">
<path fill="none" stroke="#63b8ff" d="M291.05,-164.95C271.99,-158.13 248.33,-146.73 233.5,-129 223,-116.45 218.3,-98.25 216.2,-84.55"/>
<polygon fill="#63b8ff" stroke="#63b8ff" points="219.64,-83.84 214.98,-74.32 212.69,-84.67 219.64,-83.84"/>
</a>
</g>
</g>
<!-- Node6 -->
<g id="Node000006" class="node">
<title>Node6</title>
<g id="a_Node000006"><a xlink:href="max22200__spi__interface_8hpp.html" target="_top" xlink:title="CRTP&#45;based template interface for SPI communication.">
<polygon fill="white" stroke="#666666" points="400.5,-129 242.5,-129 242.5,-110 400.5,-110 400.5,-129"/>
<text text-anchor="middle" x="321.5" y="-117" font-family="Helvetica,sans-Serif" font-size="10.00">max22200_spi_interface.hpp</text>
</a>
</g>
</g>
<!-- Node1&#45;&gt;Node6 -->
<g id="edge7_Node000001_Node000006" class="edge">
<title>Node1&#45;&gt;Node6</title>
<g id="a_edge7_Node000001_Node000006"><a xlink:title=" ">
<path fill="none" stroke="#63b8ff" d="M321.5,-164.75C321.5,-157.8 321.5,-147.85 321.5,-139.13"/>
<polygon fill="#63b8ff" stroke="#63b8ff" points="325,-139.09 321.5,-129.09 318,-139.09 325,-139.09"/>
</a>
</g>
</g>
<!-- Node8 -->
<g id="Node000008" class="node">
<title>Node8</title>
<g id="a_Node000008"><a xlink:title=" ">
<polygon fill="#e0e0e0" stroke="#999999" points="522,-129 457,-129 457,-110 522,-110 522,-129"/>
<text text-anchor="middle" x="489.5" y="-117" font-family="Helvetica,sans-Serif" font-size="10.00">functional</text>
</a>
</g>
</g>
<!-- Node1&#45;&gt;Node8 -->
<g id="edge12_Node000001_Node000008" class="edge">
<title>Node1&#45;&gt;Node8</title>
<g id="a_edge12_Node000001_Node000008"><a xlink:title=" ">
<path fill="none" stroke="#63b8ff" d="M348.49,-164.98C376.7,-156.09 421.14,-142.07 452.58,-132.15"/>
<polygon fill="#63b8ff" stroke="#63b8ff" points="453.81,-135.43 462.3,-129.08 451.71,-128.75 453.81,-135.43"/>
</a>
</g>
</g>
<!-- Node9 -->
<g id="Node000009" class="node">
<title>Node9</title>
<g id="a_Node000009"><a xlink:title=" ">
<polygon fill="#e0e0e0" stroke="#999999" points="655,-129 540,-129 540,-110 655,-110 655,-129"/>
<text text-anchor="middle" x="597.5" y="-117" font-family="Helvetica,sans-Serif" font-size="10.00">../src/max22200.cpp</text>
</a>
</g>
</g>
<!-- Node1&#45;&gt;Node9 -->
<g id="edge13_Node000001_Node000009" class="edge">
<title>Node1&#45;&gt;Node9</title>
<g id="a_edge13_Node000001_Node000009"><a xlink:title=" ">
<path fill="none" stroke="#63b8ff" d="M365.84,-164.98C413.99,-155.74 490.92,-140.97 542.79,-131.01"/>
<polygon fill="#63b8ff" stroke="#63b8ff" points="543.65,-134.41 552.81,-129.08 542.33,-127.53 543.65,-134.41"/>
</a>
</g>
</g>
<!-- Node2&#45;&gt;Node3 -->
<g id="edge2_Node000002_Node000003" class="edge">
<title>Node2&#45;&gt;Node3</title>
<g id="a_edge2_Node000002_Node000003"><a xlink:title=" ">
<path fill="none" stroke="#63b8ff" d="M92.12,-54.98C116.4,-46.23 154.45,-32.51 181.87,-22.62"/>
<polygon fill="#63b8ff" stroke="#63b8ff" points="183.23,-25.85 191.45,-19.17 180.86,-19.27 183.23,-25.85"/>
</a>
</g>
</g>
<!-- Node4&#45;&gt;Node2 -->
<g id="edge4_Node000004_Node000002" class="edge">
<title>Node4&#45;&gt;Node2</title>
<g id="a_edge4_Node000004_Node000002"><a xlink:title=" ">
<path fill="none" stroke="#63b8ff" d="M116.34,-109.98C108,-102.23 95.47,-90.58 85.32,-81.14"/>
<polygon fill="#63b8ff" stroke="#63b8ff" points="87.53,-78.42 77.82,-74.17 82.76,-83.54 87.53,-78.42"/>
</a>
</g>
</g>
<!-- Node4&#45;&gt;Node3 -->
<g id="edge6_Node000004_Node000003" class="edge">
<title>Node4&#45;&gt;Node3</title>
<g id="a_edge6_Node000004_Node000003"><a xlink:title=" ">
<path fill="none" stroke="#63b8ff" d="M132.87,-109.66C147.9,-91.61 182.35,-50.28 201.69,-27.08"/>
<polygon fill="#63b8ff" stroke="#63b8ff" points="204.57,-29.08 208.28,-19.16 199.19,-24.6 204.57,-29.08"/>
</a>
</g>
</g>
<!-- Node4&#45;&gt;Node5 -->
<g id="edge5_Node000004_Node000005" class="edge">
<title>Node4&#45;&gt;Node5</title>
<g id="a_edge5_Node000004_Node000005"><a xlink:title=" ">
<path fill="none" stroke="#63b8ff" d="M139.8,-109.98C153.6,-101.77 174.74,-89.18 191.01,-79.49"/>
<polygon fill="#63b8ff" stroke="#63b8ff" points="193.14,-82.29 199.94,-74.17 189.56,-76.28 193.14,-82.29"/>
</a>
</g>
</g>
<!-- Node6&#45;&gt;Node3 -->
<g id="edge9_Node000006_Node000003" class="edge">
<title>Node6&#45;&gt;Node3</title>
<g id="a_edge9_Node000006_Node000003"><a xlink:title=" ">
<path fill="none" stroke="#63b8ff" d="M312.83,-109.66C294.96,-91.46 253.82,-49.55 231.17,-26.47"/>
<polygon fill="#63b8ff" stroke="#63b8ff" points="233.5,-23.84 224,-19.16 228.5,-28.75 233.5,-23.84"/>
</a>
</g>
</g>
<!-- Node7 -->
<g id="Node000007" class="node">
<title>Node7</title>
<g id="a_Node000007"><a xlink:title=" ">
<polygon fill="#e0e0e0" stroke="#999999" points="348,-74 295,-74 295,-55 348,-55 348,-74"/>
<text text-anchor="middle" x="321.5" y="-62" font-family="Helvetica,sans-Serif" font-size="10.00">cstddef</text>
</a>
</g>
</g>
<!-- Node6&#45;&gt;Node7 -->
<g id="edge8_Node000006_Node000007" class="edge">
<title>Node6&#45;&gt;Node7</title>
<g id="a_edge8_Node000006_Node000007"><a xlink:title=" ">
<path fill="none" stroke="#63b8ff" d="M321.5,-109.75C321.5,-102.8 321.5,-92.85 321.5,-84.13"/>
<polygon fill="#63b8ff" stroke="#63b8ff" points="325,-84.09 321.5,-74.09 318,-84.09 325,-84.09"/>
</a>
</g>
</g>
</g>
</svg>
