<?xml version="1.0" encoding="UTF-8" standalone="no"?>
<!DOCTYPE svg PUBLIC "-//W3C//DTD SVG 1.1//EN"
 "http://www.w3.org/Graphics/SVG/1.1/DTD/svg11.dtd">
<!-- Generated by graphviz version 2.43.0 (0)
 -->
<!-- Title: inc/max22200_registers.hpp Pages: 1 -->
<svg width="799pt" height="214pt"
 viewBox="0.00 0.00 799.00 214.00" xmlns="http://www.w3.org/2000/svg" xmlns:xlink="http://www.w3.org/1999/xlink">
<g id="graph0" class="graph" transform="scale(1 1) rotate(0) translate(4 210)">
<title>inc/max22200_registers.hpp</title>
<!-- Node1 -->
<g id="Node000001" class="node">
<title>Node1</title>
<g id="a_Node000001"><a xlink:title="Register definitions and constants for MAX22200 IC.">
<polygon fill="#999999" stroke="#666666" points="459.5,-206 304.5,-206 304.5,-187 459.5,-187 459.5,-206"/>
<text text-anchor="middle" x="382" y="-194" font-family="Helvetica,sans-Serif" font-size="10.00">inc/max22200_registers.hpp</text>
</a>
</g>
</g>
<!-- Node2 -->
<g id="Node000002" class="node">
<title>Node2</title>
<g id="a_Node000002"><a xlink:href="c21__cycle__test_8cpp.html" target="_top" xlink:title="Real&#45;hardware Parker C21 24 V solenoid cycle test on MAX22200 CH0.">
<polygon fill="white" stroke="#666666" points="455.5,-35.5 330.5,-35.5 330.5,-5.5 455.5,-5.5 455.5,-35.5"/>
<text text-anchor="start" x="338.5" y="-23.5" font-family="Helvetica,sans-Serif" font-size="10.00">examples/esp32/main</text>
<text text-anchor="middle" x="393" y="-12.5" font-family="Helvetica,sans-Serif" font-size="10.00">/c21_cycle_test.cpp</text>
</a>
</g>
</g>
<!-- Node1&#45;&gt;Node2 -->
<g id="edge1_Node000001_Node000002" class="edge">
<title>Node1&#45;&gt;Node2</title>
<g id="a_edge1_Node000001_Node000002"><a xlink:title=" ">
<path fill="none" stroke="#63b8ff" d="M421.54,-183.05C436.65,-176.14 452.32,-165.86 461,-151 484.96,-110 437.63,-59.8 410.38,-35.72"/>
<polygon fill="#63b8ff" stroke="#63b8ff" points="420.15,-179.83 412.27,-186.92 422.85,-186.29 420.15,-179.83"/>
</a>
</g>
</g>
<!-- Node3 -->
<g id="Node000003" class="node">
<title>Node3</title>
<g id="a_Node000003"><a xlink:href="c21__dpm__tuning__test_8cpp.html" target="_top" xlink:title="DPM (Detection of Plunger Movement) tuning + CSV&#45;logging cycle test.">
<polygon fill="white" stroke="#666666" points="312,-35.5 168,-35.5 168,-5.5 312,-5.5 312,-35.5"/>
<text text-anchor="start" x="176" y="-23.5" font-family="Helvetica,sans-Serif" font-size="10.00">examples/esp32/main</text>
<text text-anchor="middle" x="240" y="-12.5" font-family="Helvetica,sans-Serif" font-size="10.00">/c21_dpm_tuning_test.cpp</text>
</a>
</g>
</g>
<!-- Node1&#45;&gt;Node3 -->
<g id="edge2_Node000001_Node000003" class="edge">
<title>Node1&#45;&gt;Node3</title>
<g id="a_edge2_Node000001_Node000003"><a xlink:title=" ">
<path fill="none" stroke="#63b8ff" d="M348.07,-182.92C314,-168.12 263.92,-139.85 245,-96 236.53,-76.36 236.9,-51.09 238.23,-35.6"/>
<polygon fill="#63b8ff" stroke="#63b8ff" points="347.07,-186.29 357.65,-186.91 349.77,-179.83 347.07,-186.29"/>
</a>
</g>
</g>
<!-- Node4 -->
<g id="Node000004" class="node">
<title>Node4</title>
<g id="a_Node000004"><a xlink:href="max22200__comprehensive__test_8cpp.html" target="_top" xlink:title="Comprehensive test suite for MAX22200 driver on ESP32.">
<polygon fill="white" stroke="#666666" points="791,-41 639,-41 639,0 791,0 791,-41"/>
<text text-anchor="start" x="647" y="-29" font-family="Helvetica,sans-Serif" font-size="10.00">examples/esp32/main</text>
<text text-anchor="start" x="647" y="-18" font-family="Helvetica,sans-Serif" font-size="10.00">/max22200_comprehensive</text>
<text text-anchor="middle" x="715" y="-7" font-family="Helvetica,sans-Serif" font-size="10.00">_test.cpp</text>
</a>
</g>
</g>
<!-- Node1&#45;&gt;Node4 -->
<g id="edge3_Node000001_Node000004" class="edge">
<title>Node1&#45;&gt;Node4</title>
<g id="a_edge3_Node000001_Node000004"><a xlink:title=" ">
<path fill="none" stroke="#63b8ff" d="M418.47,-183.67C442.16,-175.52 473.45,-163.87 500,-151 569.6,-117.26 646.04,-68.05 686.38,-41.05"/>
<polygon fill="#63b8ff" stroke="#63b8ff" points="417.17,-180.42 408.82,-186.94 419.42,-187.04 417.17,-180.42"/>
</a>
</g>
</g>
<!-- Node5 -->
<g id="Node000005" class="node">
<title>Node5</title>
<g id="a_Node000005"><a xlink:href="max22200__diagnostic_8cpp.html" target="_top" xlink:title="End&#45;to&#45;end MAX22200 health&#45;check on real hardware.">
<polygon fill="white" stroke="#666666" points="620.5,-35.5 473.5,-35.5 473.5,-5.5 620.5,-5.5 620.5,-35.5"/>
<text text-anchor="start" x="481.5" y="-23.5" font-family="Helvetica,sans-Serif" font-size="10.00">examples/esp32/main</text>
<text text-anchor="middle" x="547" y="-12.5" font-family="Helvetica,sans-Serif" font-size="10.00">/max22200_diagnostic.cpp</text>
</a>
</g>
</g>
<!-- Node1&#45;&gt;Node5 -->
<g id="edge4_Node000001_Node000005" class="edge">
<title>Node1&#45;&gt;Node5</title>
<g id="a_edge4_Node000001_Node000005"><a xlink:title=" ">
<path fill="none" stroke="#63b8ff" d="M422.12,-183.55C440.8,-176.43 462.32,-165.84 478,-151 513.35,-117.56 534.36,-61.93 542.75,-35.84"/>
<polygon fill="#63b8ff" stroke="#63b8ff" points="420.87,-180.28 412.65,-186.96 423.24,-186.86 420.87,-180.28"/>
</a>
</g>
</g>
<!-- Node6 -->
<g id="Node000006" class="node">
<title>Node6</title>
<g id="a_Node000006"><a xlink:href="max22200__solenoid__valve__test_8cpp.html" target="_top" xlink:title="Dedicated solenoid/valve test for MAX22200 driver on ESP32.">
<polygon fill="white" stroke="#666666" points="150,-41 0,-41 0,0 150,0 150,-41"/>
<text text-anchor="start" x="8" y="-29" font-family="Helvetica,sans-Serif" font-size="10.00">examples/esp32/main</text>
<text text-anchor="start" x="8" y="-18" font-family="Helvetica,sans-Serif" font-size="10.00">/max22200_solenoid_valve</text>
<text text-anchor="middle" x="75" y="-7" font-family="Helvetica,sans-Serif" font-size="10.00">_test.cpp</text>
</a>
</g>
</g>
<!-- Node1&#45;&gt;Node6 -->
<g id="edge5_Node000001_Node000006" class="edge">
<title>Node1&#45;&gt;Node6</title>
<g id="a_edge5_Node000001_Node000006"><a xlink:title=" ">
<path fill="none" stroke="#63b8ff" d="M345.01,-183.75C321.75,-175.77 291.43,-164.27 266,-151 202.78,-118 135.14,-68.28 99.78,-41.05"/>
<polygon fill="#63b8ff" stroke="#63b8ff" points="343.92,-187.07 354.51,-186.95 346.15,-180.44 343.92,-187.07"/>
</a>
</g>
</g>
<!-- Node7 -->
<g id="Node000007" class="node">
<title>Node7</title>
<g id="a_Node000007"><a xlink:href="max22200_8hpp.html" target="_top" xlink:title="Main driver class for MAX22200 octal solenoid and motor driver.">
<polygon fill="white" stroke="#666666" points="375.5,-96 268.5,-96 268.5,-77 375.5,-77 375.5,-96"/>
<text text-anchor="middle" x="322" y="-84" font-family="Helvetica,sans-Serif" font-size="10.00">inc/max22200.hpp</text>
</a>
</g>
</g>
<!-- Node1&#45;&gt;Node7 -->
<g id="edge6_Node000001_Node000007" class="edge">
<title>Node1&#45;&gt;Node7</title>
<g id="a_edge6_Node000001_Node000007"><a xlink:title=" ">
<path fill="none" stroke="#63b8ff" d="M342.86,-182.89C327.97,-175.96 312.54,-165.71 304,-151 293.64,-133.16 306.75,-109.02 315.44,-96.25"/>
<polygon fill="#63b8ff" stroke="#63b8ff" points="341.92,-186.29 352.5,-186.97 344.66,-179.85 341.92,-186.29"/>
</a>
</g>
</g>
<!-- Node8 -->
<g id="Node000008" class="node">
<title>Node8</title>
<g id="a_Node000008"><a xlink:href="max22200__types_8hpp.html" target="_top" xlink:title="Type definitions and structures for MAX22200 driver.">
<polygon fill="white" stroke="#666666" points="451.5,-151 312.5,-151 312.5,-132 451.5,-132 451.5,-151"/>
<text text-anchor="middle" x="382" y="-139" font-family="Helvetica,sans-Serif" font-size="10.00">inc/max22200_types.hpp</text>
</a>
</g>
</g>
<!-- Node1&#45;&gt;Node8 -->
<g id="edge12_Node000001_Node000008" class="edge">
<title>Node1&#45;&gt;Node8</title>
<g id="a_edge12_Node000001_Node000008"><a xlink:title=" ">
<path fill="none" stroke="#63b8ff" d="M382,-176.66C382,-167.93 382,-157.99 382,-151.09"/>
<polygon fill="#63b8ff" stroke="#63b8ff" points="378.5,-176.75 382,-186.75 385.5,-176.75 378.5,-176.75"/>
</a>
</g>
</g>
<!-- Node7&#45;&gt;Node2 -->
<g id="edge7_Node000007_Node000002" class="edge">
<title>Node7&#45;&gt;Node2</title>
<g id="a_edge7_Node000007_Node000002"><a xlink:title=" ">
<path fill="none" stroke="#63b8ff" d="M339.29,-69.91C350.91,-59.44 366.08,-45.76 377.34,-35.62"/>
<polygon fill="#63b8ff" stroke="#63b8ff" points="336.66,-67.57 331.58,-76.87 341.35,-72.77 336.66,-67.57"/>
</a>
</g>
</g>
<!-- Node7&#45;&gt;Node3 -->
<g id="edge8_Node000007_Node000003" class="edge">
<title>Node7&#45;&gt;Node3</title>
<g id="a_edge8_Node000007_Node000003"><a xlink:title=" ">
<path fill="none" stroke="#63b8ff" d="M302.8,-70.52C289.3,-59.98 271.34,-45.96 258.09,-35.62"/>
<polygon fill="#63b8ff" stroke="#63b8ff" points="300.9,-73.48 310.94,-76.87 305.21,-67.96 300.9,-73.48"/>
</a>
</g>
</g>
<!-- Node7&#45;&gt;Node4 -->
<g id="edge9_Node000007_Node000004" class="edge">
<title>Node7&#45;&gt;Node4</title>
<g id="a_edge9_Node000007_Node000004"><a xlink:title=" ">
<path fill="none" stroke="#63b8ff" d="M385.73,-77.84C448.19,-69.97 545.98,-56.68 630,-41 632.83,-40.47 635.7,-39.92 638.61,-39.34"/>
<polygon fill="#63b8ff" stroke="#63b8ff" points="385.12,-74.39 375.64,-79.11 385.99,-81.34 385.12,-74.39"/>
</a>
</g>
</g>
<!-- Node7&#45;&gt;Node5 -->
<g id="edge10_Node000007_Node000005" class="edge">
<title>Node7&#45;&gt;Node5</title>
<g id="a_edge10_Node000007_Node000005"><a xlink:title=" ">
<path fill="none" stroke="#63b8ff" d="M362,-74.12C399.82,-63.36 456.68,-47.19 497.37,-35.62"/>
<polygon fill="#63b8ff" stroke="#63b8ff" points="361.01,-70.77 352.34,-76.87 362.92,-77.5 361.01,-70.77"/>
</a>
</g>
</g>
<!-- Node7&#45;&gt;Node6 -->
<g id="edge11_Node000007_Node000006" class="edge">
<title>Node7&#45;&gt;Node6</title>
<g id="a_edge11_Node000007_Node000006"><a xlink:title=" ">
<path fill="none" stroke="#63b8ff" d="M278.93,-74.34C243.47,-65.15 192.37,-51.91 150.19,-40.98"/>
<polygon fill="#63b8ff" stroke="#63b8ff" points="278.39,-77.81 288.94,-76.94 280.14,-71.04 278.39,-77.81"/>
</a>
</g>
</g>
<!-- Node8&#45;&gt;Node2 -->
<g id="edge13_Node000008_Node000002" class="edge">
<title>Node8&#45;&gt;Node2</title>
<g id="a_edge13_Node000008_Node000002"><a xlink:title=" ">
<path fill="none" stroke="#63b8ff" d="M383.73,-121.73C385.94,-97.85 389.7,-57.15 391.69,-35.7"/>
<polygon fill="#63b8ff" stroke="#63b8ff" points="380.23,-121.66 382.79,-131.94 387.2,-122.31 380.23,-121.66"/>
</a>
</g>
</g>
<!-- Node8&#45;&gt;Node3 -->
<g id="edge14_Node000008_Node000003" class="edge">
<title>Node8&#45;&gt;Node3</title>
<g id="a_edge14_Node000008_Node000003"><a xlink:title=" ">
<path fill="none" stroke="#63b8ff" d="M316.72,-129.1C296.11,-122.54 274.86,-112.22 260,-96 244.71,-79.31 240.89,-52.19 240.06,-35.68"/>
<polygon fill="#63b8ff" stroke="#63b8ff" points="315.86,-132.49 326.44,-131.94 317.82,-125.77 315.86,-132.49"/>
</a>
</g>
</g>
<!-- Node8&#45;&gt;Node4 -->
<g id="edge15_Node000008_Node000004" class="edge">
<title>Node8&#45;&gt;Node4</title>
<g id="a_edge15_Node000008_Node000004"><a xlink:title=" ">
<path fill="none" stroke="#63b8ff" d="M415.63,-128.48C473.12,-107.94 590.8,-65.88 660.27,-41.06"/>
<polygon fill="#63b8ff" stroke="#63b8ff" points="414.19,-125.28 405.95,-131.94 416.54,-131.87 414.19,-125.28"/>
</a>
</g>
</g>
<!-- Node8&#45;&gt;Node5 -->
<g id="edge16_Node000008_Node000005" class="edge">
<title>Node8&#45;&gt;Node5</title>
<g id="a_edge16_Node000008_Node000005"><a xlink:title=" ">
<path fill="none" stroke="#63b8ff" d="M402.02,-126.06C433.96,-103.02 496.04,-58.26 527.58,-35.5"/>
<polygon fill="#63b8ff" stroke="#63b8ff" points="399.93,-123.25 393.87,-131.94 404.02,-128.93 399.93,-123.25"/>
</a>
</g>
</g>
<!-- Node8&#45;&gt;Node6 -->
<g id="edge17_Node000008_Node000006" class="edge">
<title>Node8&#45;&gt;Node6</title>
<g id="a_edge17_Node000008_Node000006"><a xlink:title=" ">
<path fill="none" stroke="#63b8ff" d="M343.16,-129.01C315.53,-120.56 277.68,-108.43 245,-96 200.43,-79.04 150.57,-56.79 116.44,-41.04"/>
<polygon fill="#63b8ff" stroke="#63b8ff" points="342.26,-132.39 352.84,-131.95 344.29,-125.69 342.26,-132.39"/>
</a>
</g>
</g>
<!-- Node8&#45;&gt;Node7 -->
<g id="edge18_Node000008_Node000007" class="edge">
<title>Node8&#45;&gt;Node7</title>
<g id="a_edge18_Node000008_Node000007"><a xlink:title=" ">
<path fill="none" stroke="#63b8ff" d="M364.82,-125.32C354.12,-115.87 340.74,-104.06 331.82,-96.17"/>
<polygon fill="#63b8ff" stroke="#63b8ff" points="362.55,-127.99 372.36,-131.98 367.18,-122.74 362.55,-127.99"/>
</a>
</g>
</g>
</g>
</svg>
