<?xml version="1.0" encoding="UTF-8" standalone="no"?>
<!DOCTYPE svg PUBLIC "-//W3C//DTD SVG 1.1//EN"
 "http://www.w3.org/Graphics/SVG/1.1/DTD/svg11.dtd">
<!-- Generated by graphviz version 2.43.0 (0)
 -->
<!-- Title: inc/max22200.hpp Pages: 1 -->
<svg width="549pt" height="192pt"
 viewBox="0.00 0.00 548.79 192.00" xmlns="http://www.w3.org/2000/svg" xmlns:xlink="http://www.w3.org/1999/xlink">
<g id="graph0" class="graph" transform="scale(1 1) rotate(0) translate(4 188)">
<title>inc/max22200.hpp</title>
<!-- Node1 -->
<g id="Node000001" class="node">
<title>Node1</title>
<g id="a_Node000001"><a xlink:title="Main driver class for MAX22200 octal solenoid and motor driver.">
<polygon fill="#999999" stroke="#666666" points="224.29,-184 117.29,-184 117.29,-165 224.29,-165 224.29,-184"/>
<text text-anchor="middle" x="170.79" y="-172" font-family="Helvetica,sans-Serif" font-size="10.00">inc/max22200.hpp</text>
</a>
</g>
</g>
<!-- Node2 -->
<g id="Node000002" class="node">
<title>Node2</title>
<g id="a_Node000002"><a xlink:href="max22200__registers_8hpp.html" target="_top" xlink:title="Register definitions and constants for MAX22200 IC.">
<polygon fill="white" stroke="#666666" points="150.29,-74 13.29,-74 13.29,-55 150.29,-55 150.29,-74"/>
<text text-anchor="middle" x="81.79" y="-62" font-family="Helvetica,sans-Serif" font-size="10.00">max22200_registers.hpp</text>
</a>
</g>
</g>
<!-- Node1&#45;&gt;Node2 -->
<g id="edge1_Node000001_Node000002" class="edge">
<title>Node1&#45;&gt;Node2</title>
<g id="a_edge1_Node000001_Node000002"><a xlink:title=" ">
<path fill="none" stroke="#63b8ff" d="M149.5,-164.9C133.88,-157.55 113.3,-145.54 100.79,-129 90.92,-115.95 86.15,-97.81 83.86,-84.26"/>
<polygon fill="#63b8ff" stroke="#63b8ff" points="87.3,-83.59 82.47,-74.16 80.37,-84.55 87.3,-83.59"/>
</a>
</g>
</g>
<!-- Node3 -->
<g id="Node000003" class="node">
<title>Node3</title>
<g id="a_Node000003"><a xlink:title=" ">
<polygon fill="#e0e0e0" stroke="#999999" points="154.79,-19 104.79,-19 104.79,0 154.79,0 154.79,-19"/>
<text text-anchor="middle" x="129.79" y="-7" font-family="Helvetica,sans-Serif" font-size="10.00">cstdint</text>
</a>
</g>
</g>
<!-- Node1&#45;&gt;Node3 -->
<g id="edge10_Node000001_Node000003" class="edge">
<title>Node1&#45;&gt;Node3</title>
<g id="a_edge10_Node000001_Node000003"><a xlink:title=" ">
<path fill="none" stroke="#63b8ff" d="M137.52,-164.91C97.2,-152.48 31.25,-125.14 3.79,-74 -16.6,-36.04 50.52,-20.27 94.51,-14.11"/>
<polygon fill="#63b8ff" stroke="#63b8ff" points="95.12,-17.56 104.59,-12.81 94.23,-10.62 95.12,-17.56"/>
</a>
</g>
</g>
<!-- Node4 -->
<g id="Node000004" class="node">
<title>Node4</title>
<g id="a_Node000004"><a xlink:href="max22200__types_8hpp.html" target="_top" xlink:title="Type definitions and structures for MAX22200 driver.">
<polygon fill="white" stroke="#666666" points="231.79,-129 109.79,-129 109.79,-110 231.79,-110 231.79,-129"/>
<text text-anchor="middle" x="170.79" y="-117" font-family="Helvetica,sans-Serif" font-size="10.00">max22200_types.hpp</text>
</a>
</g>
</g>
<!-- Node1&#45;&gt;Node4 -->
<g id="edge3_Node000001_Node000004" class="edge">
<title>Node1&#45;&gt;Node4</title>
<g id="a_edge3_Node000001_Node000004"><a xlink:title=" ">
<path fill="none" stroke="#63b8ff" d="M170.79,-164.75C170.79,-157.8 170.79,-147.85 170.79,-139.13"/>
<polygon fill="#63b8ff" stroke="#63b8ff" points="174.29,-139.09 170.79,-129.09 167.29,-139.09 174.29,-139.09"/>
</a>
</g>
</g>
<!-- Node6 -->
<g id="Node000006" class="node">
<title>Node6</title>
<g id="a_Node000006"><a xlink:href="max22200__spi__interface_8hpp.html" target="_top" xlink:title="CRTP&#45;based template interface for SPI communication.">
<polygon fill="white" stroke="#666666" points="407.79,-129 249.79,-129 249.79,-110 407.79,-110 407.79,-129"/>
<text text-anchor="middle" x="328.79" y="-117" font-family="Helvetica,sans-Serif" font-size="10.00">max22200_spi_interface.hpp</text>
</a>
</g>
</g>
<!-- Node1&#45;&gt;Node6 -->
<g id="edge7_Node000001_Node000006" class="edge">
<title>Node1&#45;&gt;Node6</title>
<g id="a_edge7_Node000001_Node000006"><a xlink:title=" ">
<path fill="none" stroke="#63b8ff" d="M196.17,-164.98C222.59,-156.13 264.14,-142.19 293.68,-132.28"/>
<polygon fill="#63b8ff" stroke="#63b8ff" points="294.84,-135.58 303.2,-129.08 292.61,-128.94 294.84,-135.58"/>
</a>
</g>
</g>
<!-- Node8 -->
<g id="Node000008" class="node">
<title>Node8</title>
<g id="a_Node000008"><a xlink:href="max22200_8ipp.html" target="_top" xlink:title="Template implementation for MAX22200 driver.">
<polygon fill="white" stroke="#666666" points="539.29,-129 426.29,-129 426.29,-110 539.29,-110 539.29,-129"/>
<text text-anchor="middle" x="482.79" y="-117" font-family="Helvetica,sans-Serif" font-size="10.00">../src/max22200.ipp</text>
</a>
</g>
</g>
<!-- Node1&#45;&gt;Node8 -->
<g id="edge11_Node000001_Node000008" class="edge">
<title>Node1&#45;&gt;Node8</title>
<g id="a_edge11_Node000001_Node000008"><a xlink:title=" ">
<path fill="none" stroke="#63b8ff" d="M220.92,-164.98C275.87,-155.65 364.02,-140.67 422.66,-130.71"/>
<polygon fill="#63b8ff" stroke="#63b8ff" points="423.25,-134.16 432.53,-129.04 422.08,-127.26 423.25,-134.16"/>
</a>
</g>
</g>
<!-- Node2&#45;&gt;Node3 -->
<g id="edge2_Node000002_Node000003" class="edge">
<title>Node2&#45;&gt;Node3</title>
<g id="a_edge2_Node000002_Node000003"><a xlink:title=" ">
<path fill="none" stroke="#63b8ff" d="M89.71,-54.75C96.63,-47.11 106.85,-35.82 115.24,-26.56"/>
<polygon fill="#63b8ff" stroke="#63b8ff" points="117.89,-28.85 122.01,-19.09 112.7,-24.15 117.89,-28.85"/>
</a>
</g>
</g>
<!-- Node4&#45;&gt;Node2 -->
<g id="edge4_Node000004_Node000002" class="edge">
<title>Node4&#45;&gt;Node2</title>
<g id="a_edge4_Node000004_Node000002"><a xlink:title=" ">
<path fill="none" stroke="#63b8ff" d="M156.49,-109.98C142.69,-101.77 121.55,-89.18 105.27,-79.49"/>
<polygon fill="#63b8ff" stroke="#63b8ff" points="106.73,-76.28 96.35,-74.17 103.15,-82.29 106.73,-76.28"/>
</a>
</g>
</g>
<!-- Node4&#45;&gt;Node3 -->
<g id="edge6_Node000004_Node000003" class="edge">
<title>Node4&#45;&gt;Node3</title>
<g id="a_edge6_Node000004_Node000003"><a xlink:title=" ">
<path fill="none" stroke="#63b8ff" d="M170.23,-109.99C169.19,-97.52 166.32,-73.74 158.79,-55 154.84,-45.18 148.6,-35.22 142.92,-27.22"/>
<polygon fill="#63b8ff" stroke="#63b8ff" points="145.68,-25.06 136.9,-19.13 140.06,-29.24 145.68,-25.06"/>
</a>
</g>
</g>
<!-- Node5 -->
<g id="Node000005" class="node">
<title>Node5</title>
<g id="a_Node000005"><a xlink:title=" ">
<polygon fill="#e0e0e0" stroke="#999999" points="248.79,-74 206.79,-74 206.79,-55 248.79,-55 248.79,-74"/>
<text text-anchor="middle" x="227.79" y="-62" font-family="Helvetica,sans-Serif" font-size="10.00">array</text>
</a>
</g>
</g>
<!-- Node4&#45;&gt;Node5 -->
<g id="edge5_Node000004_Node000005" class="edge">
<title>Node4&#45;&gt;Node5</title>
<g id="a_edge5_Node000004_Node000005"><a xlink:title=" ">
<path fill="none" stroke="#63b8ff" d="M179.95,-109.98C188.29,-102.23 200.82,-90.58 210.97,-81.14"/>
<polygon fill="#63b8ff" stroke="#63b8ff" points="213.52,-83.54 218.46,-74.17 208.76,-78.42 213.52,-83.54"/>
</a>
</g>
</g>
<!-- Node6&#45;&gt;Node3 -->
<g id="edge9_Node000006_Node000003" class="edge">
<title>Node6&#45;&gt;Node3</title>
<g id="a_edge9_Node000006_Node000003"><a xlink:title=" ">
<path fill="none" stroke="#63b8ff" d="M321.32,-109.92C309.22,-96.49 284.01,-70.44 257.79,-55 228.61,-37.82 191.8,-25.9 165.14,-18.74"/>
<polygon fill="#63b8ff" stroke="#63b8ff" points="165.67,-15.26 155.11,-16.15 163.91,-22.04 165.67,-15.26"/>
</a>
</g>
</g>
<!-- Node7 -->
<g id="Node000007" class="node">
<title>Node7</title>
<g id="a_Node000007"><a xlink:title=" ">
<polygon fill="#e0e0e0" stroke="#999999" points="358.29,-74 305.29,-74 305.29,-55 358.29,-55 358.29,-74"/>
<text text-anchor="middle" x="331.79" y="-62" font-family="Helvetica,sans-Serif" font-size="10.00">cstddef</text>
</a>
</g>
</g>
<!-- Node6&#45;&gt;Node7 -->
<g id="edge8_Node000006_Node000007" class="edge">
<title>Node6&#45;&gt;Node7</title>
<g id="a_edge8_Node000006_Node000007"><a xlink:title=" ">
<path fill="none" stroke="#63b8ff" d="M329.28,-109.75C329.68,-102.8 330.24,-92.85 330.73,-84.13"/>
<polygon fill="#63b8ff" stroke="#63b8ff" points="334.23,-84.27 331.3,-74.09 327.24,-83.88 334.23,-84.27"/>
</a>
</g>
</g>
<!-- Node9 -->
<g id="Node000009" class="node">
<title>Node9</title>
<g id="a_Node000009"><a xlink:title=" ">
<polygon fill="#e0e0e0" stroke="#999999" points="472.29,-74 425.29,-74 425.29,-55 472.29,-55 472.29,-74"/>
<text text-anchor="middle" x="448.79" y="-62" font-family="Helvetica,sans-Serif" font-size="10.00">cmath</text>
</a>
</g>
</g>
<!-- Node8&#45;&gt;Node9 -->
<g id="edge12_Node000008_Node000009" class="edge">
<title>Node8&#45;&gt;Node9</title>
<g id="a_edge12_Node000008_Node000009"><a xlink:title=" ">
<path fill="none" stroke="#63b8ff" d="M477.17,-109.75C472.47,-102.42 465.61,-91.73 459.82,-82.7"/>
<polygon fill="#63b8ff" stroke="#63b8ff" points="462.64,-80.62 454.3,-74.09 456.75,-84.4 462.64,-80.62"/>
</a>
</g>
</g>
<!-- Node10 -->
<g id="Node000010" class="node">
<title>Node10</title>
<g id="a_Node000010"><a xlink:title=" ">
<polygon fill="#e0e0e0" stroke="#999999" points="540.79,-74 490.79,-74 490.79,-55 540.79,-55 540.79,-74"/>
<text text-anchor="middle" x="515.79" y="-62" font-family="Helvetica,sans-Serif" font-size="10.00">cstring</text>
</a>
</g>
</g>
<!-- Node8&#45;&gt;Node10 -->
<g id="edge13_Node000008_Node000010" class="edge">
<title>Node8&#45;&gt;Node10</title>
<g id="a_edge13_Node000008_Node000010"><a xlink:title=" ">
<path fill="none" stroke="#63b8ff" d="M488.24,-109.75C492.8,-102.42 499.46,-91.73 505.08,-82.7"/>
<polygon fill="#63b8ff" stroke="#63b8ff" points="508.13,-84.43 510.44,-74.09 502.18,-80.73 508.13,-84.43"/>
</a>
</g>
</g>
</g>
</svg>
