<?xml version="1.0" encoding="UTF-8" standalone="no"?>
<!DOCTYPE svg PUBLIC "-//W3C//DTD SVG 1.1//EN"
 "http://www.w3.org/Graphics/SVG/1.1/DTD/svg11.dtd">
<!-- Generated by graphviz version 2.43.0 (0)
 -->
<!-- Title: examples/esp32/main/esp32_max22200_bus.hpp Pages: 1 -->
<svg width="800pt" height="115pt"
 viewBox="0.00 0.00 799.50 115.00" xmlns="http://www.w3.org/2000/svg" xmlns:xlink="http://www.w3.org/1999/xlink">
<g id="graph0" class="graph" transform="scale(1 1) rotate(0) translate(4 111)">
<title>examples/esp32/main/esp32_max22200_bus.hpp</title>
<!-- Node1 -->
<g id="Node000001" class="node">
<title>Node1</title>
<g id="a_Node000001"><a xlink:title="ESP32 SPI transport implementation for MAX22200 driver (header&#45;only)">
<polygon fill="#999999" stroke="#666666" points="456,-107 307,-107 307,-77 456,-77 456,-107"/>
<text text-anchor="start" x="315" y="-95" font-family="Helvetica,sans-Serif" font-size="10.00">examples/esp32/main</text>
<text text-anchor="middle" x="381.5" y="-84" font-family="Helvetica,sans-Serif" font-size="10.00">/esp32_max22200_bus.hpp</text>
</a>
</g>
</g>
<!-- Node2 -->
<g id="Node000002" class="node">
<title>Node2</title>
<g id="a_Node000002"><a xlink:href="c21__cycle__test_8cpp.html" target="_top" xlink:title="Real&#45;hardware Parker C21 24 V solenoid cycle test on MAX22200 CH0.">
<polygon fill="white" stroke="#666666" points="125,-35.5 0,-35.5 0,-5.5 125,-5.5 125,-35.5"/>
<text text-anchor="start" x="8" y="-23.5" font-family="Helvetica,sans-Serif" font-size="10.00">examples/esp32/main</text>
<text text-anchor="middle" x="62.5" y="-12.5" font-family="Helvetica,sans-Serif" font-size="10.00">/c21_cycle_test.cpp</text>
</a>
</g>
</g>
<!-- Node1&#45;&gt;Node2 -->
<g id="edge1_Node000001_Node000002" class="edge">
<title>Node1&#45;&gt;Node2</title>
<g id="a_edge1_Node000001_Node000002"><a xlink:title=" ">
<path fill="none" stroke="#63b8ff" d="M296.91,-75.28C249.08,-66.04 188.26,-53.71 134.5,-41 127.44,-39.33 120.03,-37.46 112.75,-35.55"/>
<polygon fill="#63b8ff" stroke="#63b8ff" points="296.44,-78.76 306.92,-77.21 297.76,-71.88 296.44,-78.76"/>
</a>
</g>
</g>
<!-- Node3 -->
<g id="Node000003" class="node">
<title>Node3</title>
<g id="a_Node000003"><a xlink:href="c21__dpm__tuning__test_8cpp.html" target="_top" xlink:title="DPM (Detection of Plunger Movement) tuning + CSV&#45;logging cycle test.">
<polygon fill="white" stroke="#666666" points="287.5,-35.5 143.5,-35.5 143.5,-5.5 287.5,-5.5 287.5,-35.5"/>
<text text-anchor="start" x="151.5" y="-23.5" font-family="Helvetica,sans-Serif" font-size="10.00">examples/esp32/main</text>
<text text-anchor="middle" x="215.5" y="-12.5" font-family="Helvetica,sans-Serif" font-size="10.00">/c21_dpm_tuning_test.cpp</text>
</a>
</g>
</g>
<!-- Node1&#45;&gt;Node3 -->
<g id="edge2_Node000001_Node000003" class="edge">
<title>Node1&#45;&gt;Node3</title>
<g id="a_edge2_Node000001_Node000003"><a xlink:title=" ">
<path fill="none" stroke="#63b8ff" d="M338.41,-72.96C310.54,-61.29 274.79,-46.32 249.04,-35.54"/>
<polygon fill="#63b8ff" stroke="#63b8ff" points="337.33,-76.3 347.91,-76.94 340.03,-69.85 337.33,-76.3"/>
</a>
</g>
</g>
<!-- Node4 -->
<g id="Node000004" class="node">
<title>Node4</title>
<g id="a_Node000004"><a xlink:href="max22200__comprehensive__test_8cpp.html" target="_top" xlink:title="Comprehensive test suite for MAX22200 driver on ESP32.">
<polygon fill="white" stroke="#666666" points="457.5,-41 305.5,-41 305.5,0 457.5,0 457.5,-41"/>
<text text-anchor="start" x="313.5" y="-29" font-family="Helvetica,sans-Serif" font-size="10.00">examples/esp32/main</text>
<text text-anchor="start" x="313.5" y="-18" font-family="Helvetica,sans-Serif" font-size="10.00">/max22200_comprehensive</text>
<text text-anchor="middle" x="381.5" y="-7" font-family="Helvetica,sans-Serif" font-size="10.00">_test.cpp</text>
</a>
</g>
</g>
<!-- Node1&#45;&gt;Node4 -->
<g id="edge3_Node000001_Node000004" class="edge">
<title>Node1&#45;&gt;Node4</title>
<g id="a_edge3_Node000001_Node000004"><a xlink:title=" ">
<path fill="none" stroke="#63b8ff" d="M381.5,-66.91C381.5,-58.47 381.5,-49.1 381.5,-41.07"/>
<polygon fill="#63b8ff" stroke="#63b8ff" points="378,-66.94 381.5,-76.94 385,-66.94 378,-66.94"/>
</a>
</g>
</g>
<!-- Node5 -->
<g id="Node000005" class="node">
<title>Node5</title>
<g id="a_Node000005"><a xlink:href="max22200__diagnostic_8cpp.html" target="_top" xlink:title="End&#45;to&#45;end MAX22200 health&#45;check on real hardware.">
<polygon fill="white" stroke="#666666" points="623,-35.5 476,-35.5 476,-5.5 623,-5.5 623,-35.5"/>
<text text-anchor="start" x="484" y="-23.5" font-family="Helvetica,sans-Serif" font-size="10.00">examples/esp32/main</text>
<text text-anchor="middle" x="549.5" y="-12.5" font-family="Helvetica,sans-Serif" font-size="10.00">/max22200_diagnostic.cpp</text>
</a>
</g>
</g>
<!-- Node1&#45;&gt;Node5 -->
<g id="edge4_Node000001_Node000005" class="edge">
<title>Node1&#45;&gt;Node5</title>
<g id="a_edge4_Node000001_Node000005"><a xlink:title=" ">
<path fill="none" stroke="#63b8ff" d="M424.74,-73.11C453,-61.42 489.38,-46.37 515.55,-35.54"/>
<polygon fill="#63b8ff" stroke="#63b8ff" points="423.4,-69.88 415.5,-76.94 426.08,-76.35 423.4,-69.88"/>
</a>
</g>
</g>
<!-- Node6 -->
<g id="Node000006" class="node">
<title>Node6</title>
<g id="a_Node000006"><a xlink:href="max22200__solenoid__valve__test_8cpp.html" target="_top" xlink:title="Dedicated solenoid/valve test for MAX22200 driver on ESP32.">
<polygon fill="white" stroke="#666666" points="791.5,-41 641.5,-41 641.5,0 791.5,0 791.5,-41"/>
<text text-anchor="start" x="649.5" y="-29" font-family="Helvetica,sans-Serif" font-size="10.00">examples/esp32/main</text>
<text text-anchor="start" x="649.5" y="-18" font-family="Helvetica,sans-Serif" font-size="10.00">/max22200_solenoid_valve</text>
<text text-anchor="middle" x="716.5" y="-7" font-family="Helvetica,sans-Serif" font-size="10.00">_test.cpp</text>
</a>
</g>
</g>
<!-- Node1&#45;&gt;Node6 -->
<g id="edge5_Node000001_Node000006" class="edge">
<title>Node1&#45;&gt;Node6</title>
<g id="a_edge5_Node000001_Node000006"><a xlink:title=" ">
<path fill="none" stroke="#63b8ff" d="M465.11,-75.03C513.99,-65.52 576.83,-53 632.5,-41 635.43,-40.37 638.41,-39.72 641.42,-39.05"/>
<polygon fill="#63b8ff" stroke="#63b8ff" points="464.36,-71.61 455.21,-76.95 465.7,-78.48 464.36,-71.61"/>
</a>
</g>
</g>
</g>
</svg>
