<?xml version="1.0" encoding="UTF-8" standalone="no"?>
<!DOCTYPE svg PUBLIC "-//W3C//DTD SVG 1.1//EN"
 "http://www.w3.org/Graphics/SVG/1.1/DTD/svg11.dtd">
<!-- Generated by graphviz version 2.43.0 (0)
 -->
<!-- Title: inc/max22200.hpp Pages: 1 -->
<svg width="472pt" height="104pt"
 viewBox="0.00 0.00 471.50 104.00" xmlns="http://www.w3.org/2000/svg" xmlns:xlink="http://www.w3.org/1999/xlink">
<g id="graph0" class="graph" transform="scale(1 1) rotate(0) translate(4 100)">
<title>inc/max22200.hpp</title>
<!-- Node1 -->
<g id="Node000001" class="node">
<title>Node1</title>
<g id="a_Node000001"><a xlink:title="Main driver class for MAX22200 octal solenoid and motor driver.">
<polygon fill="#999999" stroke="#666666" points="273,-96 166,-96 166,-77 273,-77 273,-96"/>
<text text-anchor="middle" x="219.5" y="-84" font-family="Helvetica,sans-Serif" font-size="10.00">inc/max22200.hpp</text>
</a>
</g>
</g>
<!-- Node2 -->
<g id="Node000002" class="node">
<title>Node2</title>
<g id="a_Node000002"><a xlink:href="c21__cycle__test_8cpp.html" target="_top" xlink:title="Real&#45;hardware Parker C21 24 V solenoid cycle test on MAX22200 CH0.">
<polygon fill="white" stroke="#666666" points="125,-35.5 0,-35.5 0,-5.5 125,-5.5 125,-35.5"/>
<text text-anchor="start" x="8" y="-23.5" font-family="Helvetica,sans-Serif" font-size="10.00">examples/esp32/main</text>
<text text-anchor="middle" x="62.5" y="-12.5" font-family="Helvetica,sans-Serif" font-size="10.00">/c21_cycle_test.cpp</text>
</a>
</g>
</g>
<!-- Node1&#45;&gt;Node2 -->
<g id="edge1_Node000001_Node000002" class="edge">
<title>Node1&#45;&gt;Node2</title>
<g id="a_edge1_Node000001_Node000002"><a xlink:title=" ">
<path fill="none" stroke="#63b8ff" d="M188.85,-73C162.51,-62.27 124.56,-46.8 97.13,-35.62"/>
<polygon fill="#63b8ff" stroke="#63b8ff" points="187.74,-76.33 198.33,-76.87 190.39,-69.85 187.74,-76.33"/>
</a>
</g>
</g>
<!-- Node3 -->
<g id="Node000003" class="node">
<title>Node3</title>
<g id="a_Node000003"><a xlink:href="max22200__comprehensive__test_8cpp.html" target="_top" xlink:title="Comprehensive test suite for MAX22200 driver on ESP32.">
<polygon fill="white" stroke="#666666" points="295.5,-41 143.5,-41 143.5,0 295.5,0 295.5,-41"/>
<text text-anchor="start" x="151.5" y="-29" font-family="Helvetica,sans-Serif" font-size="10.00">examples/esp32/main</text>
<text text-anchor="start" x="151.5" y="-18" font-family="Helvetica,sans-Serif" font-size="10.00">/max22200_comprehensive</text>
<text text-anchor="middle" x="219.5" y="-7" font-family="Helvetica,sans-Serif" font-size="10.00">_test.cpp</text>
</a>
</g>
</g>
<!-- Node1&#45;&gt;Node3 -->
<g id="edge2_Node000001_Node000003" class="edge">
<title>Node1&#45;&gt;Node3</title>
<g id="a_edge2_Node000001_Node000003"><a xlink:title=" ">
<path fill="none" stroke="#63b8ff" d="M219.5,-66.63C219.5,-58.56 219.5,-49.15 219.5,-41.01"/>
<polygon fill="#63b8ff" stroke="#63b8ff" points="216,-66.87 219.5,-76.87 223,-66.87 216,-66.87"/>
</a>
</g>
</g>
<!-- Node4 -->
<g id="Node000004" class="node">
<title>Node4</title>
<g id="a_Node000004"><a xlink:href="max22200__solenoid__valve__test_8cpp.html" target="_top" xlink:title="Dedicated solenoid/valve test for MAX22200 driver on ESP32.">
<polygon fill="white" stroke="#666666" points="463.5,-41 313.5,-41 313.5,0 463.5,0 463.5,-41"/>
<text text-anchor="start" x="321.5" y="-29" font-family="Helvetica,sans-Serif" font-size="10.00">examples/esp32/main</text>
<text text-anchor="start" x="321.5" y="-18" font-family="Helvetica,sans-Serif" font-size="10.00">/max22200_solenoid_valve</text>
<text text-anchor="middle" x="388.5" y="-7" font-family="Helvetica,sans-Serif" font-size="10.00">_test.cpp</text>
</a>
</g>
</g>
<!-- Node1&#45;&gt;Node4 -->
<g id="edge3_Node000001_Node000004" class="edge">
<title>Node1&#45;&gt;Node4</title>
<g id="a_edge3_Node000001_Node000004"><a xlink:title=" ">
<path fill="none" stroke="#63b8ff" d="M251.67,-73.32C275.76,-64.19 309.19,-51.53 336.98,-41.01"/>
<polygon fill="#63b8ff" stroke="#63b8ff" points="250.4,-70.05 242.29,-76.87 252.88,-76.6 250.4,-70.05"/>
</a>
</g>
</g>
</g>
</svg>
