<?xml version="1.0" encoding="UTF-8" standalone="no"?>
<!DOCTYPE svg PUBLIC "-//W3C//DTD SVG 1.1//EN"
 "http://www.w3.org/Graphics/SVG/1.1/DTD/svg11.dtd">
<!-- Generated by graphviz version 2.43.0 (0)
 -->
<!-- Title: inc/max22200.hpp Pages: 1 -->
<svg width="686pt" height="192pt"
 viewBox="0.00 0.00 685.75 192.00" xmlns="http://www.w3.org/2000/svg" xmlns:xlink="http://www.w3.org/1999/xlink">
<g id="graph0" class="graph" transform="scale(1 1) rotate(0) translate(4 188)">
<title>inc/max22200.hpp</title>
<!-- Node1 -->
<g id="Node000001" class="node">
<title>Node1</title>
<g id="a_Node000001"><a xlink:title="Main driver class for MAX22200 octal solenoid and motor driver.">
<polygon fill="#999999" stroke="#666666" points="303.25,-184 196.25,-184 196.25,-165 303.25,-165 303.25,-184"/>
<text text-anchor="middle" x="249.75" y="-172" font-family="Helvetica,sans-Serif" font-size="10.00">inc/max22200.hpp</text>
</a>
</g>
</g>
<!-- Node2 -->
<g id="Node000002" class="node">
<title>Node2</title>
<g id="a_Node000002"><a xlink:href="max22200__registers_8hpp.html" target="_top" xlink:title="Register definitions and constants for MAX22200 IC.">
<polygon fill="white" stroke="#666666" points="150.25,-74 13.25,-74 13.25,-55 150.25,-55 150.25,-74"/>
<text text-anchor="middle" x="81.75" y="-62" font-family="Helvetica,sans-Serif" font-size="10.00">max22200_registers.hpp</text>
</a>
</g>
</g>
<!-- Node1&#45;&gt;Node2 -->
<g id="edge1_Node000001_Node000002" class="edge">
<title>Node1&#45;&gt;Node2</title>
<g id="a_edge1_Node000001_Node000002"><a xlink:title=" ">
<path fill="none" stroke="#63b8ff" d="M196.12,-169.97C164.48,-165.15 125.86,-154.1 100.75,-129 88.93,-117.19 84.4,-98.35 82.7,-84.25"/>
<polygon fill="#63b8ff" stroke="#63b8ff" points="86.18,-83.86 81.86,-74.19 79.21,-84.45 86.18,-83.86"/>
</a>
</g>
</g>
<!-- Node3 -->
<g id="Node000003" class="node">
<title>Node3</title>
<g id="a_Node000003"><a xlink:title=" ">
<polygon fill="#e0e0e0" stroke="#999999" points="154.75,-19 104.75,-19 104.75,0 154.75,0 154.75,-19"/>
<text text-anchor="middle" x="129.75" y="-7" font-family="Helvetica,sans-Serif" font-size="10.00">cstdint</text>
</a>
</g>
</g>
<!-- Node1&#45;&gt;Node3 -->
<g id="edge11_Node000001_Node000003" class="edge">
<title>Node1&#45;&gt;Node3</title>
<g id="a_edge11_Node000001_Node000003"><a xlink:title=" ">
<path fill="none" stroke="#63b8ff" d="M195.98,-170.58C135.29,-163.93 40.28,-142.49 3.75,-74 -16.53,-35.98 50.54,-20.23 94.5,-14.09"/>
<polygon fill="#63b8ff" stroke="#63b8ff" points="95.1,-17.55 104.57,-12.8 94.21,-10.6 95.1,-17.55"/>
</a>
</g>
</g>
<!-- Node4 -->
<g id="Node000004" class="node">
<title>Node4</title>
<g id="a_Node000004"><a xlink:href="max22200__types_8hpp.html" target="_top" xlink:title="Type definitions and structures for MAX22200 driver.">
<polygon fill="white" stroke="#666666" points="231.75,-129 109.75,-129 109.75,-110 231.75,-110 231.75,-129"/>
<text text-anchor="middle" x="170.75" y="-117" font-family="Helvetica,sans-Serif" font-size="10.00">max22200_types.hpp</text>
</a>
</g>
</g>
<!-- Node1&#45;&gt;Node4 -->
<g id="edge3_Node000001_Node000004" class="edge">
<title>Node1&#45;&gt;Node4</title>
<g id="a_edge3_Node000001_Node000004"><a xlink:title=" ">
<path fill="none" stroke="#63b8ff" d="M237.05,-164.98C224.92,-156.84 206.39,-144.41 192,-134.76"/>
<polygon fill="#63b8ff" stroke="#63b8ff" points="193.92,-131.84 183.67,-129.17 190.02,-137.65 193.92,-131.84"/>
</a>
</g>
</g>
<!-- Node6 -->
<g id="Node000006" class="node">
<title>Node6</title>
<g id="a_Node000006"><a xlink:href="max22200__spi__interface_8hpp.html" target="_top" xlink:title="CRTP&#45;based template interface for SPI communication.">
<polygon fill="white" stroke="#666666" points="407.75,-129 249.75,-129 249.75,-110 407.75,-110 407.75,-129"/>
<text text-anchor="middle" x="328.75" y="-117" font-family="Helvetica,sans-Serif" font-size="10.00">max22200_spi_interface.hpp</text>
</a>
</g>
</g>
<!-- Node1&#45;&gt;Node6 -->
<g id="edge7_Node000001_Node000006" class="edge">
<title>Node1&#45;&gt;Node6</title>
<g id="a_edge7_Node000001_Node000006"><a xlink:title=" ">
<path fill="none" stroke="#63b8ff" d="M262.44,-164.98C274.58,-156.84 293.1,-144.41 307.49,-134.76"/>
<polygon fill="#63b8ff" stroke="#63b8ff" points="309.47,-137.65 315.82,-129.17 305.57,-131.84 309.47,-137.65"/>
</a>
</g>
</g>
<!-- Node8 -->
<g id="Node000008" class="node">
<title>Node8</title>
<g id="a_Node000008"><a xlink:title=" ">
<polygon fill="#e0e0e0" stroke="#999999" points="545.25,-129 426.25,-129 426.25,-110 545.25,-110 545.25,-129"/>
<text text-anchor="middle" x="485.75" y="-117" font-family="Helvetica,sans-Serif" font-size="10.00">max22200_version.h</text>
</a>
</g>
</g>
<!-- Node1&#45;&gt;Node8 -->
<g id="edge10_Node000001_Node000008" class="edge">
<title>Node1&#45;&gt;Node8</title>
<g id="a_edge10_Node000001_Node000008"><a xlink:title=" ">
<path fill="none" stroke="#63b8ff" d="M287.66,-164.98C328.4,-155.84 393.25,-141.27 437.57,-131.32"/>
<polygon fill="#63b8ff" stroke="#63b8ff" points="438.54,-134.69 447.53,-129.08 437.01,-127.86 438.54,-134.69"/>
</a>
</g>
</g>
<!-- Node9 -->
<g id="Node000009" class="node">
<title>Node9</title>
<g id="a_Node000009"><a xlink:href="max22200_8ipp.html" target="_top" xlink:title="Template implementation for MAX22200 driver.">
<polygon fill="white" stroke="#666666" points="676.25,-129 563.25,-129 563.25,-110 676.25,-110 676.25,-129"/>
<text text-anchor="middle" x="619.75" y="-117" font-family="Helvetica,sans-Serif" font-size="10.00">../src/max22200.ipp</text>
</a>
</g>
</g>
<!-- Node1&#45;&gt;Node9 -->
<g id="edge12_Node000001_Node000009" class="edge">
<title>Node1&#45;&gt;Node9</title>
<g id="a_edge12_Node000001_Node000009"><a xlink:title=" ">
<path fill="none" stroke="#63b8ff" d="M303.55,-165.79C369.55,-156.34 481.45,-140.31 552.91,-130.07"/>
<polygon fill="#63b8ff" stroke="#63b8ff" points="553.74,-133.49 563.15,-128.61 552.75,-126.56 553.74,-133.49"/>
</a>
</g>
</g>
<!-- Node2&#45;&gt;Node3 -->
<g id="edge2_Node000002_Node000003" class="edge">
<title>Node2&#45;&gt;Node3</title>
<g id="a_edge2_Node000002_Node000003"><a xlink:title=" ">
<path fill="none" stroke="#63b8ff" d="M89.67,-54.75C96.59,-47.11 106.81,-35.82 115.2,-26.56"/>
<polygon fill="#63b8ff" stroke="#63b8ff" points="117.85,-28.85 121.97,-19.09 112.66,-24.15 117.85,-28.85"/>
</a>
</g>
</g>
<!-- Node4&#45;&gt;Node2 -->
<g id="edge4_Node000004_Node000002" class="edge">
<title>Node4&#45;&gt;Node2</title>
<g id="a_edge4_Node000004_Node000002"><a xlink:title=" ">
<path fill="none" stroke="#63b8ff" d="M156.45,-109.98C142.65,-101.77 121.51,-89.18 105.23,-79.49"/>
<polygon fill="#63b8ff" stroke="#63b8ff" points="106.69,-76.28 96.31,-74.17 103.11,-82.29 106.69,-76.28"/>
</a>
</g>
</g>
<!-- Node4&#45;&gt;Node3 -->
<g id="edge6_Node000004_Node000003" class="edge">
<title>Node4&#45;&gt;Node3</title>
<g id="a_edge6_Node000004_Node000003"><a xlink:title=" ">
<path fill="none" stroke="#63b8ff" d="M170.19,-109.99C169.15,-97.52 166.28,-73.74 158.75,-55 154.8,-45.18 148.56,-35.22 142.88,-27.22"/>
<polygon fill="#63b8ff" stroke="#63b8ff" points="145.63,-25.06 136.85,-19.13 140.02,-29.24 145.63,-25.06"/>
</a>
</g>
</g>
<!-- Node5 -->
<g id="Node000005" class="node">
<title>Node5</title>
<g id="a_Node000005"><a xlink:title=" ">
<polygon fill="#e0e0e0" stroke="#999999" points="248.75,-74 206.75,-74 206.75,-55 248.75,-55 248.75,-74"/>
<text text-anchor="middle" x="227.75" y="-62" font-family="Helvetica,sans-Serif" font-size="10.00">array</text>
</a>
</g>
</g>
<!-- Node4&#45;&gt;Node5 -->
<g id="edge5_Node000004_Node000005" class="edge">
<title>Node4&#45;&gt;Node5</title>
<g id="a_edge5_Node000004_Node000005"><a xlink:title=" ">
<path fill="none" stroke="#63b8ff" d="M179.9,-109.98C188.25,-102.23 200.78,-90.58 210.92,-81.14"/>
<polygon fill="#63b8ff" stroke="#63b8ff" points="213.48,-83.54 218.42,-74.17 208.71,-78.42 213.48,-83.54"/>
</a>
</g>
</g>
<!-- Node6&#45;&gt;Node3 -->
<g id="edge9_Node000006_Node000003" class="edge">
<title>Node6&#45;&gt;Node3</title>
<g id="a_edge9_Node000006_Node000003"><a xlink:title=" ">
<path fill="none" stroke="#63b8ff" d="M321.28,-109.92C309.17,-96.49 283.97,-70.44 257.75,-55 228.57,-37.82 191.75,-25.9 165.1,-18.74"/>
<polygon fill="#63b8ff" stroke="#63b8ff" points="165.62,-15.26 155.07,-16.15 163.87,-22.04 165.62,-15.26"/>
</a>
</g>
</g>
<!-- Node7 -->
<g id="Node000007" class="node">
<title>Node7</title>
<g id="a_Node000007"><a xlink:title=" ">
<polygon fill="#e0e0e0" stroke="#999999" points="358.25,-74 305.25,-74 305.25,-55 358.25,-55 358.25,-74"/>
<text text-anchor="middle" x="331.75" y="-62" font-family="Helvetica,sans-Serif" font-size="10.00">cstddef</text>
</a>
</g>
</g>
<!-- Node6&#45;&gt;Node7 -->
<g id="edge8_Node000006_Node000007" class="edge">
<title>Node6&#45;&gt;Node7</title>
<g id="a_edge8_Node000006_Node000007"><a xlink:title=" ">
<path fill="none" stroke="#63b8ff" d="M329.24,-109.75C329.63,-102.8 330.2,-92.85 330.69,-84.13"/>
<polygon fill="#63b8ff" stroke="#63b8ff" points="334.19,-84.27 331.26,-74.09 327.2,-83.88 334.19,-84.27"/>
</a>
</g>
</g>
<!-- Node10 -->
<g id="Node000010" class="node">
<title>Node10</title>
<g id="a_Node000010"><a xlink:title=" ">
<polygon fill="#e0e0e0" stroke="#999999" points="609.25,-74 562.25,-74 562.25,-55 609.25,-55 609.25,-74"/>
<text text-anchor="middle" x="585.75" y="-62" font-family="Helvetica,sans-Serif" font-size="10.00">cmath</text>
</a>
</g>
</g>
<!-- Node9&#45;&gt;Node10 -->
<g id="edge13_Node000009_Node000010" class="edge">
<title>Node9&#45;&gt;Node10</title>
<g id="a_edge13_Node000009_Node000010"><a xlink:title=" ">
<path fill="none" stroke="#63b8ff" d="M614.13,-109.75C609.43,-102.42 602.57,-91.73 596.78,-82.7"/>
<polygon fill="#63b8ff" stroke="#63b8ff" points="599.6,-80.62 591.26,-74.09 593.71,-84.4 599.6,-80.62"/>
</a>
</g>
</g>
<!-- Node11 -->
<g id="Node000011" class="node">
<title>Node11</title>
<g id="a_Node000011"><a xlink:title=" ">
<polygon fill="#e0e0e0" stroke="#999999" points="677.75,-74 627.75,-74 627.75,-55 677.75,-55 677.75,-74"/>
<text text-anchor="middle" x="652.75" y="-62" font-family="Helvetica,sans-Serif" font-size="10.00">cstring</text>
</a>
</g>
</g>
<!-- Node9&#45;&gt;Node11 -->
<g id="edge14_Node000009_Node000011" class="edge">
<title>Node9&#45;&gt;Node11</title>
<g id="a_edge14_Node000009_Node000011"><a xlink:title=" ">
<path fill="none" stroke="#63b8ff" d="M625.2,-109.75C629.76,-102.42 636.41,-91.73 642.04,-82.7"/>
<polygon fill="#63b8ff" stroke="#63b8ff" points="645.08,-84.43 647.4,-74.09 639.14,-80.73 645.08,-84.43"/>
</a>
</g>
</g>
</g>
</svg>
