<?xml version="1.0" encoding="UTF-8" standalone="no"?>
<!DOCTYPE svg PUBLIC "-//W3C//DTD SVG 1.1//EN"
 "http://www.w3.org/Graphics/SVG/1.1/DTD/svg11.dtd">
<!-- Generated by graphviz version 2.43.0 (0)
 -->
<!-- Title: inc/max22200_types.hpp Pages: 1 -->
<svg width="472pt" height="159pt"
 viewBox="0.00 0.00 471.50 159.00" xmlns="http://www.w3.org/2000/svg" xmlns:xlink="http://www.w3.org/1999/xlink">
<g id="graph0" class="graph" transform="scale(1 1) rotate(0) translate(4 155)">
<title>inc/max22200_types.hpp</title>
<!-- Node1 -->
<g id="Node000001" class="node">
<title>Node1</title>
<g id="a_Node000001"><a xlink:title="Type definitions and structures for MAX22200 driver.">
<polygon fill="#999999" stroke="#666666" points="311,-151 172,-151 172,-132 311,-132 311,-151"/>
<text text-anchor="middle" x="241.5" y="-139" font-family="Helvetica,sans-Serif" font-size="10.00">inc/max22200_types.hpp</text>
</a>
</g>
</g>
<!-- Node2 -->
<g id="Node000002" class="node">
<title>Node2</title>
<g id="a_Node000002"><a xlink:href="c21__cycle__test_8cpp.html" target="_top" xlink:title="Real&#45;hardware Parker C21 24 V solenoid cycle test on MAX22200 CH0.">
<polygon fill="white" stroke="#666666" points="125,-35.5 0,-35.5 0,-5.5 125,-5.5 125,-35.5"/>
<text text-anchor="start" x="8" y="-23.5" font-family="Helvetica,sans-Serif" font-size="10.00">examples/esp32/main</text>
<text text-anchor="middle" x="62.5" y="-12.5" font-family="Helvetica,sans-Serif" font-size="10.00">/c21_cycle_test.cpp</text>
</a>
</g>
</g>
<!-- Node1&#45;&gt;Node2 -->
<g id="edge1_Node000001_Node000002" class="edge">
<title>Node1&#45;&gt;Node2</title>
<g id="a_edge1_Node000001_Node000002"><a xlink:title=" ">
<path fill="none" stroke="#63b8ff" d="M204.32,-128.49C183.67,-120.89 158.07,-109.87 137.5,-96 111.93,-78.76 87.62,-52.07 73.93,-35.75"/>
<polygon fill="#63b8ff" stroke="#63b8ff" points="203.42,-131.88 214.01,-131.94 205.77,-125.29 203.42,-131.88"/>
</a>
</g>
</g>
<!-- Node3 -->
<g id="Node000003" class="node">
<title>Node3</title>
<g id="a_Node000003"><a xlink:href="max22200__comprehensive__test_8cpp.html" target="_top" xlink:title="Comprehensive test suite for MAX22200 driver on ESP32.">
<polygon fill="white" stroke="#666666" points="295.5,-41 143.5,-41 143.5,0 295.5,0 295.5,-41"/>
<text text-anchor="start" x="151.5" y="-29" font-family="Helvetica,sans-Serif" font-size="10.00">examples/esp32/main</text>
<text text-anchor="start" x="151.5" y="-18" font-family="Helvetica,sans-Serif" font-size="10.00">/max22200_comprehensive</text>
<text text-anchor="middle" x="219.5" y="-7" font-family="Helvetica,sans-Serif" font-size="10.00">_test.cpp</text>
</a>
</g>
</g>
<!-- Node1&#45;&gt;Node3 -->
<g id="edge2_Node000001_Node000003" class="edge">
<title>Node1&#45;&gt;Node3</title>
<g id="a_edge2_Node000001_Node000003"><a xlink:title=" ">
<path fill="none" stroke="#63b8ff" d="M253.48,-123.18C260.81,-110.39 267.83,-92.58 262.5,-77 257.92,-63.62 248.67,-50.97 239.91,-41.14"/>
<polygon fill="#63b8ff" stroke="#63b8ff" points="250.39,-121.53 248.02,-131.85 256.31,-125.25 250.39,-121.53"/>
</a>
</g>
</g>
<!-- Node4 -->
<g id="Node000004" class="node">
<title>Node4</title>
<g id="a_Node000004"><a xlink:href="max22200__solenoid__valve__test_8cpp.html" target="_top" xlink:title="Dedicated solenoid/valve test for MAX22200 driver on ESP32.">
<polygon fill="white" stroke="#666666" points="463.5,-41 313.5,-41 313.5,0 463.5,0 463.5,-41"/>
<text text-anchor="start" x="321.5" y="-29" font-family="Helvetica,sans-Serif" font-size="10.00">examples/esp32/main</text>
<text text-anchor="start" x="321.5" y="-18" font-family="Helvetica,sans-Serif" font-size="10.00">/max22200_solenoid_valve</text>
<text text-anchor="middle" x="388.5" y="-7" font-family="Helvetica,sans-Serif" font-size="10.00">_test.cpp</text>
</a>
</g>
</g>
<!-- Node1&#45;&gt;Node4 -->
<g id="edge3_Node000001_Node000004" class="edge">
<title>Node1&#45;&gt;Node4</title>
<g id="a_edge3_Node000001_Node000004"><a xlink:title=" ">
<path fill="none" stroke="#63b8ff" d="M260.13,-125.42C286.57,-104.02 334.98,-64.83 364.2,-41.17"/>
<polygon fill="#63b8ff" stroke="#63b8ff" points="257.64,-122.93 252.07,-131.94 262.05,-128.37 257.64,-122.93"/>
</a>
</g>
</g>
<!-- Node5 -->
<g id="Node000005" class="node">
<title>Node5</title>
<g id="a_Node000005"><a xlink:href="max22200_8hpp.html" target="_top" xlink:title="Main driver class for MAX22200 octal solenoid and motor driver.">
<polygon fill="white" stroke="#666666" points="254,-96 147,-96 147,-77 254,-77 254,-96"/>
<text text-anchor="middle" x="200.5" y="-84" font-family="Helvetica,sans-Serif" font-size="10.00">inc/max22200.hpp</text>
</a>
</g>
</g>
<!-- Node1&#45;&gt;Node5 -->
<g id="edge4_Node000001_Node000005" class="edge">
<title>Node1&#45;&gt;Node5</title>
<g id="a_edge4_Node000001_Node000005"><a xlink:title=" ">
<path fill="none" stroke="#63b8ff" d="M228.48,-123.67C221.38,-114.5 212.9,-103.52 207.14,-96.09"/>
<polygon fill="#63b8ff" stroke="#63b8ff" points="225.84,-125.98 234.73,-131.75 231.38,-121.7 225.84,-125.98"/>
</a>
</g>
</g>
<!-- Node5&#45;&gt;Node2 -->
<g id="edge5_Node000005_Node000002" class="edge">
<title>Node5&#45;&gt;Node2</title>
<g id="a_edge5_Node000005_Node000002"><a xlink:title=" ">
<path fill="none" stroke="#63b8ff" d="M172.63,-72.58C149.53,-61.86 116.73,-46.65 92.94,-35.62"/>
<polygon fill="#63b8ff" stroke="#63b8ff" points="171.34,-75.84 181.89,-76.87 174.29,-69.49 171.34,-75.84"/>
</a>
</g>
</g>
<!-- Node5&#45;&gt;Node3 -->
<g id="edge6_Node000005_Node000003" class="edge">
<title>Node5&#45;&gt;Node3</title>
<g id="a_edge6_Node000005_Node000003"><a xlink:title=" ">
<path fill="none" stroke="#63b8ff" d="M205.94,-67.19C208.37,-59 211.24,-49.33 213.71,-41.01"/>
<polygon fill="#63b8ff" stroke="#63b8ff" points="202.55,-66.29 203.06,-76.87 209.26,-68.28 202.55,-66.29"/>
</a>
</g>
</g>
<!-- Node5&#45;&gt;Node4 -->
<g id="edge7_Node000005_Node000004" class="edge">
<title>Node5&#45;&gt;Node4</title>
<g id="a_edge7_Node000005_Node000004"><a xlink:title=" ">
<path fill="none" stroke="#63b8ff" d="M235.58,-73.56C262.42,-64.42 300,-51.63 331.19,-41.01"/>
<polygon fill="#63b8ff" stroke="#63b8ff" points="234.19,-70.33 225.85,-76.87 236.45,-76.96 234.19,-70.33"/>
</a>
</g>
</g>
</g>
</svg>
