<?xml version="1.0" encoding="UTF-8" standalone="no"?>
<!DOCTYPE svg PUBLIC "-//W3C//DTD SVG 1.1//EN"
 "http://www.w3.org/Graphics/SVG/1.1/DTD/svg11.dtd">
<!-- Generated by graphviz version 2.43.0 (0)
 -->
<!-- Title: inc/max22200_registers.hpp Pages: 1 -->
<svg width="253pt" height="214pt"
 viewBox="0.00 0.00 253.00 214.00" xmlns="http://www.w3.org/2000/svg" xmlns:xlink="http://www.w3.org/1999/xlink">
<g id="graph0" class="graph" transform="scale(1 1) rotate(0) translate(4 210)">
<title>inc/max22200_registers.hpp</title>
<!-- Node1 -->
<g id="Node000001" class="node">
<title>Node1</title>
<g id="a_Node000001"><a xlink:title="Register definitions and constants for MAX22200 IC.">
<polygon fill="#999999" stroke="#666666" points="155,-206 0,-206 0,-187 155,-187 155,-206"/>
<text text-anchor="middle" x="77.5" y="-194" font-family="Helvetica,sans-Serif" font-size="10.00">inc/max22200_registers.hpp</text>
</a>
</g>
</g>
<!-- Node2 -->
<g id="Node000002" class="node">
<title>Node2</title>
<g id="a_Node000002"><a xlink:href="max22200__comprehensive__test_8cpp.html" target="_top" xlink:title="Comprehensive test suite for MAX22200 driver on ESP32&#45;C6.">
<polygon fill="white" stroke="#666666" points="156.5,-41 4.5,-41 4.5,0 156.5,0 156.5,-41"/>
<text text-anchor="start" x="12.5" y="-29" font-family="Helvetica,sans-Serif" font-size="10.00">examples/esp32/main</text>
<text text-anchor="start" x="12.5" y="-18" font-family="Helvetica,sans-Serif" font-size="10.00">/max22200_comprehensive</text>
<text text-anchor="middle" x="80.5" y="-7" font-family="Helvetica,sans-Serif" font-size="10.00">_test.cpp</text>
</a>
</g>
</g>
<!-- Node1&#45;&gt;Node2 -->
<g id="edge1_Node000001_Node000002" class="edge">
<title>Node1&#45;&gt;Node2</title>
<g id="a_edge1_Node000001_Node000002"><a xlink:title=" ">
<path fill="none" stroke="#63b8ff" d="M70.96,-177.24C63.48,-153.91 53.04,-112.34 59.5,-77 61.76,-64.64 66.64,-51.45 71.12,-41.04"/>
<polygon fill="#63b8ff" stroke="#63b8ff" points="67.7,-178.5 74.22,-186.85 74.33,-176.25 67.7,-178.5"/>
</a>
</g>
</g>
<!-- Node3 -->
<g id="Node000003" class="node">
<title>Node3</title>
<g id="a_Node000003"><a xlink:href="max22200_8hpp.html" target="_top" xlink:title="Main driver class for MAX22200 octal solenoid and motor driver.">
<polygon fill="white" stroke="#666666" points="175,-96 68,-96 68,-77 175,-77 175,-96"/>
<text text-anchor="middle" x="121.5" y="-84" font-family="Helvetica,sans-Serif" font-size="10.00">inc/max22200.hpp</text>
</a>
</g>
</g>
<!-- Node1&#45;&gt;Node3 -->
<g id="edge2_Node000001_Node000003" class="edge">
<title>Node1&#45;&gt;Node3</title>
<g id="a_edge2_Node000001_Node000003"><a xlink:title=" ">
<path fill="none" stroke="#63b8ff" d="M82.4,-176.74C85.99,-163.91 91.31,-146.66 97.5,-132 102.97,-119.06 110.98,-104.91 116.21,-96.12"/>
<polygon fill="#63b8ff" stroke="#63b8ff" points="78.94,-176.12 79.71,-186.69 85.7,-177.95 78.94,-176.12"/>
</a>
</g>
</g>
<!-- Node4 -->
<g id="Node000004" class="node">
<title>Node4</title>
<g id="a_Node000004"><a xlink:href="max22200__types_8hpp.html" target="_top" xlink:title="Type definitions and structures for MAX22200 driver.">
<polygon fill="white" stroke="#666666" points="245,-151 106,-151 106,-132 245,-132 245,-151"/>
<text text-anchor="middle" x="175.5" y="-139" font-family="Helvetica,sans-Serif" font-size="10.00">inc/max22200_types.hpp</text>
</a>
</g>
</g>
<!-- Node1&#45;&gt;Node4 -->
<g id="edge4_Node000001_Node000004" class="edge">
<title>Node1&#45;&gt;Node4</title>
<g id="a_edge4_Node000001_Node000004"><a xlink:title=" ">
<path fill="none" stroke="#63b8ff" d="M102.53,-181.97C120.44,-172.28 144.03,-159.52 159.47,-151.17"/>
<polygon fill="#63b8ff" stroke="#63b8ff" points="100.38,-179.15 93.25,-186.98 103.71,-185.31 100.38,-179.15"/>
</a>
</g>
</g>
<!-- Node3&#45;&gt;Node2 -->
<g id="edge3_Node000003_Node000002" class="edge">
<title>Node3&#45;&gt;Node2</title>
<g id="a_edge3_Node000003_Node000002"><a xlink:title=" ">
<path fill="none" stroke="#63b8ff" d="M110.47,-68.28C105.08,-59.87 98.57,-49.71 93,-41.01"/>
<polygon fill="#63b8ff" stroke="#63b8ff" points="107.63,-70.34 115.97,-76.87 113.52,-66.56 107.63,-70.34"/>
</a>
</g>
</g>
<!-- Node4&#45;&gt;Node3 -->
<g id="edge5_Node000004_Node000003" class="edge">
<title>Node4&#45;&gt;Node3</title>
<g id="a_edge5_Node000004_Node000003"><a xlink:title=" ">
<path fill="none" stroke="#63b8ff" d="M159.22,-124.52C149.7,-115.18 138.06,-103.75 130.25,-96.09"/>
<polygon fill="#63b8ff" stroke="#63b8ff" points="156.99,-127.24 166.58,-131.75 161.9,-122.25 156.99,-127.24"/>
</a>
</g>
</g>
</g>
</svg>
