<?xml version="1.0" encoding="UTF-8" standalone="no"?>
<!DOCTYPE svg PUBLIC "-//W3C//DTD SVG 1.1//EN"
 "http://www.w3.org/Graphics/SVG/1.1/DTD/svg11.dtd">
<!-- Generated by graphviz version 2.43.0 (0)
 -->
<!-- Title: inc/MAX22200.h Pages: 1 -->
<svg width="570pt" height="192pt"
 viewBox="0.00 0.00 570.16 192.00" xmlns="http://www.w3.org/2000/svg" xmlns:xlink="http://www.w3.org/1999/xlink">
<g id="graph0" class="graph" transform="scale(1 1) rotate(0) translate(4 188)">
<title>inc/MAX22200.h</title>
<!-- Node1 -->
<g id="Node000001" class="node">
<title>Node1</title>
<g id="a_Node000001"><a xlink:title="Main driver class for MAX22200 octal solenoid and motor driver.">
<polygon fill="#999999" stroke="#666666" points="314.66,-184 219.66,-184 219.66,-165 314.66,-165 314.66,-184"/>
<text text-anchor="middle" x="267.16" y="-172" font-family="Helvetica,sans-Serif" font-size="10.00">inc/MAX22200.h</text>
</a>
</g>
</g>
<!-- Node2 -->
<g id="Node000002" class="node">
<title>Node2</title>
<g id="a_Node000002"><a xlink:href="MAX22200__Registers_8h.html" target="_top" xlink:title="Register definitions and constants for MAX22200 IC.">
<polygon fill="white" stroke="#666666" points="141.66,-74 12.66,-74 12.66,-55 141.66,-55 141.66,-74"/>
<text text-anchor="middle" x="77.16" y="-62" font-family="Helvetica,sans-Serif" font-size="10.00">MAX22200_Registers.h</text>
</a>
</g>
</g>
<!-- Node1&#45;&gt;Node2 -->
<g id="edge1_Node000001_Node000002" class="edge">
<title>Node1&#45;&gt;Node2</title>
<g id="a_edge1_Node000001_Node000002"><a xlink:title=" ">
<path fill="none" stroke="#63b8ff" d="M219.34,-168.22C170.93,-161.83 100.75,-149.31 83.16,-129 72.64,-116.85 72.12,-98.06 73.64,-84.06"/>
<polygon fill="#63b8ff" stroke="#63b8ff" points="77.12,-84.5 75.15,-74.09 70.2,-83.45 77.12,-84.5"/>
</a>
</g>
</g>
<!-- Node3 -->
<g id="Node000003" class="node">
<title>Node3</title>
<g id="a_Node000003"><a xlink:title=" ">
<polygon fill="#e0e0e0" stroke="#999999" points="148.16,-19 98.16,-19 98.16,0 148.16,0 148.16,-19"/>
<text text-anchor="middle" x="123.16" y="-7" font-family="Helvetica,sans-Serif" font-size="10.00">cstdint</text>
</a>
</g>
</g>
<!-- Node1&#45;&gt;Node3 -->
<g id="edge11_Node000001_Node000003" class="edge">
<title>Node1&#45;&gt;Node3</title>
<g id="a_edge11_Node000001_Node000003"><a xlink:title=" ">
<path fill="none" stroke="#63b8ff" d="M219.58,-173.36C154.32,-170.15 40.83,-152.9 3.16,-74 -14.39,-37.23 46.47,-21.17 87.85,-14.61"/>
<polygon fill="#63b8ff" stroke="#63b8ff" points="88.51,-18.05 97.9,-13.14 87.49,-11.12 88.51,-18.05"/>
</a>
</g>
</g>
<!-- Node4 -->
<g id="Node000004" class="node">
<title>Node4</title>
<g id="a_Node000004"><a xlink:href="MAX22200__Types_8h.html" target="_top" xlink:title="Type definitions and structures for MAX22200 driver.">
<polygon fill="white" stroke="#666666" points="203.66,-129 92.66,-129 92.66,-110 203.66,-110 203.66,-129"/>
<text text-anchor="middle" x="148.16" y="-117" font-family="Helvetica,sans-Serif" font-size="10.00">MAX22200_Types.h</text>
</a>
</g>
</g>
<!-- Node1&#45;&gt;Node4 -->
<g id="edge3_Node000001_Node000004" class="edge">
<title>Node1&#45;&gt;Node4</title>
<g id="a_edge3_Node000001_Node000004"><a xlink:title=" ">
<path fill="none" stroke="#63b8ff" d="M248.04,-164.98C228.81,-156.42 198.93,-143.11 176.86,-133.28"/>
<polygon fill="#63b8ff" stroke="#63b8ff" points="178.19,-130.04 167.63,-129.17 175.34,-136.44 178.19,-130.04"/>
</a>
</g>
</g>
<!-- Node5 -->
<g id="Node000005" class="node">
<title>Node5</title>
<g id="a_Node000005"><a xlink:title=" ">
<polygon fill="#e0e0e0" stroke="#999999" points="240.16,-74 198.16,-74 198.16,-55 240.16,-55 240.16,-74"/>
<text text-anchor="middle" x="219.16" y="-62" font-family="Helvetica,sans-Serif" font-size="10.00">array</text>
</a>
</g>
</g>
<!-- Node1&#45;&gt;Node5 -->
<g id="edge10_Node000001_Node000005" class="edge">
<title>Node1&#45;&gt;Node5</title>
<g id="a_edge10_Node000001_Node000005"><a xlink:title=" ">
<path fill="none" stroke="#63b8ff" d="M263.23,-164.66C255.35,-146.93 237.49,-106.73 227.08,-83.32"/>
<polygon fill="#63b8ff" stroke="#63b8ff" points="230.27,-81.87 223.01,-74.16 223.87,-84.72 230.27,-81.87"/>
</a>
</g>
</g>
<!-- Node6 -->
<g id="Node000006" class="node">
<title>Node6</title>
<g id="a_Node000006"><a xlink:href="SPIInterface_8h.html" target="_top" xlink:title="CRTP&#45;based template interface for SPI communication.">
<polygon fill="white" stroke="#666666" points="344.16,-129 260.16,-129 260.16,-110 344.16,-110 344.16,-129"/>
<text text-anchor="middle" x="302.16" y="-117" font-family="Helvetica,sans-Serif" font-size="10.00">SPIInterface.h</text>
</a>
</g>
</g>
<!-- Node1&#45;&gt;Node6 -->
<g id="edge7_Node000001_Node000006" class="edge">
<title>Node1&#45;&gt;Node6</title>
<g id="a_edge7_Node000001_Node000006"><a xlink:title=" ">
<path fill="none" stroke="#63b8ff" d="M272.94,-164.75C277.78,-157.42 284.84,-146.73 290.81,-137.7"/>
<polygon fill="#63b8ff" stroke="#63b8ff" points="293.9,-139.36 296.49,-129.09 288.06,-135.5 293.9,-139.36"/>
</a>
</g>
</g>
<!-- Node8 -->
<g id="Node000008" class="node">
<title>Node8</title>
<g id="a_Node000008"><a xlink:title=" ">
<polygon fill="#e0e0e0" stroke="#999999" points="427.66,-129 362.66,-129 362.66,-110 427.66,-110 427.66,-129"/>
<text text-anchor="middle" x="395.16" y="-117" font-family="Helvetica,sans-Serif" font-size="10.00">functional</text>
</a>
</g>
</g>
<!-- Node1&#45;&gt;Node8 -->
<g id="edge12_Node000001_Node000008" class="edge">
<title>Node1&#45;&gt;Node8</title>
<g id="a_edge12_Node000001_Node000008"><a xlink:title=" ">
<path fill="none" stroke="#63b8ff" d="M287.73,-164.98C308.6,-156.34 341.13,-142.87 364.94,-133.02"/>
<polygon fill="#63b8ff" stroke="#63b8ff" points="366.32,-136.23 374.22,-129.17 363.64,-129.76 366.32,-136.23"/>
</a>
</g>
</g>
<!-- Node9 -->
<g id="Node000009" class="node">
<title>Node9</title>
<g id="a_Node000009"><a xlink:href="MAX22200_8cpp.html" target="_top" xlink:title="Implementation of MAX22200 driver class.">
<polygon fill="white" stroke="#666666" points="562.16,-129 446.16,-129 446.16,-110 562.16,-110 562.16,-129"/>
<text text-anchor="middle" x="504.16" y="-117" font-family="Helvetica,sans-Serif" font-size="10.00">../src/MAX22200.cpp</text>
</a>
</g>
</g>
<!-- Node1&#45;&gt;Node9 -->
<g id="edge13_Node000001_Node000009" class="edge">
<title>Node1&#45;&gt;Node9</title>
<g id="a_edge13_Node000001_Node000009"><a xlink:title=" ">
<path fill="none" stroke="#63b8ff" d="M300.13,-164.98C339.18,-155.8 404.54,-141.15 450.8,-131.19"/>
<polygon fill="#63b8ff" stroke="#63b8ff" points="451.61,-134.6 460.66,-129.08 450.15,-127.75 451.61,-134.6"/>
</a>
</g>
</g>
<!-- Node2&#45;&gt;Node3 -->
<g id="edge2_Node000002_Node000003" class="edge">
<title>Node2&#45;&gt;Node3</title>
<g id="a_edge2_Node000002_Node000003"><a xlink:title=" ">
<path fill="none" stroke="#63b8ff" d="M84.76,-54.75C91.32,-47.18 100.99,-36.05 108.98,-26.84"/>
<polygon fill="#63b8ff" stroke="#63b8ff" points="111.8,-28.94 115.71,-19.09 106.51,-24.35 111.8,-28.94"/>
</a>
</g>
</g>
<!-- Node4&#45;&gt;Node2 -->
<g id="edge4_Node000004_Node000002" class="edge">
<title>Node4&#45;&gt;Node2</title>
<g id="a_edge4_Node000004_Node000002"><a xlink:title=" ">
<path fill="none" stroke="#63b8ff" d="M136.76,-109.98C126.05,-102 109.82,-89.88 97,-80.31"/>
<polygon fill="#63b8ff" stroke="#63b8ff" points="98.88,-77.35 88.78,-74.17 94.7,-82.96 98.88,-77.35"/>
</a>
</g>
</g>
<!-- Node4&#45;&gt;Node3 -->
<g id="edge6_Node000004_Node000003" class="edge">
<title>Node4&#45;&gt;Node3</title>
<g id="a_edge6_Node000004_Node000003"><a xlink:title=" ">
<path fill="none" stroke="#63b8ff" d="M150.08,-109.67C152.42,-97.22 155.45,-73.91 150.16,-55 147.4,-45.12 141.77,-35.25 136.37,-27.32"/>
<polygon fill="#63b8ff" stroke="#63b8ff" points="139.04,-25.04 130.31,-19.03 133.38,-29.17 139.04,-25.04"/>
</a>
</g>
</g>
<!-- Node4&#45;&gt;Node5 -->
<g id="edge5_Node000004_Node000005" class="edge">
<title>Node4&#45;&gt;Node5</title>
<g id="a_edge5_Node000004_Node000005"><a xlink:title=" ">
<path fill="none" stroke="#63b8ff" d="M159.57,-109.98C170.27,-102 186.5,-89.88 199.33,-80.31"/>
<polygon fill="#63b8ff" stroke="#63b8ff" points="201.63,-82.96 207.55,-74.17 197.44,-77.35 201.63,-82.96"/>
</a>
</g>
</g>
<!-- Node6&#45;&gt;Node3 -->
<g id="edge9_Node000006_Node000003" class="edge">
<title>Node6&#45;&gt;Node3</title>
<g id="a_edge9_Node000006_Node000003"><a xlink:title=" ">
<path fill="none" stroke="#63b8ff" d="M309.07,-109.73C318.59,-96.51 333.18,-71.29 320.16,-55 300.3,-30.15 209.58,-18.17 158.46,-13.3"/>
<polygon fill="#63b8ff" stroke="#63b8ff" points="158.77,-9.81 148.49,-12.39 158.14,-16.78 158.77,-9.81"/>
</a>
</g>
</g>
<!-- Node7 -->
<g id="Node000007" class="node">
<title>Node7</title>
<g id="a_Node000007"><a xlink:title=" ">
<polygon fill="#e0e0e0" stroke="#999999" points="311.66,-74 258.66,-74 258.66,-55 311.66,-55 311.66,-74"/>
<text text-anchor="middle" x="285.16" y="-62" font-family="Helvetica,sans-Serif" font-size="10.00">cstddef</text>
</a>
</g>
</g>
<!-- Node6&#45;&gt;Node7 -->
<g id="edge8_Node000006_Node000007" class="edge">
<title>Node6&#45;&gt;Node7</title>
<g id="a_edge8_Node000006_Node000007"><a xlink:title=" ">
<path fill="none" stroke="#63b8ff" d="M299.36,-109.75C297.1,-102.72 293.86,-92.62 291.05,-83.84"/>
<polygon fill="#63b8ff" stroke="#63b8ff" points="294.3,-82.54 287.92,-74.09 287.64,-84.68 294.3,-82.54"/>
</a>
</g>
</g>
<!-- Node9&#45;&gt;Node1 -->
<g id="edge14_Node000009_Node000001" class="edge">
<title>Node9&#45;&gt;Node1</title>
<g id="a_edge14_Node000009_Node000001"><a xlink:title=" ">
<path fill="none" stroke="#63b8ff" d="M470.92,-129.08C431.73,-138.3 366.36,-152.94 320.19,-162.88"/>
<polygon fill="#63b8ff" stroke="#63b8ff" points="319.4,-159.47 310.36,-164.98 320.87,-166.31 319.4,-159.47"/>
</a>
</g>
</g>
<!-- Node10 -->
<g id="Node000010" class="node">
<title>Node10</title>
<g id="a_Node000010"><a xlink:title=" ">
<polygon fill="#e0e0e0" stroke="#999999" points="530.66,-74 477.66,-74 477.66,-55 530.66,-55 530.66,-74"/>
<text text-anchor="middle" x="504.16" y="-62" font-family="Helvetica,sans-Serif" font-size="10.00">string.h</text>
</a>
</g>
</g>
<!-- Node9&#45;&gt;Node10 -->
<g id="edge15_Node000009_Node000010" class="edge">
<title>Node9&#45;&gt;Node10</title>
<g id="a_edge15_Node000009_Node000010"><a xlink:title=" ">
<path fill="none" stroke="#63b8ff" d="M504.16,-109.75C504.16,-102.8 504.16,-92.85 504.16,-84.13"/>
<polygon fill="#63b8ff" stroke="#63b8ff" points="507.66,-84.09 504.16,-74.09 500.66,-84.09 507.66,-84.09"/>
</a>
</g>
</g>
</g>
</svg>
