<?xml version="1.0" encoding="UTF-8" standalone="no"?>
<!DOCTYPE svg PUBLIC "-//W3C//DTD SVG 1.1//EN"
 "http://www.w3.org/Graphics/SVG/1.1/DTD/svg11.dtd">
<!-- Generated by graphviz version 2.43.0 (0)
 -->
<!-- Title: src/MAX22200.cpp Pages: 1 -->
<svg width="470pt" height="247pt"
 viewBox="0.00 0.00 470.00 247.00" xmlns="http://www.w3.org/2000/svg" xmlns:xlink="http://www.w3.org/1999/xlink">
<g id="graph0" class="graph" transform="scale(1 1) rotate(0) translate(4 243)">
<title>src/MAX22200.cpp</title>
<!-- Node1 -->
<g id="Node000001" class="node">
<title>Node1</title>
<g id="a_Node000001"><a xlink:title="Implementation of MAX22200 driver class.">
<polygon fill="#999999" stroke="#666666" points="317,-239 210,-239 210,-220 317,-220 317,-239"/>
<text text-anchor="middle" x="263.5" y="-227" font-family="Helvetica,sans-Serif" font-size="10.00">src/MAX22200.cpp</text>
</a>
</g>
</g>
<!-- Node2 -->
<g id="Node000002" class="node">
<title>Node2</title>
<g id="a_Node000002"><a xlink:href="MAX22200_8h.html" target="_top" xlink:title="Main driver class for MAX22200 octal solenoid and motor driver.">
<polygon fill="white" stroke="#666666" points="315.5,-184 211.5,-184 211.5,-165 315.5,-165 315.5,-184"/>
<text text-anchor="middle" x="263.5" y="-172" font-family="Helvetica,sans-Serif" font-size="10.00">../inc/MAX22200.h</text>
</a>
</g>
</g>
<!-- Node1&#45;&gt;Node2 -->
<g id="edge1_Node000001_Node000002" class="edge">
<title>Node1&#45;&gt;Node2</title>
<g id="a_edge1_Node000001_Node000002"><a xlink:title=" ">
<path fill="none" stroke="#63b8ff" d="M258.33,-219.75C256.84,-212.8 256.4,-202.85 257.02,-194.13"/>
<polygon fill="#63b8ff" stroke="#63b8ff" points="260.51,-194.47 258.37,-184.09 253.57,-193.53 260.51,-194.47"/>
</a>
</g>
</g>
<!-- Node10 -->
<g id="Node000010" class="node">
<title>Node10</title>
<g id="a_Node000010"><a xlink:title=" ">
<polygon fill="#e0e0e0" stroke="#999999" points="387,-184 334,-184 334,-165 387,-165 387,-184"/>
<text text-anchor="middle" x="360.5" y="-172" font-family="Helvetica,sans-Serif" font-size="10.00">string.h</text>
</a>
</g>
</g>
<!-- Node1&#45;&gt;Node10 -->
<g id="edge15_Node000001_Node000010" class="edge">
<title>Node1&#45;&gt;Node10</title>
<g id="a_edge15_Node000001_Node000010"><a xlink:title=" ">
<path fill="none" stroke="#63b8ff" d="M279.08,-219.98C294.27,-211.69 317.6,-198.94 335.4,-189.22"/>
<polygon fill="#63b8ff" stroke="#63b8ff" points="337.53,-192.04 344.63,-184.17 334.18,-185.89 337.53,-192.04"/>
</a>
</g>
</g>
<!-- Node2&#45;&gt;Node1 -->
<g id="edge14_Node000002_Node000001" class="edge">
<title>Node2&#45;&gt;Node1</title>
<g id="a_edge14_Node000002_Node000001"><a xlink:title=" ">
<path fill="none" stroke="#63b8ff" d="M268.63,-184.09C270.14,-190.99 270.59,-200.93 269.99,-209.66"/>
<polygon fill="#63b8ff" stroke="#63b8ff" points="266.5,-209.38 268.67,-219.75 273.44,-210.29 266.5,-209.38"/>
</a>
</g>
</g>
<!-- Node3 -->
<g id="Node000003" class="node">
<title>Node3</title>
<g id="a_Node000003"><a xlink:href="MAX22200__Registers_8h.html" target="_top" xlink:title="Register definitions and constants for MAX22200 IC.">
<polygon fill="white" stroke="#666666" points="129,-74 0,-74 0,-55 129,-55 129,-74"/>
<text text-anchor="middle" x="64.5" y="-62" font-family="Helvetica,sans-Serif" font-size="10.00">MAX22200_Registers.h</text>
</a>
</g>
</g>
<!-- Node2&#45;&gt;Node3 -->
<g id="edge2_Node000002_Node000003" class="edge">
<title>Node2&#45;&gt;Node3</title>
<g id="a_edge2_Node000002_Node000003"><a xlink:title=" ">
<path fill="none" stroke="#63b8ff" d="M211.3,-167.02C163.61,-160.04 97.81,-147.41 79.5,-129 67.9,-117.34 64.63,-98.48 63.98,-84.34"/>
<polygon fill="#63b8ff" stroke="#63b8ff" points="67.48,-84.21 63.9,-74.24 60.48,-84.26 67.48,-84.21"/>
</a>
</g>
</g>
<!-- Node4 -->
<g id="Node000004" class="node">
<title>Node4</title>
<g id="a_Node000004"><a xlink:title=" ">
<polygon fill="#e0e0e0" stroke="#999999" points="231.5,-19 181.5,-19 181.5,0 231.5,0 231.5,-19"/>
<text text-anchor="middle" x="206.5" y="-7" font-family="Helvetica,sans-Serif" font-size="10.00">cstdint</text>
</a>
</g>
</g>
<!-- Node2&#45;&gt;Node4 -->
<g id="edge12_Node000002_Node000004" class="edge">
<title>Node2&#45;&gt;Node4</title>
<g id="a_edge12_Node000002_Node000004"><a xlink:title=" ">
<path fill="none" stroke="#63b8ff" d="M298.55,-164.88C317.15,-158.33 338.4,-147.24 349.5,-129 357.54,-115.79 365.35,-79.35 346.5,-55 321.92,-23.25 274.61,-13.72 241.83,-11.09"/>
<polygon fill="#63b8ff" stroke="#63b8ff" points="241.95,-7.59 231.75,-10.46 241.51,-14.58 241.95,-7.59"/>
</a>
</g>
</g>
<!-- Node5 -->
<g id="Node000005" class="node">
<title>Node5</title>
<g id="a_Node000005"><a xlink:href="MAX22200__Types_8h.html" target="_top" xlink:title="Type definitions and structures for MAX22200 driver.">
<polygon fill="white" stroke="#666666" points="200,-129 89,-129 89,-110 200,-110 200,-129"/>
<text text-anchor="middle" x="144.5" y="-117" font-family="Helvetica,sans-Serif" font-size="10.00">MAX22200_Types.h</text>
</a>
</g>
</g>
<!-- Node2&#45;&gt;Node5 -->
<g id="edge4_Node000002_Node000005" class="edge">
<title>Node2&#45;&gt;Node5</title>
<g id="a_edge4_Node000002_Node000005"><a xlink:title=" ">
<path fill="none" stroke="#63b8ff" d="M244.38,-164.98C225.15,-156.42 195.27,-143.11 173.19,-133.28"/>
<polygon fill="#63b8ff" stroke="#63b8ff" points="174.53,-130.04 163.97,-129.17 171.68,-136.44 174.53,-130.04"/>
</a>
</g>
</g>
<!-- Node6 -->
<g id="Node000006" class="node">
<title>Node6</title>
<g id="a_Node000006"><a xlink:title=" ">
<polygon fill="#e0e0e0" stroke="#999999" points="227.5,-74 185.5,-74 185.5,-55 227.5,-55 227.5,-74"/>
<text text-anchor="middle" x="206.5" y="-62" font-family="Helvetica,sans-Serif" font-size="10.00">array</text>
</a>
</g>
</g>
<!-- Node2&#45;&gt;Node6 -->
<g id="edge11_Node000002_Node000006" class="edge">
<title>Node2&#45;&gt;Node6</title>
<g id="a_edge11_Node000002_Node000006"><a xlink:title=" ">
<path fill="none" stroke="#63b8ff" d="M258.84,-164.66C249.44,-146.85 228.07,-106.37 215.74,-83.01"/>
<polygon fill="#63b8ff" stroke="#63b8ff" points="218.83,-81.37 211.07,-74.16 212.64,-84.64 218.83,-81.37"/>
</a>
</g>
</g>
<!-- Node7 -->
<g id="Node000007" class="node">
<title>Node7</title>
<g id="a_Node000007"><a xlink:href="SPIInterface_8h.html" target="_top" xlink:title="CRTP&#45;based template interface for SPI communication.">
<polygon fill="white" stroke="#666666" points="340.5,-129 256.5,-129 256.5,-110 340.5,-110 340.5,-129"/>
<text text-anchor="middle" x="298.5" y="-117" font-family="Helvetica,sans-Serif" font-size="10.00">SPIInterface.h</text>
</a>
</g>
</g>
<!-- Node2&#45;&gt;Node7 -->
<g id="edge8_Node000002_Node000007" class="edge">
<title>Node2&#45;&gt;Node7</title>
<g id="a_edge8_Node000002_Node000007"><a xlink:title=" ">
<path fill="none" stroke="#63b8ff" d="M269.28,-164.75C274.12,-157.42 281.18,-146.73 287.14,-137.7"/>
<polygon fill="#63b8ff" stroke="#63b8ff" points="290.24,-139.36 292.83,-129.09 284.4,-135.5 290.24,-139.36"/>
</a>
</g>
</g>
<!-- Node9 -->
<g id="Node000009" class="node">
<title>Node9</title>
<g id="a_Node000009"><a xlink:title=" ">
<polygon fill="#e0e0e0" stroke="#999999" points="462,-129 397,-129 397,-110 462,-110 462,-129"/>
<text text-anchor="middle" x="429.5" y="-117" font-family="Helvetica,sans-Serif" font-size="10.00">functional</text>
</a>
</g>
</g>
<!-- Node2&#45;&gt;Node9 -->
<g id="edge13_Node000002_Node000009" class="edge">
<title>Node2&#45;&gt;Node9</title>
<g id="a_edge13_Node000002_Node000009"><a xlink:title=" ">
<path fill="none" stroke="#63b8ff" d="M290.17,-164.98C318.04,-156.09 361.95,-142.07 393.02,-132.15"/>
<polygon fill="#63b8ff" stroke="#63b8ff" points="394.16,-135.46 402.62,-129.08 392.03,-128.79 394.16,-135.46"/>
</a>
</g>
</g>
<!-- Node3&#45;&gt;Node4 -->
<g id="edge3_Node000003_Node000004" class="edge">
<title>Node3&#45;&gt;Node4</title>
<g id="a_edge3_Node000003_Node000004"><a xlink:title=" ">
<path fill="none" stroke="#63b8ff" d="M87.31,-54.98C110.67,-46.27 147.2,-32.63 173.67,-22.75"/>
<polygon fill="#63b8ff" stroke="#63b8ff" points="175.13,-25.95 183.27,-19.17 172.68,-19.39 175.13,-25.95"/>
</a>
</g>
</g>
<!-- Node5&#45;&gt;Node3 -->
<g id="edge5_Node000005_Node000003" class="edge">
<title>Node5&#45;&gt;Node3</title>
<g id="a_edge5_Node000005_Node000003"><a xlink:title=" ">
<path fill="none" stroke="#63b8ff" d="M131.65,-109.98C119.36,-101.84 100.59,-89.41 86.02,-79.76"/>
<polygon fill="#63b8ff" stroke="#63b8ff" points="87.86,-76.78 77.59,-74.17 83.99,-82.61 87.86,-76.78"/>
</a>
</g>
</g>
<!-- Node5&#45;&gt;Node4 -->
<g id="edge7_Node000005_Node000004" class="edge">
<title>Node5&#45;&gt;Node4</title>
<g id="a_edge7_Node000005_Node000004"><a xlink:title=" ">
<path fill="none" stroke="#63b8ff" d="M148.51,-109.69C154.26,-97.25 165.39,-73.96 176.5,-55 181.98,-45.65 188.66,-35.62 194.34,-27.45"/>
<polygon fill="#63b8ff" stroke="#63b8ff" points="197.28,-29.34 200.19,-19.15 191.56,-25.31 197.28,-29.34"/>
</a>
</g>
</g>
<!-- Node5&#45;&gt;Node6 -->
<g id="edge6_Node000005_Node000006" class="edge">
<title>Node5&#45;&gt;Node6</title>
<g id="a_edge6_Node000005_Node000006"><a xlink:title=" ">
<path fill="none" stroke="#63b8ff" d="M154.46,-109.98C163.63,-102.15 177.44,-90.34 188.53,-80.86"/>
<polygon fill="#63b8ff" stroke="#63b8ff" points="191.03,-83.33 196.36,-74.17 186.48,-78.01 191.03,-83.33"/>
</a>
</g>
</g>
<!-- Node7&#45;&gt;Node4 -->
<g id="edge10_Node000007_Node000004" class="edge">
<title>Node7&#45;&gt;Node4</title>
<g id="a_edge10_Node000007_Node000004"><a xlink:title=" ">
<path fill="none" stroke="#63b8ff" d="M290.97,-109.66C275.6,-91.61 240.38,-50.28 220.62,-27.08"/>
<polygon fill="#63b8ff" stroke="#63b8ff" points="223.02,-24.5 213.88,-19.16 217.7,-29.04 223.02,-24.5"/>
</a>
</g>
</g>
<!-- Node8 -->
<g id="Node000008" class="node">
<title>Node8</title>
<g id="a_Node000008"><a xlink:title=" ">
<polygon fill="#e0e0e0" stroke="#999999" points="337,-74 284,-74 284,-55 337,-55 337,-74"/>
<text text-anchor="middle" x="310.5" y="-62" font-family="Helvetica,sans-Serif" font-size="10.00">cstddef</text>
</a>
</g>
</g>
<!-- Node7&#45;&gt;Node8 -->
<g id="edge9_Node000007_Node000008" class="edge">
<title>Node7&#45;&gt;Node8</title>
<g id="a_edge9_Node000007_Node000008"><a xlink:title=" ">
<path fill="none" stroke="#63b8ff" d="M300.48,-109.75C302.07,-102.72 304.36,-92.62 306.35,-83.84"/>
<polygon fill="#63b8ff" stroke="#63b8ff" points="309.76,-84.62 308.56,-74.09 302.93,-83.07 309.76,-84.62"/>
</a>
</g>
</g>
</g>
</svg>
