<?xml version="1.0" encoding="UTF-8" standalone="no"?>
<!DOCTYPE svg PUBLIC "-//W3C//DTD SVG 1.1//EN"
 "http://www.w3.org/Graphics/SVG/1.1/DTD/svg11.dtd">
<!-- Generated by graphviz version 2.43.0 (0)
 -->
<!-- Title: examples/esp32/main/max22200_diagnostic.cpp Pages: 1 -->
<svg width="1696pt" height="269pt"
 viewBox="0.00 0.00 1696.00 269.00" xmlns="http://www.w3.org/2000/svg" xmlns:xlink="http://www.w3.org/1999/xlink">
<g id="graph0" class="graph" transform="scale(1 1) rotate(0) translate(4 265)">
<title>examples/esp32/main/max22200_diagnostic.cpp</title>
<!-- Node1 -->
<g id="Node000001" class="node">
<title>Node1</title>
<g id="a_Node000001"><a xlink:title="End&#45;to&#45;end MAX22200 health&#45;check on real hardware.">
<polygon fill="#999999" stroke="#666666" points="618.5,-261 471.5,-261 471.5,-231 618.5,-231 618.5,-261"/>
<text text-anchor="start" x="479.5" y="-249" font-family="Helvetica,sans-Serif" font-size="10.00">examples/esp32/main</text>
<text text-anchor="middle" x="545" y="-238" font-family="Helvetica,sans-Serif" font-size="10.00">/max22200_diagnostic.cpp</text>
</a>
</g>
</g>
<!-- Node2 -->
<g id="Node000002" class="node">
<title>Node2</title>
<g id="a_Node000002"><a xlink:title=" ">
<polygon fill="#e0e0e0" stroke="#999999" points="206,-195 144,-195 144,-176 206,-176 206,-195"/>
<text text-anchor="middle" x="175" y="-183" font-family="Helvetica,sans-Serif" font-size="10.00">cinttypes</text>
</a>
</g>
</g>
<!-- Node1&#45;&gt;Node2 -->
<g id="edge1_Node000001_Node000002" class="edge">
<title>Node1&#45;&gt;Node2</title>
<g id="a_edge1_Node000001_Node000002"><a xlink:title=" ">
<path fill="none" stroke="#63b8ff" d="M471.31,-234.39C405.36,-224.73 306.09,-209.75 220,-195 218.9,-194.81 217.79,-194.62 216.67,-194.42"/>
<polygon fill="#63b8ff" stroke="#63b8ff" points="216.91,-190.91 206.45,-192.58 215.67,-197.8 216.91,-190.91"/>
</a>
</g>
</g>
<!-- Node3 -->
<g id="Node000003" class="node">
<title>Node3</title>
<g id="a_Node000003"><a xlink:title=" ">
<polygon fill="#e0e0e0" stroke="#999999" points="46,-134.5 0,-134.5 0,-115.5 46,-115.5 46,-134.5"/>
<text text-anchor="middle" x="23" y="-122.5" font-family="Helvetica,sans-Serif" font-size="10.00">cstdio</text>
</a>
</g>
</g>
<!-- Node1&#45;&gt;Node3 -->
<g id="edge2_Node000001_Node000003" class="edge">
<title>Node1&#45;&gt;Node3</title>
<g id="a_edge2_Node000001_Node000003"><a xlink:title=" ">
<path fill="none" stroke="#63b8ff" d="M471.46,-239.92C410.21,-233.98 321.45,-221.36 248,-195 232.07,-189.28 230.77,-182.15 215,-176 147.09,-149.52 124.26,-162.71 55,-140 53.56,-139.53 52.1,-139.01 50.63,-138.47"/>
<polygon fill="#63b8ff" stroke="#63b8ff" points="51.63,-135.1 41.04,-134.61 49.01,-141.59 51.63,-135.1"/>
</a>
</g>
</g>
<!-- Node4 -->
<g id="Node000004" class="node">
<title>Node4</title>
<g id="a_Node000004"><a xlink:title=" ">
<polygon fill="#e0e0e0" stroke="#999999" points="122,-134.5 64,-134.5 64,-115.5 122,-115.5 122,-134.5"/>
<text text-anchor="middle" x="93" y="-122.5" font-family="Helvetica,sans-Serif" font-size="10.00">memory</text>
</a>
</g>
</g>
<!-- Node1&#45;&gt;Node4 -->
<g id="edge3_Node000001_Node000004" class="edge">
<title>Node1&#45;&gt;Node4</title>
<g id="a_edge3_Node000001_Node000004"><a xlink:title=" ">
<path fill="none" stroke="#63b8ff" d="M471.34,-236.24C418.74,-228.67 346.82,-215.64 286,-195 268.12,-188.93 265.53,-183.02 248,-176 197.5,-155.77 182.54,-157.41 131,-140 129.15,-139.38 127.26,-138.72 125.35,-138.05"/>
<polygon fill="#63b8ff" stroke="#63b8ff" points="126.43,-134.72 115.84,-134.64 124.07,-141.31 126.43,-134.72"/>
</a>
</g>
</g>
<!-- Node5 -->
<g id="Node000005" class="node">
<title>Node5</title>
<g id="a_Node000005"><a xlink:title=" ">
<polygon fill="#e0e0e0" stroke="#999999" points="1581.5,-195 1468.5,-195 1468.5,-176 1581.5,-176 1581.5,-195"/>
<text text-anchor="middle" x="1525" y="-183" font-family="Helvetica,sans-Serif" font-size="10.00">freertos/FreeRTOS.h</text>
</a>
</g>
</g>
<!-- Node1&#45;&gt;Node5 -->
<g id="edge4_Node000001_Node000005" class="edge">
<title>Node1&#45;&gt;Node5</title>
<g id="a_edge4_Node000001_Node000005"><a xlink:title=" ">
<path fill="none" stroke="#63b8ff" d="M618.75,-242.55C773.68,-237.05 1144.21,-222.04 1454,-195 1455.47,-194.87 1456.95,-194.74 1458.45,-194.6"/>
<polygon fill="#63b8ff" stroke="#63b8ff" points="1458.85,-198.07 1468.45,-193.6 1458.16,-191.11 1458.85,-198.07"/>
</a>
</g>
</g>
<!-- Node6 -->
<g id="Node000006" class="node">
<title>Node6</title>
<g id="a_Node000006"><a xlink:title=" ">
<polygon fill="#e0e0e0" stroke="#999999" points="1688,-195 1600,-195 1600,-176 1688,-176 1688,-195"/>
<text text-anchor="middle" x="1644" y="-183" font-family="Helvetica,sans-Serif" font-size="10.00">freertos/task.h</text>
</a>
</g>
</g>
<!-- Node1&#45;&gt;Node6 -->
<g id="edge5_Node000001_Node000006" class="edge">
<title>Node1&#45;&gt;Node6</title>
<g id="a_edge5_Node000001_Node000006"><a xlink:title=" ">
<path fill="none" stroke="#63b8ff" d="M618.77,-244.29C788.44,-242.05 1219.64,-232.88 1589.7,-195.01"/>
<polygon fill="#63b8ff" stroke="#63b8ff" points="1590.21,-198.47 1599.8,-193.97 1589.5,-191.51 1590.21,-198.47"/>
</a>
</g>
</g>
<!-- Node7 -->
<g id="Node000007" class="node">
<title>Node7</title>
<g id="a_Node000007"><a xlink:title=" ">
<polygon fill="#e0e0e0" stroke="#999999" points="203.5,-134.5 140.5,-134.5 140.5,-115.5 203.5,-115.5 203.5,-134.5"/>
<text text-anchor="middle" x="172" y="-122.5" font-family="Helvetica,sans-Serif" font-size="10.00">esp_log.h</text>
</a>
</g>
</g>
<!-- Node1&#45;&gt;Node7 -->
<g id="edge6_Node000001_Node000007" class="edge">
<title>Node1&#45;&gt;Node7</title>
<g id="a_edge6_Node000001_Node000007"><a xlink:title=" ">
<path fill="none" stroke="#63b8ff" d="M471.43,-231.37C429.47,-222.74 376.2,-210.32 330,-195 326.71,-193.91 245.32,-158.21 200.67,-138.6"/>
<polygon fill="#63b8ff" stroke="#63b8ff" points="202.05,-135.38 191.49,-134.56 199.23,-141.79 202.05,-135.38"/>
</a>
</g>
</g>
<!-- Node8 -->
<g id="Node000008" class="node">
<title>Node8</title>
<g id="a_Node000008"><a xlink:title=" ">
<polygon fill="#e0e0e0" stroke="#999999" points="300,-134.5 222,-134.5 222,-115.5 300,-115.5 300,-134.5"/>
<text text-anchor="middle" x="261" y="-122.5" font-family="Helvetica,sans-Serif" font-size="10.00">driver/gpio.h</text>
</a>
</g>
</g>
<!-- Node1&#45;&gt;Node8 -->
<g id="edge7_Node000001_Node000008" class="edge">
<title>Node1&#45;&gt;Node8</title>
<g id="a_edge7_Node000001_Node000008"><a xlink:title=" ">
<path fill="none" stroke="#63b8ff" d="M476.52,-230.91C442.7,-222.68 401.79,-210.76 367,-195 334.42,-180.24 300.38,-156.32 279.94,-140.88"/>
<polygon fill="#63b8ff" stroke="#63b8ff" points="281.86,-137.95 271.8,-134.64 277.6,-143.51 281.86,-137.95"/>
</a>
</g>
</g>
<!-- Node9 -->
<g id="Node000009" class="node">
<title>Node9</title>
<g id="a_Node000009"><a xlink:href="esp32__max22200__bus_8hpp.html" target="_top" xlink:title="ESP32 SPI transport implementation for MAX22200 driver (header&#45;only)">
<polygon fill="white" stroke="#666666" points="522,-195 376,-195 376,-176 522,-176 522,-195"/>
<text text-anchor="middle" x="449" y="-183" font-family="Helvetica,sans-Serif" font-size="10.00">esp32_max22200_bus.hpp</text>
</a>
</g>
</g>
<!-- Node1&#45;&gt;Node9 -->
<g id="edge8_Node000001_Node000009" class="edge">
<title>Node1&#45;&gt;Node9</title>
<g id="a_edge8_Node000001_Node000009"><a xlink:title=" ">
<path fill="none" stroke="#63b8ff" d="M521.76,-230.84C506.6,-221.6 486.89,-209.59 471.81,-200.4"/>
<polygon fill="#63b8ff" stroke="#63b8ff" points="473.46,-197.31 463.1,-195.09 469.82,-203.29 473.46,-197.31"/>
</a>
</g>
</g>
<!-- Node13 -->
<g id="Node000013" class="node">
<title>Node13</title>
<g id="a_Node000013"><a xlink:href="esp32__max22200__test__config_8hpp.html" target="_top" xlink:title="Hardware configuration for MAX22200 driver on ESP32&#45;C6.">
<polygon fill="white" stroke="#666666" points="795.5,-140 668.5,-140 668.5,-110 795.5,-110 795.5,-140"/>
<text text-anchor="start" x="676.5" y="-128" font-family="Helvetica,sans-Serif" font-size="10.00">esp32_max22200_test</text>
<text text-anchor="middle" x="732" y="-117" font-family="Helvetica,sans-Serif" font-size="10.00">_config.hpp</text>
</a>
</g>
</g>
<!-- Node1&#45;&gt;Node13 -->
<g id="edge23_Node000001_Node000013" class="edge">
<title>Node1&#45;&gt;Node13</title>
<g id="a_edge23_Node000001_Node000013"><a xlink:title=" ">
<path fill="none" stroke="#63b8ff" d="M567.19,-230.88C600.5,-209.68 663.57,-169.55 701.29,-145.54"/>
<polygon fill="#63b8ff" stroke="#63b8ff" points="703.29,-148.42 709.84,-140.1 699.53,-142.52 703.29,-148.42"/>
</a>
</g>
</g>
<!-- Node17 -->
<g id="Node000017" class="node">
<title>Node17</title>
<g id="a_Node000017"><a xlink:href="max22200_8hpp.html" target="_top" xlink:title="Main driver class for MAX22200 octal solenoid and motor driver.">
<polygon fill="white" stroke="#666666" points="1130.5,-195 1041.5,-195 1041.5,-176 1130.5,-176 1130.5,-195"/>
<text text-anchor="middle" x="1086" y="-183" font-family="Helvetica,sans-Serif" font-size="10.00">max22200.hpp</text>
</a>
</g>
</g>
<!-- Node1&#45;&gt;Node17 -->
<g id="edge24_Node000001_Node000017" class="edge">
<title>Node1&#45;&gt;Node17</title>
<g id="a_edge24_Node000001_Node000017"><a xlink:title=" ">
<path fill="none" stroke="#63b8ff" d="M618.52,-237.05C728.6,-225.15 933.73,-202.97 1031.48,-192.4"/>
<polygon fill="#63b8ff" stroke="#63b8ff" points="1031.88,-195.87 1041.45,-191.32 1031.13,-188.91 1031.88,-195.87"/>
</a>
</g>
</g>
<!-- Node18 -->
<g id="Node000018" class="node">
<title>Node18</title>
<g id="a_Node000018"><a xlink:href="max22200__registers_8hpp.html" target="_top" xlink:title="Register definitions and constants for MAX22200 IC.">
<polygon fill="white" stroke="#666666" points="1470.5,-74 1333.5,-74 1333.5,-55 1470.5,-55 1470.5,-74"/>
<text text-anchor="middle" x="1402" y="-62" font-family="Helvetica,sans-Serif" font-size="10.00">max22200_registers.hpp</text>
</a>
</g>
</g>
<!-- Node1&#45;&gt;Node18 -->
<g id="edge37_Node000001_Node000018" class="edge">
<title>Node1&#45;&gt;Node18</title>
<g id="a_edge37_Node000001_Node000018"><a xlink:title=" ">
<path fill="none" stroke="#63b8ff" d="M618.67,-243.19C737.94,-239.36 980.39,-227.92 1183,-195 1282.91,-178.77 1341.67,-219.75 1404,-140 1416.29,-124.28 1413.05,-100.46 1408.52,-84.01"/>
<polygon fill="#63b8ff" stroke="#63b8ff" points="1411.85,-82.92 1405.52,-74.42 1405.17,-85.01 1411.85,-82.92"/>
</a>
</g>
</g>
<!-- Node19 -->
<g id="Node000019" class="node">
<title>Node19</title>
<g id="a_Node000019"><a xlink:href="max22200__types_8hpp.html" target="_top" xlink:title="Type definitions and structures for MAX22200 driver.">
<polygon fill="white" stroke="#666666" points="1374,-134.5 1252,-134.5 1252,-115.5 1374,-115.5 1374,-134.5"/>
<text text-anchor="middle" x="1313" y="-122.5" font-family="Helvetica,sans-Serif" font-size="10.00">max22200_types.hpp</text>
</a>
</g>
</g>
<!-- Node1&#45;&gt;Node19 -->
<g id="edge38_Node000001_Node000019" class="edge">
<title>Node1&#45;&gt;Node19</title>
<g id="a_edge38_Node000001_Node000019"><a xlink:title=" ">
<path fill="none" stroke="#63b8ff" d="M618.91,-245.74C732.5,-245.33 956.12,-238.38 1140,-195 1194.42,-182.16 1254.26,-155.18 1287.37,-139.03"/>
<polygon fill="#63b8ff" stroke="#63b8ff" points="1288.94,-142.15 1296.36,-134.58 1285.84,-135.87 1288.94,-142.15"/>
</a>
</g>
</g>
<!-- Node9&#45;&gt;Node3 -->
<g id="edge20_Node000009_Node000003" class="edge">
<title>Node9&#45;&gt;Node3</title>
<g id="a_edge20_Node000009_Node000003"><a xlink:title=" ">
<path fill="none" stroke="#63b8ff" d="M375.89,-182.77C295.86,-179.38 164.36,-169.38 55,-140 53.11,-139.49 51.19,-138.89 49.28,-138.23"/>
<polygon fill="#63b8ff" stroke="#63b8ff" points="50.52,-134.95 39.93,-134.53 47.94,-141.46 50.52,-134.95"/>
</a>
</g>
</g>
<!-- Node9&#45;&gt;Node4 -->
<g id="edge22_Node000009_Node000004" class="edge">
<title>Node9&#45;&gt;Node4</title>
<g id="a_edge22_Node000009_Node000004"><a xlink:title=" ">
<path fill="none" stroke="#63b8ff" d="M375.84,-178.74C310.84,-172.57 213.59,-160.74 131,-140 128.49,-139.37 125.92,-138.63 123.36,-137.83"/>
<polygon fill="#63b8ff" stroke="#63b8ff" points="124.25,-134.44 113.65,-134.52 121.99,-141.06 124.25,-134.44"/>
</a>
</g>
</g>
<!-- Node9&#45;&gt;Node7 -->
<g id="edge16_Node000009_Node000007" class="edge">
<title>Node9&#45;&gt;Node7</title>
<g id="a_edge16_Node000009_Node000007"><a xlink:title=" ">
<path fill="none" stroke="#63b8ff" d="M391.26,-175.97C343.16,-168.31 273.07,-155.83 213,-140 210.36,-139.31 207.65,-138.53 204.94,-137.7"/>
<polygon fill="#63b8ff" stroke="#63b8ff" points="205.83,-134.31 195.24,-134.58 203.69,-140.98 205.83,-134.31"/>
</a>
</g>
</g>
<!-- Node9&#45;&gt;Node8 -->
<g id="edge14_Node000009_Node000008" class="edge">
<title>Node9&#45;&gt;Node8</title>
<g id="a_edge14_Node000009_Node000008"><a xlink:title=" ">
<path fill="none" stroke="#63b8ff" d="M421.66,-175.99C389.08,-165.86 334.49,-148.87 298.11,-137.55"/>
<polygon fill="#63b8ff" stroke="#63b8ff" points="298.96,-134.15 288.37,-134.52 296.88,-140.83 298.96,-134.15"/>
</a>
</g>
</g>
<!-- Node10 -->
<g id="Node000010" class="node">
<title>Node10</title>
<g id="a_Node000010"><a xlink:href="max22200__spi__interface_8hpp.html" target="_top" xlink:title="CRTP&#45;based template interface for SPI communication.">
<polygon fill="white" stroke="#666666" points="926.5,-140 813.5,-140 813.5,-110 926.5,-110 926.5,-140"/>
<text text-anchor="start" x="821.5" y="-128" font-family="Helvetica,sans-Serif" font-size="10.00">../../../inc/max22200</text>
<text text-anchor="middle" x="870" y="-117" font-family="Helvetica,sans-Serif" font-size="10.00">_spi_interface.hpp</text>
</a>
</g>
</g>
<!-- Node9&#45;&gt;Node10 -->
<g id="edge9_Node000009_Node000010" class="edge">
<title>Node9&#45;&gt;Node10</title>
<g id="a_edge9_Node000009_Node000010"><a xlink:title=" ">
<path fill="none" stroke="#63b8ff" d="M522.23,-177.25C592.14,-169.89 700.63,-157.35 803.41,-140.19"/>
<polygon fill="#63b8ff" stroke="#63b8ff" points="804.06,-143.63 813.34,-138.51 802.89,-136.72 804.06,-143.63"/>
</a>
</g>
</g>
<!-- Node11 -->
<g id="Node000011" class="node">
<title>Node11</title>
<g id="a_Node000011"><a xlink:title=" ">
<polygon fill="#e0e0e0" stroke="#999999" points="583.5,-74 530.5,-74 530.5,-55 583.5,-55 583.5,-74"/>
<text text-anchor="middle" x="557" y="-62" font-family="Helvetica,sans-Serif" font-size="10.00">cstddef</text>
</a>
</g>
</g>
<!-- Node9&#45;&gt;Node11 -->
<g id="edge18_Node000009_Node000011" class="edge">
<title>Node9&#45;&gt;Node11</title>
<g id="a_edge18_Node000009_Node000011"><a xlink:title=" ">
<path fill="none" stroke="#63b8ff" d="M427.21,-175.87C412.36,-168.69 393.84,-156.91 385,-140 378.82,-128.18 376.84,-120.54 385,-110 401.42,-88.79 474.94,-75.86 520.38,-69.75"/>
<polygon fill="#63b8ff" stroke="#63b8ff" points="520.98,-73.2 530.45,-68.44 520.08,-66.26 520.98,-73.2"/>
</a>
</g>
</g>
<!-- Node12 -->
<g id="Node000012" class="node">
<title>Node12</title>
<g id="a_Node000012"><a xlink:title=" ">
<polygon fill="#e0e0e0" stroke="#999999" points="1042,-19 992,-19 992,0 1042,0 1042,-19"/>
<text text-anchor="middle" x="1017" y="-7" font-family="Helvetica,sans-Serif" font-size="10.00">cstdint</text>
</a>
</g>
</g>
<!-- Node9&#45;&gt;Node12 -->
<g id="edge19_Node000009_Node000012" class="edge">
<title>Node9&#45;&gt;Node12</title>
<g id="a_edge19_Node000009_Node000012"><a xlink:title=" ">
<path fill="none" stroke="#63b8ff" d="M422.43,-175.94C405.87,-169.06 385.88,-157.6 376,-140 369.47,-128.37 368.43,-120.97 376,-110 415.15,-53.28 453.83,-70.45 521,-55 690.51,-16.02 899.92,-10.82 981.83,-10.39"/>
<polygon fill="#63b8ff" stroke="#63b8ff" points="981.86,-13.89 991.85,-10.35 981.84,-6.89 981.86,-13.89"/>
</a>
</g>
</g>
<!-- Node9&#45;&gt;Node13 -->
<g id="edge12_Node000009_Node000013" class="edge">
<title>Node9&#45;&gt;Node13</title>
<g id="a_edge12_Node000009_Node000013"><a xlink:title=" ">
<path fill="none" stroke="#63b8ff" d="M490.15,-175.99C534.17,-166.89 604.88,-152.28 658.49,-141.19"/>
<polygon fill="#63b8ff" stroke="#63b8ff" points="659.21,-144.62 668.3,-139.17 657.8,-137.77 659.21,-144.62"/>
</a>
</g>
</g>
<!-- Node14 -->
<g id="Node000014" class="node">
<title>Node14</title>
<g id="a_Node000014"><a xlink:title=" ">
<polygon fill="#e0e0e0" stroke="#999999" points="504,-134.5 394,-134.5 394,-115.5 504,-115.5 504,-134.5"/>
<text text-anchor="middle" x="449" y="-122.5" font-family="Helvetica,sans-Serif" font-size="10.00">driver/spi_master.h</text>
</a>
</g>
</g>
<!-- Node9&#45;&gt;Node14 -->
<g id="edge15_Node000009_Node000014" class="edge">
<title>Node9&#45;&gt;Node14</title>
<g id="a_edge15_Node000009_Node000014"><a xlink:title=" ">
<path fill="none" stroke="#63b8ff" d="M449,-175.87C449,-167.75 449,-155.31 449,-144.89"/>
<polygon fill="#63b8ff" stroke="#63b8ff" points="452.5,-144.67 449,-134.67 445.5,-144.67 452.5,-144.67"/>
</a>
</g>
</g>
<!-- Node15 -->
<g id="Node000015" class="node">
<title>Node15</title>
<g id="a_Node000015"><a xlink:title=" ">
<polygon fill="#e0e0e0" stroke="#999999" points="611.5,-134.5 522.5,-134.5 522.5,-115.5 611.5,-115.5 611.5,-134.5"/>
<text text-anchor="middle" x="567" y="-122.5" font-family="Helvetica,sans-Serif" font-size="10.00">esp_rom_sys.h</text>
</a>
</g>
</g>
<!-- Node9&#45;&gt;Node15 -->
<g id="edge17_Node000009_Node000015" class="edge">
<title>Node9&#45;&gt;Node15</title>
<g id="a_edge17_Node000009_Node000015"><a xlink:title=" ">
<path fill="none" stroke="#63b8ff" d="M466.16,-175.99C485.73,-166.29 517.97,-150.31 540.72,-139.03"/>
<polygon fill="#63b8ff" stroke="#63b8ff" points="542.42,-142.09 549.82,-134.52 539.31,-135.82 542.42,-142.09"/>
</a>
</g>
</g>
<!-- Node16 -->
<g id="Node000016" class="node">
<title>Node16</title>
<g id="a_Node000016"><a xlink:title=" ">
<polygon fill="#e0e0e0" stroke="#999999" points="865,-74 815,-74 815,-55 865,-55 865,-74"/>
<text text-anchor="middle" x="840" y="-62" font-family="Helvetica,sans-Serif" font-size="10.00">cstring</text>
</a>
</g>
</g>
<!-- Node9&#45;&gt;Node16 -->
<g id="edge21_Node000009_Node000016" class="edge">
<title>Node9&#45;&gt;Node16</title>
<g id="a_edge21_Node000009_Node000016"><a xlink:title=" ">
<path fill="none" stroke="#63b8ff" d="M504.11,-175.97C538.63,-169.25 583.35,-157.94 620,-140 639.64,-130.39 639.29,-119.48 659,-110 706.71,-87.05 767.37,-75.26 804.94,-69.74"/>
<polygon fill="#63b8ff" stroke="#63b8ff" points="805.48,-73.19 814.89,-68.34 804.5,-66.26 805.48,-73.19"/>
</a>
</g>
</g>
<!-- Node10&#45;&gt;Node11 -->
<g id="edge10_Node000010_Node000011" class="edge">
<title>Node10&#45;&gt;Node11</title>
<g id="a_edge10_Node000010_Node000011"><a xlink:title=" ">
<path fill="none" stroke="#63b8ff" d="M813.3,-111.67C810.5,-111.1 807.72,-110.54 805,-110 730.23,-95.25 642.37,-79.96 593.87,-71.71"/>
<polygon fill="#63b8ff" stroke="#63b8ff" points="594.29,-68.23 583.85,-70 593.12,-75.13 594.29,-68.23"/>
</a>
</g>
</g>
<!-- Node10&#45;&gt;Node12 -->
<g id="edge11_Node000010_Node000012" class="edge">
<title>Node10&#45;&gt;Node12</title>
<g id="a_edge11_Node000010_Node000012"><a xlink:title=" ">
<path fill="none" stroke="#63b8ff" d="M888.32,-109.85C916.22,-88.31 969.12,-47.47 997.63,-25.46"/>
<polygon fill="#63b8ff" stroke="#63b8ff" points="999.86,-28.15 1005.64,-19.27 995.59,-22.61 999.86,-28.15"/>
</a>
</g>
</g>
<!-- Node13&#45;&gt;Node12 -->
<g id="edge13_Node000013_Node000012" class="edge">
<title>Node13&#45;&gt;Node12</title>
<g id="a_edge13_Node000013_Node000012"><a xlink:title=" ">
<path fill="none" stroke="#63b8ff" d="M742.94,-109.97C756.13,-94.07 779.81,-68.6 806,-55 862.93,-25.42 938.19,-15.5 981.73,-12.18"/>
<polygon fill="#63b8ff" stroke="#63b8ff" points="982.09,-15.66 991.83,-11.48 981.61,-8.68 982.09,-15.66"/>
</a>
</g>
</g>
<!-- Node17&#45;&gt;Node10 -->
<g id="edge31_Node000017_Node000010" class="edge">
<title>Node17&#45;&gt;Node10</title>
<g id="a_edge31_Node000017_Node000010"><a xlink:title=" ">
<path fill="none" stroke="#63b8ff" d="M1054.59,-175.99C1022.49,-167.3 971.78,-153.57 931.63,-142.69"/>
<polygon fill="#63b8ff" stroke="#63b8ff" points="932.5,-139.3 921.93,-140.06 930.67,-146.06 932.5,-139.3"/>
</a>
</g>
</g>
<!-- Node17&#45;&gt;Node12 -->
<g id="edge33_Node000017_Node000012" class="edge">
<title>Node17&#45;&gt;Node12</title>
<g id="a_edge33_Node000017_Node000012"><a xlink:title=" ">
<path fill="none" stroke="#63b8ff" d="M1084.38,-175.6C1081.65,-161.43 1075.6,-133.01 1067,-110 1055.88,-80.24 1038.43,-47.68 1027.36,-28.18"/>
<polygon fill="#63b8ff" stroke="#63b8ff" points="1030.24,-26.18 1022.22,-19.26 1024.18,-29.67 1030.24,-26.18"/>
</a>
</g>
</g>
<!-- Node17&#45;&gt;Node18 -->
<g id="edge25_Node000017_Node000018" class="edge">
<title>Node17&#45;&gt;Node18</title>
<g id="a_edge25_Node000017_Node000018"><a xlink:title=" ">
<path fill="none" stroke="#63b8ff" d="M1130.62,-183.69C1204.27,-181.41 1346.74,-172.77 1383,-140 1398.37,-126.11 1402.09,-101.68 1402.63,-84.6"/>
<polygon fill="#63b8ff" stroke="#63b8ff" points="1406.13,-84.15 1402.61,-74.16 1399.13,-84.17 1406.13,-84.15"/>
</a>
</g>
</g>
<!-- Node17&#45;&gt;Node19 -->
<g id="edge27_Node000017_Node000019" class="edge">
<title>Node17&#45;&gt;Node19</title>
<g id="a_edge27_Node000017_Node000019"><a xlink:title=" ">
<path fill="none" stroke="#63b8ff" d="M1119.01,-175.99C1158.94,-165.7 1226.24,-148.36 1270.14,-137.04"/>
<polygon fill="#63b8ff" stroke="#63b8ff" points="1271.14,-140.4 1279.95,-134.52 1269.4,-133.62 1271.14,-140.4"/>
</a>
</g>
</g>
<!-- Node21 -->
<g id="Node000021" class="node">
<title>Node21</title>
<g id="a_Node000021"><a xlink:title=" ">
<polygon fill="#e0e0e0" stroke="#999999" points="1233.5,-134.5 1114.5,-134.5 1114.5,-115.5 1233.5,-115.5 1233.5,-134.5"/>
<text text-anchor="middle" x="1174" y="-122.5" font-family="Helvetica,sans-Serif" font-size="10.00">max22200_version.h</text>
</a>
</g>
</g>
<!-- Node17&#45;&gt;Node21 -->
<g id="edge32_Node000017_Node000021" class="edge">
<title>Node17&#45;&gt;Node21</title>
<g id="a_edge32_Node000017_Node000021"><a xlink:title=" ">
<path fill="none" stroke="#63b8ff" d="M1098.98,-175.87C1113.02,-166.54 1135.63,-151.51 1152.36,-140.38"/>
<polygon fill="#63b8ff" stroke="#63b8ff" points="1154.57,-143.12 1160.96,-134.67 1150.7,-137.29 1154.57,-143.12"/>
</a>
</g>
</g>
<!-- Node22 -->
<g id="Node000022" class="node">
<title>Node22</title>
<g id="a_Node000022"><a xlink:href="max22200_8ipp.html" target="_top" xlink:title="Template implementation for MAX22200 driver.">
<polygon fill="white" stroke="#666666" points="1057.5,-134.5 944.5,-134.5 944.5,-115.5 1057.5,-115.5 1057.5,-134.5"/>
<text text-anchor="middle" x="1001" y="-122.5" font-family="Helvetica,sans-Serif" font-size="10.00">../src/max22200.ipp</text>
</a>
</g>
</g>
<!-- Node17&#45;&gt;Node22 -->
<g id="edge34_Node000017_Node000022" class="edge">
<title>Node17&#45;&gt;Node22</title>
<g id="a_edge34_Node000017_Node000022"><a xlink:title=" ">
<path fill="none" stroke="#63b8ff" d="M1073.46,-175.87C1059.9,-166.54 1038.06,-151.51 1021.9,-140.38"/>
<polygon fill="#63b8ff" stroke="#63b8ff" points="1023.82,-137.45 1013.59,-134.67 1019.85,-143.22 1023.82,-137.45"/>
</a>
</g>
</g>
<!-- Node18&#45;&gt;Node12 -->
<g id="edge26_Node000018_Node000012" class="edge">
<title>Node18&#45;&gt;Node12</title>
<g id="a_edge26_Node000018_Node000012"><a xlink:title=" ">
<path fill="none" stroke="#63b8ff" d="M1340.14,-54.98C1258.6,-43.76 1117.83,-24.38 1052.37,-15.37"/>
<polygon fill="#63b8ff" stroke="#63b8ff" points="1052.55,-11.86 1042.16,-13.96 1051.59,-18.79 1052.55,-11.86"/>
</a>
</g>
</g>
<!-- Node19&#45;&gt;Node12 -->
<g id="edge30_Node000019_Node000012" class="edge">
<title>Node19&#45;&gt;Node12</title>
<g id="a_edge30_Node000019_Node000012"><a xlink:title=" ">
<path fill="none" stroke="#63b8ff" d="M1290.75,-115.47C1238.79,-95.54 1109.29,-45.89 1048.92,-22.74"/>
<polygon fill="#63b8ff" stroke="#63b8ff" points="1050.1,-19.44 1039.51,-19.13 1047.59,-25.98 1050.1,-19.44"/>
</a>
</g>
</g>
<!-- Node19&#45;&gt;Node18 -->
<g id="edge28_Node000019_Node000018" class="edge">
<title>Node19&#45;&gt;Node18</title>
<g id="a_edge28_Node000019_Node000018"><a xlink:title=" ">
<path fill="none" stroke="#63b8ff" d="M1326.13,-115.37C1340.33,-106.04 1363.2,-91.01 1380.12,-79.88"/>
<polygon fill="#63b8ff" stroke="#63b8ff" points="1382.38,-82.58 1388.81,-74.17 1378.53,-76.74 1382.38,-82.58"/>
</a>
</g>
</g>
<!-- Node20 -->
<g id="Node000020" class="node">
<title>Node20</title>
<g id="a_Node000020"><a xlink:title=" ">
<polygon fill="#e0e0e0" stroke="#999999" points="1315,-74 1273,-74 1273,-55 1315,-55 1315,-74"/>
<text text-anchor="middle" x="1294" y="-62" font-family="Helvetica,sans-Serif" font-size="10.00">array</text>
</a>
</g>
</g>
<!-- Node19&#45;&gt;Node20 -->
<g id="edge29_Node000019_Node000020" class="edge">
<title>Node19&#45;&gt;Node20</title>
<g id="a_edge29_Node000019_Node000020"><a xlink:title=" ">
<path fill="none" stroke="#63b8ff" d="M1310.2,-115.37C1307.5,-107.07 1303.35,-94.28 1299.92,-83.72"/>
<polygon fill="#63b8ff" stroke="#63b8ff" points="1303.23,-82.6 1296.82,-74.17 1296.58,-84.76 1303.23,-82.6"/>
</a>
</g>
</g>
<!-- Node22&#45;&gt;Node16 -->
<g id="edge36_Node000022_Node000016" class="edge">
<title>Node22&#45;&gt;Node16</title>
<g id="a_edge36_Node000022_Node000016"><a xlink:title=" ">
<path fill="none" stroke="#63b8ff" d="M977.59,-115.49C950.05,-105.49 904.13,-88.8 872.99,-77.49"/>
<polygon fill="#63b8ff" stroke="#63b8ff" points="874.03,-74.14 863.44,-74.02 871.64,-80.72 874.03,-74.14"/>
</a>
</g>
</g>
<!-- Node23 -->
<g id="Node000023" class="node">
<title>Node23</title>
<g id="a_Node000023"><a xlink:title=" ">
<polygon fill="#e0e0e0" stroke="#999999" points="1024.5,-74 977.5,-74 977.5,-55 1024.5,-55 1024.5,-74"/>
<text text-anchor="middle" x="1001" y="-62" font-family="Helvetica,sans-Serif" font-size="10.00">cmath</text>
</a>
</g>
</g>
<!-- Node22&#45;&gt;Node23 -->
<g id="edge35_Node000022_Node000023" class="edge">
<title>Node22&#45;&gt;Node23</title>
<g id="a_edge35_Node000022_Node000023"><a xlink:title=" ">
<path fill="none" stroke="#63b8ff" d="M1001,-115.37C1001,-107.25 1001,-94.81 1001,-84.39"/>
<polygon fill="#63b8ff" stroke="#63b8ff" points="1004.5,-84.17 1001,-74.17 997.5,-84.17 1004.5,-84.17"/>
</a>
</g>
</g>
</g>
</svg>
