<?xml version="1.0" encoding="UTF-8" standalone="no"?>
<!DOCTYPE svg PUBLIC "-//W3C//DTD SVG 1.1//EN"
 "http://www.w3.org/Graphics/SVG/1.1/DTD/svg11.dtd">
<!-- Generated by graphviz version 2.43.0 (0)
 -->
<!-- Title: inc/max22200_types.hpp Pages: 1 -->
<svg width="328pt" height="159pt"
 viewBox="0.00 0.00 328.00 159.00" xmlns="http://www.w3.org/2000/svg" xmlns:xlink="http://www.w3.org/1999/xlink">
<g id="graph0" class="graph" transform="scale(1 1) rotate(0) translate(4 155)">
<title>inc/max22200_types.hpp</title>
<!-- Node1 -->
<g id="Node000001" class="node">
<title>Node1</title>
<g id="a_Node000001"><a xlink:title="Type definitions and structures for MAX22200 driver.">
<polygon fill="#999999" stroke="#666666" points="230.5,-151 91.5,-151 91.5,-132 230.5,-132 230.5,-151"/>
<text text-anchor="middle" x="161" y="-139" font-family="Helvetica,sans-Serif" font-size="10.00">inc/max22200_types.hpp</text>
</a>
</g>
</g>
<!-- Node2 -->
<g id="Node000002" class="node">
<title>Node2</title>
<g id="a_Node000002"><a xlink:href="max22200__comprehensive__test_8cpp.html" target="_top" xlink:title="Comprehensive test suite for MAX22200 driver on ESP32.">
<polygon fill="white" stroke="#666666" points="152,-41 0,-41 0,0 152,0 152,-41"/>
<text text-anchor="start" x="8" y="-29" font-family="Helvetica,sans-Serif" font-size="10.00">examples/esp32/main</text>
<text text-anchor="start" x="8" y="-18" font-family="Helvetica,sans-Serif" font-size="10.00">/max22200_comprehensive</text>
<text text-anchor="middle" x="76" y="-7" font-family="Helvetica,sans-Serif" font-size="10.00">_test.cpp</text>
</a>
</g>
</g>
<!-- Node1&#45;&gt;Node2 -->
<g id="edge1_Node000001_Node000002" class="edge">
<title>Node1&#45;&gt;Node2</title>
<g id="a_edge1_Node000001_Node000002"><a xlink:title=" ">
<path fill="none" stroke="#63b8ff" d="M134.32,-126.7C122,-119.12 108.13,-108.68 99,-96 87.22,-79.63 81.36,-57.08 78.52,-41.09"/>
<polygon fill="#63b8ff" stroke="#63b8ff" points="132.92,-129.93 143.32,-131.92 136.43,-123.88 132.92,-129.93"/>
</a>
</g>
</g>
<!-- Node3 -->
<g id="Node000003" class="node">
<title>Node3</title>
<g id="a_Node000003"><a xlink:href="max22200__solenoid__valve__test_8cpp.html" target="_top" xlink:title="Dedicated solenoid/valve test for MAX22200 driver on ESP32.">
<polygon fill="white" stroke="#666666" points="320,-41 170,-41 170,0 320,0 320,-41"/>
<text text-anchor="start" x="178" y="-29" font-family="Helvetica,sans-Serif" font-size="10.00">examples/esp32/main</text>
<text text-anchor="start" x="178" y="-18" font-family="Helvetica,sans-Serif" font-size="10.00">/max22200_solenoid_valve</text>
<text text-anchor="middle" x="245" y="-7" font-family="Helvetica,sans-Serif" font-size="10.00">_test.cpp</text>
</a>
</g>
</g>
<!-- Node1&#45;&gt;Node3 -->
<g id="edge2_Node000001_Node000003" class="edge">
<title>Node1&#45;&gt;Node3</title>
<g id="a_edge2_Node000001_Node000003"><a xlink:title=" ">
<path fill="none" stroke="#63b8ff" d="M187.75,-126.75C200.08,-119.18 213.95,-108.74 223,-96 234.64,-79.62 240.18,-57.07 242.78,-41.08"/>
<polygon fill="#63b8ff" stroke="#63b8ff" points="185.64,-123.93 178.73,-131.96 189.14,-129.99 185.64,-123.93"/>
</a>
</g>
</g>
<!-- Node4 -->
<g id="Node000004" class="node">
<title>Node4</title>
<g id="a_Node000004"><a xlink:href="max22200_8hpp.html" target="_top" xlink:title="Main driver class for MAX22200 octal solenoid and motor driver.">
<polygon fill="white" stroke="#666666" points="214.5,-96 107.5,-96 107.5,-77 214.5,-77 214.5,-96"/>
<text text-anchor="middle" x="161" y="-84" font-family="Helvetica,sans-Serif" font-size="10.00">inc/max22200.hpp</text>
</a>
</g>
</g>
<!-- Node1&#45;&gt;Node4 -->
<g id="edge3_Node000001_Node000004" class="edge">
<title>Node1&#45;&gt;Node4</title>
<g id="a_edge3_Node000001_Node000004"><a xlink:title=" ">
<path fill="none" stroke="#63b8ff" d="M161,-121.66C161,-112.93 161,-102.99 161,-96.09"/>
<polygon fill="#63b8ff" stroke="#63b8ff" points="157.5,-121.75 161,-131.75 164.5,-121.75 157.5,-121.75"/>
</a>
</g>
</g>
<!-- Node4&#45;&gt;Node2 -->
<g id="edge4_Node000004_Node000002" class="edge">
<title>Node4&#45;&gt;Node2</title>
<g id="a_edge4_Node000004_Node000002"><a xlink:title=" ">
<path fill="none" stroke="#63b8ff" d="M141.31,-70.67C129.59,-61.85 114.58,-50.55 101.91,-41.01"/>
<polygon fill="#63b8ff" stroke="#63b8ff" points="139.44,-73.65 149.54,-76.87 143.65,-68.06 139.44,-73.65"/>
</a>
</g>
</g>
<!-- Node4&#45;&gt;Node3 -->
<g id="edge5_Node000004_Node000003" class="edge">
<title>Node4&#45;&gt;Node3</title>
<g id="a_edge5_Node000004_Node000003"><a xlink:title=" ">
<path fill="none" stroke="#63b8ff" d="M180.46,-70.67C192.04,-61.85 206.87,-50.55 219.39,-41.01"/>
<polygon fill="#63b8ff" stroke="#63b8ff" points="178.16,-68.02 172.33,-76.87 182.4,-73.59 178.16,-68.02"/>
</a>
</g>
</g>
</g>
</svg>
