<?xml version="1.0" encoding="UTF-8" standalone="no"?>
<!DOCTYPE svg PUBLIC "-//W3C//DTD SVG 1.1//EN"
 "http://www.w3.org/Graphics/SVG/1.1/DTD/svg11.dtd">
<!-- Generated by graphviz version 2.43.0 (0)
 -->
<!-- Title: src/max22200.ipp Pages: 1 -->
<svg width="800pt" height="159pt"
 viewBox="0.00 0.00 799.50 159.00" xmlns="http://www.w3.org/2000/svg" xmlns:xlink="http://www.w3.org/1999/xlink">
<g id="graph0" class="graph" transform="scale(1 1) rotate(0) translate(4 155)">
<title>src/max22200.ipp</title>
<!-- Node1 -->
<g id="Node000001" class="node">
<title>Node1</title>
<g id="a_Node000001"><a xlink:title="Template implementation for MAX22200 driver.">
<polygon fill="#999999" stroke="#666666" points="433.5,-151 329.5,-151 329.5,-132 433.5,-132 433.5,-151"/>
<text text-anchor="middle" x="381.5" y="-139" font-family="Helvetica,sans-Serif" font-size="10.00">src/max22200.ipp</text>
</a>
</g>
</g>
<!-- Node2 -->
<g id="Node000002" class="node">
<title>Node2</title>
<g id="a_Node000002"><a xlink:href="max22200_8hpp.html" target="_top" xlink:title="Main driver class for MAX22200 octal solenoid and motor driver.">
<polygon fill="white" stroke="#666666" points="435,-96 328,-96 328,-77 435,-77 435,-96"/>
<text text-anchor="middle" x="381.5" y="-84" font-family="Helvetica,sans-Serif" font-size="10.00">inc/max22200.hpp</text>
</a>
</g>
</g>
<!-- Node1&#45;&gt;Node2 -->
<g id="edge1_Node000001_Node000002" class="edge">
<title>Node1&#45;&gt;Node2</title>
<g id="a_edge1_Node000001_Node000002"><a xlink:title=" ">
<path fill="none" stroke="#63b8ff" d="M381.5,-121.66C381.5,-112.93 381.5,-102.99 381.5,-96.09"/>
<polygon fill="#63b8ff" stroke="#63b8ff" points="378,-121.75 381.5,-131.75 385,-121.75 378,-121.75"/>
</a>
</g>
</g>
<!-- Node3 -->
<g id="Node000003" class="node">
<title>Node3</title>
<g id="a_Node000003"><a xlink:href="c21__cycle__test_8cpp.html" target="_top" xlink:title="Real&#45;hardware Parker C21 24 V solenoid cycle test on MAX22200 CH0.">
<polygon fill="white" stroke="#666666" points="125,-35.5 0,-35.5 0,-5.5 125,-5.5 125,-35.5"/>
<text text-anchor="start" x="8" y="-23.5" font-family="Helvetica,sans-Serif" font-size="10.00">examples/esp32/main</text>
<text text-anchor="middle" x="62.5" y="-12.5" font-family="Helvetica,sans-Serif" font-size="10.00">/c21_cycle_test.cpp</text>
</a>
</g>
</g>
<!-- Node2&#45;&gt;Node3 -->
<g id="edge2_Node000002_Node000003" class="edge">
<title>Node2&#45;&gt;Node3</title>
<g id="a_edge2_Node000002_Node000003"><a xlink:title=" ">
<path fill="none" stroke="#63b8ff" d="M317.72,-75.56C267.66,-67.39 196.34,-54.92 134.5,-41 127.3,-39.38 119.73,-37.51 112.33,-35.59"/>
<polygon fill="#63b8ff" stroke="#63b8ff" points="317.32,-79.04 327.75,-77.19 318.44,-72.13 317.32,-79.04"/>
</a>
</g>
</g>
<!-- Node4 -->
<g id="Node000004" class="node">
<title>Node4</title>
<g id="a_Node000004"><a xlink:href="c21__dpm__tuning__test_8cpp.html" target="_top" xlink:title="DPM (Detection of Plunger Movement) tuning + CSV&#45;logging cycle test.">
<polygon fill="white" stroke="#666666" points="287.5,-35.5 143.5,-35.5 143.5,-5.5 287.5,-5.5 287.5,-35.5"/>
<text text-anchor="start" x="151.5" y="-23.5" font-family="Helvetica,sans-Serif" font-size="10.00">examples/esp32/main</text>
<text text-anchor="middle" x="215.5" y="-12.5" font-family="Helvetica,sans-Serif" font-size="10.00">/c21_dpm_tuning_test.cpp</text>
</a>
</g>
</g>
<!-- Node2&#45;&gt;Node4 -->
<g id="edge3_Node000002_Node000004" class="edge">
<title>Node2&#45;&gt;Node4</title>
<g id="a_edge3_Node000002_Node000004"><a xlink:title=" ">
<path fill="none" stroke="#63b8ff" d="M349.46,-73.15C321.6,-62.4 281.24,-46.85 252.11,-35.62"/>
<polygon fill="#63b8ff" stroke="#63b8ff" points="348.52,-76.54 359.11,-76.87 351.04,-70.01 348.52,-76.54"/>
</a>
</g>
</g>
<!-- Node5 -->
<g id="Node000005" class="node">
<title>Node5</title>
<g id="a_Node000005"><a xlink:href="max22200__comprehensive__test_8cpp.html" target="_top" xlink:title="Comprehensive test suite for MAX22200 driver on ESP32.">
<polygon fill="white" stroke="#666666" points="457.5,-41 305.5,-41 305.5,0 457.5,0 457.5,-41"/>
<text text-anchor="start" x="313.5" y="-29" font-family="Helvetica,sans-Serif" font-size="10.00">examples/esp32/main</text>
<text text-anchor="start" x="313.5" y="-18" font-family="Helvetica,sans-Serif" font-size="10.00">/max22200_comprehensive</text>
<text text-anchor="middle" x="381.5" y="-7" font-family="Helvetica,sans-Serif" font-size="10.00">_test.cpp</text>
</a>
</g>
</g>
<!-- Node2&#45;&gt;Node5 -->
<g id="edge4_Node000002_Node000005" class="edge">
<title>Node2&#45;&gt;Node5</title>
<g id="a_edge4_Node000002_Node000005"><a xlink:title=" ">
<path fill="none" stroke="#63b8ff" d="M381.5,-66.63C381.5,-58.56 381.5,-49.15 381.5,-41.01"/>
<polygon fill="#63b8ff" stroke="#63b8ff" points="378,-66.87 381.5,-76.87 385,-66.87 378,-66.87"/>
</a>
</g>
</g>
<!-- Node6 -->
<g id="Node000006" class="node">
<title>Node6</title>
<g id="a_Node000006"><a xlink:href="max22200__diagnostic_8cpp.html" target="_top" xlink:title="End&#45;to&#45;end MAX22200 health&#45;check on real hardware.">
<polygon fill="white" stroke="#666666" points="623,-35.5 476,-35.5 476,-5.5 623,-5.5 623,-35.5"/>
<text text-anchor="start" x="484" y="-23.5" font-family="Helvetica,sans-Serif" font-size="10.00">examples/esp32/main</text>
<text text-anchor="middle" x="549.5" y="-12.5" font-family="Helvetica,sans-Serif" font-size="10.00">/max22200_diagnostic.cpp</text>
</a>
</g>
</g>
<!-- Node2&#45;&gt;Node6 -->
<g id="edge5_Node000002_Node000006" class="edge">
<title>Node2&#45;&gt;Node6</title>
<g id="a_edge5_Node000002_Node000006"><a xlink:title=" ">
<path fill="none" stroke="#63b8ff" d="M413.56,-73.29C441.77,-62.54 482.84,-46.9 512.45,-35.62"/>
<polygon fill="#63b8ff" stroke="#63b8ff" points="412.26,-70.04 404.16,-76.87 414.75,-76.58 412.26,-70.04"/>
</a>
</g>
</g>
<!-- Node7 -->
<g id="Node000007" class="node">
<title>Node7</title>
<g id="a_Node000007"><a xlink:href="max22200__solenoid__valve__test_8cpp.html" target="_top" xlink:title="Dedicated solenoid/valve test for MAX22200 driver on ESP32.">
<polygon fill="white" stroke="#666666" points="791.5,-41 641.5,-41 641.5,0 791.5,0 791.5,-41"/>
<text text-anchor="start" x="649.5" y="-29" font-family="Helvetica,sans-Serif" font-size="10.00">examples/esp32/main</text>
<text text-anchor="start" x="649.5" y="-18" font-family="Helvetica,sans-Serif" font-size="10.00">/max22200_solenoid_valve</text>
<text text-anchor="middle" x="716.5" y="-7" font-family="Helvetica,sans-Serif" font-size="10.00">_test.cpp</text>
</a>
</g>
</g>
<!-- Node2&#45;&gt;Node7 -->
<g id="edge6_Node000002_Node000007" class="edge">
<title>Node2&#45;&gt;Node7</title>
<g id="a_edge6_Node000002_Node000007"><a xlink:title=" ">
<path fill="none" stroke="#63b8ff" d="M444.72,-75.24C495.58,-66.76 568.82,-54.03 632.5,-41 635.43,-40.4 638.42,-39.77 641.44,-39.13"/>
<polygon fill="#63b8ff" stroke="#63b8ff" points="443.83,-71.84 434.54,-76.93 444.98,-78.74 443.83,-71.84"/>
</a>
</g>
</g>
</g>
</svg>
