<?xml version="1.0" encoding="UTF-8" standalone="no"?>
<!DOCTYPE svg PUBLIC "-//W3C//DTD SVG 1.1//EN"
 "http://www.w3.org/Graphics/SVG/1.1/DTD/svg11.dtd">
<!-- Generated by graphviz version 2.43.0 (0)
 -->
<!-- Title: inc/max22200_spi_interface.hpp Pages: 1 -->
<svg width="324pt" height="170pt"
 viewBox="0.00 0.00 324.00 170.00" xmlns="http://www.w3.org/2000/svg" xmlns:xlink="http://www.w3.org/1999/xlink">
<g id="graph0" class="graph" transform="scale(1 1) rotate(0) translate(4 166)">
<title>inc/max22200_spi_interface.hpp</title>
<!-- Node1 -->
<g id="Node000001" class="node">
<title>Node1</title>
<g id="a_Node000001"><a xlink:title="CRTP&#45;based template interface for SPI communication.">
<polygon fill="#999999" stroke="#666666" points="254.5,-162 79.5,-162 79.5,-143 254.5,-143 254.5,-162"/>
<text text-anchor="middle" x="167" y="-150" font-family="Helvetica,sans-Serif" font-size="10.00">inc/max22200_spi_interface.hpp</text>
</a>
</g>
</g>
<!-- Node2 -->
<g id="Node000002" class="node">
<title>Node2</title>
<g id="a_Node000002"><a xlink:href="esp32__max22200__spi_8hpp.html" target="_top" xlink:title="ESP32 SPI transport implementation for MAX22200 driver.">
<polygon fill="white" stroke="#666666" points="168,-107 22,-107 22,-77 168,-77 168,-107"/>
<text text-anchor="start" x="30" y="-95" font-family="Helvetica,sans-Serif" font-size="10.00">examples/esp32/main</text>
<text text-anchor="middle" x="95" y="-84" font-family="Helvetica,sans-Serif" font-size="10.00">/esp32_max22200_spi.hpp</text>
</a>
</g>
</g>
<!-- Node1&#45;&gt;Node2 -->
<g id="edge1_Node000001_Node000002" class="edge">
<title>Node1&#45;&gt;Node2</title>
<g id="a_edge1_Node000001_Node000002"><a xlink:title=" ">
<path fill="none" stroke="#63b8ff" d="M148.54,-136.5C137.4,-127.45 123.31,-116 112.37,-107.11"/>
<polygon fill="#63b8ff" stroke="#63b8ff" points="146.41,-139.28 156.38,-142.87 150.82,-133.85 146.41,-139.28"/>
</a>
</g>
</g>
<!-- Node5 -->
<g id="Node000005" class="node">
<title>Node5</title>
<g id="a_Node000005"><a xlink:href="max22200_8hpp.html" target="_top" xlink:title="Main driver class for MAX22200 octal solenoid and motor driver.">
<polygon fill="white" stroke="#666666" points="293.5,-101.5 186.5,-101.5 186.5,-82.5 293.5,-82.5 293.5,-101.5"/>
<text text-anchor="middle" x="240" y="-89.5" font-family="Helvetica,sans-Serif" font-size="10.00">inc/max22200.hpp</text>
</a>
</g>
</g>
<!-- Node1&#45;&gt;Node5 -->
<g id="edge4_Node000001_Node000005" class="edge">
<title>Node1&#45;&gt;Node5</title>
<g id="a_edge4_Node000001_Node000005"><a xlink:title=" ">
<path fill="none" stroke="#63b8ff" d="M185.67,-136.54C199.46,-125.49 217.74,-110.84 229.18,-101.67"/>
<polygon fill="#63b8ff" stroke="#63b8ff" points="183.39,-133.88 177.77,-142.87 187.76,-139.35 183.39,-133.88"/>
</a>
</g>
</g>
<!-- Node3 -->
<g id="Node000003" class="node">
<title>Node3</title>
<g id="a_Node000003"><a xlink:href="esp32__max22200__spi_8cpp.html" target="_top" xlink:title="ESP32 SPI transport implementation for MAX22200 driver.">
<polygon fill="white" stroke="#666666" points="146,-35.5 0,-35.5 0,-5.5 146,-5.5 146,-35.5"/>
<text text-anchor="start" x="8" y="-23.5" font-family="Helvetica,sans-Serif" font-size="10.00">examples/esp32/main</text>
<text text-anchor="middle" x="73" y="-12.5" font-family="Helvetica,sans-Serif" font-size="10.00">/esp32_max22200_spi.cpp</text>
</a>
</g>
</g>
<!-- Node2&#45;&gt;Node3 -->
<g id="edge2_Node000002_Node000003" class="edge">
<title>Node2&#45;&gt;Node3</title>
<g id="a_edge2_Node000002_Node000003"><a xlink:title=" ">
<path fill="none" stroke="#63b8ff" d="M87.43,-67.08C84.1,-56.56 80.31,-44.58 77.45,-35.54"/>
<polygon fill="#63b8ff" stroke="#63b8ff" points="84.19,-68.46 90.55,-76.94 90.87,-66.35 84.19,-68.46"/>
</a>
</g>
</g>
<!-- Node4 -->
<g id="Node000004" class="node">
<title>Node4</title>
<g id="a_Node000004"><a xlink:href="max22200__comprehensive__test_8cpp.html" target="_top" xlink:title="Comprehensive test suite for MAX22200 driver on ESP32&#45;C6.">
<polygon fill="white" stroke="#666666" points="316,-41 164,-41 164,0 316,0 316,-41"/>
<text text-anchor="start" x="172" y="-29" font-family="Helvetica,sans-Serif" font-size="10.00">examples/esp32/main</text>
<text text-anchor="start" x="172" y="-18" font-family="Helvetica,sans-Serif" font-size="10.00">/max22200_comprehensive</text>
<text text-anchor="middle" x="240" y="-7" font-family="Helvetica,sans-Serif" font-size="10.00">_test.cpp</text>
</a>
</g>
</g>
<!-- Node2&#45;&gt;Node4 -->
<g id="edge3_Node000002_Node000004" class="edge">
<title>Node2&#45;&gt;Node4</title>
<g id="a_edge3_Node000002_Node000004"><a xlink:title=" ">
<path fill="none" stroke="#63b8ff" d="M133.58,-72.51C153.82,-62.81 178.6,-50.93 199.16,-41.07"/>
<polygon fill="#63b8ff" stroke="#63b8ff" points="131.85,-69.46 124.34,-76.94 134.87,-75.77 131.85,-69.46"/>
</a>
</g>
</g>
<!-- Node5&#45;&gt;Node4 -->
<g id="edge5_Node000005_Node000004" class="edge">
<title>Node5&#45;&gt;Node4</title>
<g id="a_edge5_Node000005_Node000004"><a xlink:title=" ">
<path fill="none" stroke="#63b8ff" d="M240,-72.38C240,-62.74 240,-50.96 240,-41.17"/>
<polygon fill="#63b8ff" stroke="#63b8ff" points="236.5,-72.48 240,-82.48 243.5,-72.48 236.5,-72.48"/>
</a>
</g>
</g>
</g>
</svg>
