<?xml version="1.0" encoding="UTF-8" standalone="no"?>
<!DOCTYPE svg PUBLIC "-//W3C//DTD SVG 1.1//EN"
 "http://www.w3.org/Graphics/SVG/1.1/DTD/svg11.dtd">
<!-- Generated by graphviz version 2.43.0 (0)
 -->
<!-- Title: inc/max22200_registers.hpp Pages: 1 -->
<svg width="471pt" height="214pt"
 viewBox="0.00 0.00 471.00 214.00" xmlns="http://www.w3.org/2000/svg" xmlns:xlink="http://www.w3.org/1999/xlink">
<g id="graph0" class="graph" transform="scale(1 1) rotate(0) translate(4 210)">
<title>inc/max22200_registers.hpp</title>
<!-- Node1 -->
<g id="Node000001" class="node">
<title>Node1</title>
<g id="a_Node000001"><a xlink:title="Register definitions and constants for MAX22200 IC.">
<polygon fill="#999999" stroke="#666666" points="367.5,-206 212.5,-206 212.5,-187 367.5,-187 367.5,-206"/>
<text text-anchor="middle" x="290" y="-194" font-family="Helvetica,sans-Serif" font-size="10.00">inc/max22200_registers.hpp</text>
</a>
</g>
</g>
<!-- Node2 -->
<g id="Node000002" class="node">
<title>Node2</title>
<g id="a_Node000002"><a xlink:href="c21__cycle__test_8cpp.html" target="_top" xlink:title="Real&#45;hardware Parker C21 24 V solenoid cycle test on MAX22200 CH0.">
<polygon fill="white" stroke="#666666" points="292.5,-35.5 167.5,-35.5 167.5,-5.5 292.5,-5.5 292.5,-35.5"/>
<text text-anchor="start" x="175.5" y="-23.5" font-family="Helvetica,sans-Serif" font-size="10.00">examples/esp32/main</text>
<text text-anchor="middle" x="230" y="-12.5" font-family="Helvetica,sans-Serif" font-size="10.00">/c21_cycle_test.cpp</text>
</a>
</g>
</g>
<!-- Node1&#45;&gt;Node2 -->
<g id="edge1_Node000001_Node000002" class="edge">
<title>Node1&#45;&gt;Node2</title>
<g id="a_edge1_Node000001_Node000002"><a xlink:title=" ">
<path fill="none" stroke="#63b8ff" d="M295.23,-177.02C301.03,-152.84 307.77,-109.7 293,-77 285.08,-59.47 268.58,-45.26 254.45,-35.61"/>
<polygon fill="#63b8ff" stroke="#63b8ff" points="291.77,-176.4 292.63,-186.96 298.54,-178.17 291.77,-176.4"/>
</a>
</g>
</g>
<!-- Node3 -->
<g id="Node000003" class="node">
<title>Node3</title>
<g id="a_Node000003"><a xlink:href="max22200__comprehensive__test_8cpp.html" target="_top" xlink:title="Comprehensive test suite for MAX22200 driver on ESP32.">
<polygon fill="white" stroke="#666666" points="463,-41 311,-41 311,0 463,0 463,-41"/>
<text text-anchor="start" x="319" y="-29" font-family="Helvetica,sans-Serif" font-size="10.00">examples/esp32/main</text>
<text text-anchor="start" x="319" y="-18" font-family="Helvetica,sans-Serif" font-size="10.00">/max22200_comprehensive</text>
<text text-anchor="middle" x="387" y="-7" font-family="Helvetica,sans-Serif" font-size="10.00">_test.cpp</text>
</a>
</g>
</g>
<!-- Node1&#45;&gt;Node3 -->
<g id="edge2_Node000001_Node000003" class="edge">
<title>Node1&#45;&gt;Node3</title>
<g id="a_edge2_Node000001_Node000003"><a xlink:title=" ">
<path fill="none" stroke="#63b8ff" d="M299.91,-177.73C318.17,-144.96 357.03,-75.26 376.05,-41.14"/>
<polygon fill="#63b8ff" stroke="#63b8ff" points="296.76,-176.19 294.94,-186.63 302.87,-179.6 296.76,-176.19"/>
</a>
</g>
</g>
<!-- Node4 -->
<g id="Node000004" class="node">
<title>Node4</title>
<g id="a_Node000004"><a xlink:href="max22200__solenoid__valve__test_8cpp.html" target="_top" xlink:title="Dedicated solenoid/valve test for MAX22200 driver on ESP32.">
<polygon fill="white" stroke="#666666" points="150,-41 0,-41 0,0 150,0 150,-41"/>
<text text-anchor="start" x="8" y="-29" font-family="Helvetica,sans-Serif" font-size="10.00">examples/esp32/main</text>
<text text-anchor="start" x="8" y="-18" font-family="Helvetica,sans-Serif" font-size="10.00">/max22200_solenoid_valve</text>
<text text-anchor="middle" x="75" y="-7" font-family="Helvetica,sans-Serif" font-size="10.00">_test.cpp</text>
</a>
</g>
</g>
<!-- Node1&#45;&gt;Node4 -->
<g id="edge3_Node000001_Node000004" class="edge">
<title>Node1&#45;&gt;Node4</title>
<g id="a_edge3_Node000001_Node000004"><a xlink:title=" ">
<path fill="none" stroke="#63b8ff" d="M202.39,-190.98C171.03,-185.19 137.64,-173.6 114,-151 83.45,-121.79 76.58,-69.64 75.19,-41.24"/>
<polygon fill="#63b8ff" stroke="#63b8ff" points="202.04,-194.47 212.48,-192.67 203.19,-187.57 202.04,-194.47"/>
</a>
</g>
</g>
<!-- Node5 -->
<g id="Node000005" class="node">
<title>Node5</title>
<g id="a_Node000005"><a xlink:href="max22200_8hpp.html" target="_top" xlink:title="Main driver class for MAX22200 octal solenoid and motor driver.">
<polygon fill="white" stroke="#666666" points="283.5,-96 176.5,-96 176.5,-77 283.5,-77 283.5,-96"/>
<text text-anchor="middle" x="230" y="-84" font-family="Helvetica,sans-Serif" font-size="10.00">inc/max22200.hpp</text>
</a>
</g>
</g>
<!-- Node1&#45;&gt;Node5 -->
<g id="edge4_Node000001_Node000005" class="edge">
<title>Node1&#45;&gt;Node5</title>
<g id="a_edge4_Node000001_Node000005"><a xlink:title=" ">
<path fill="none" stroke="#63b8ff" d="M286.69,-176.6C283.85,-163.48 278.93,-145.92 271,-132 262.89,-117.76 249.44,-104.35 240.17,-96.05"/>
<polygon fill="#63b8ff" stroke="#63b8ff" points="283.33,-177.65 288.68,-186.79 290.2,-176.31 283.33,-177.65"/>
</a>
</g>
</g>
<!-- Node6 -->
<g id="Node000006" class="node">
<title>Node6</title>
<g id="a_Node000006"><a xlink:href="max22200__types_8hpp.html" target="_top" xlink:title="Type definitions and structures for MAX22200 driver.">
<polygon fill="white" stroke="#666666" points="261.5,-151 122.5,-151 122.5,-132 261.5,-132 261.5,-151"/>
<text text-anchor="middle" x="192" y="-139" font-family="Helvetica,sans-Serif" font-size="10.00">inc/max22200_types.hpp</text>
</a>
</g>
</g>
<!-- Node1&#45;&gt;Node6 -->
<g id="edge8_Node000001_Node000006" class="edge">
<title>Node1&#45;&gt;Node6</title>
<g id="a_edge8_Node000001_Node000006"><a xlink:title=" ">
<path fill="none" stroke="#63b8ff" d="M264.97,-181.97C247.06,-172.28 223.47,-159.52 208.03,-151.17"/>
<polygon fill="#63b8ff" stroke="#63b8ff" points="263.79,-185.31 274.25,-186.98 267.12,-179.15 263.79,-185.31"/>
</a>
</g>
</g>
<!-- Node5&#45;&gt;Node2 -->
<g id="edge5_Node000005_Node000002" class="edge">
<title>Node5&#45;&gt;Node2</title>
<g id="a_edge5_Node000005_Node000002"><a xlink:title=" ">
<path fill="none" stroke="#63b8ff" d="M230,-66.85C230,-56.97 230,-45.01 230,-35.86"/>
<polygon fill="#63b8ff" stroke="#63b8ff" points="226.5,-66.87 230,-76.87 233.5,-66.87 226.5,-66.87"/>
</a>
</g>
</g>
<!-- Node5&#45;&gt;Node3 -->
<g id="edge6_Node000005_Node000003" class="edge">
<title>Node5&#45;&gt;Node3</title>
<g id="a_edge6_Node000005_Node000003"><a xlink:title=" ">
<path fill="none" stroke="#63b8ff" d="M260.49,-73.07C282.82,-63.97 313.55,-51.44 339.14,-41.01"/>
<polygon fill="#63b8ff" stroke="#63b8ff" points="259.11,-69.85 251.17,-76.87 261.76,-76.33 259.11,-69.85"/>
</a>
</g>
</g>
<!-- Node5&#45;&gt;Node4 -->
<g id="edge7_Node000005_Node000004" class="edge">
<title>Node5&#45;&gt;Node4</title>
<g id="a_edge7_Node000005_Node000004"><a xlink:title=" ">
<path fill="none" stroke="#63b8ff" d="M199.6,-72.95C177.58,-63.86 147.4,-51.39 122.25,-41.01"/>
<polygon fill="#63b8ff" stroke="#63b8ff" points="198.52,-76.29 209.1,-76.87 201.19,-69.82 198.52,-76.29"/>
</a>
</g>
</g>
<!-- Node6&#45;&gt;Node2 -->
<g id="edge9_Node000006_Node000002" class="edge">
<title>Node6&#45;&gt;Node2</title>
<g id="a_edge9_Node000006_Node000002"><a xlink:title=" ">
<path fill="none" stroke="#63b8ff" d="M178.12,-123.36C169.44,-110.46 161.11,-92.41 168,-77 175.78,-59.59 192.02,-45.38 205.93,-35.7"/>
<polygon fill="#63b8ff" stroke="#63b8ff" points="175.54,-125.76 184.29,-131.74 181.18,-121.61 175.54,-125.76"/>
</a>
</g>
</g>
<!-- Node6&#45;&gt;Node3 -->
<g id="edge10_Node000006_Node000003" class="edge">
<title>Node6&#45;&gt;Node3</title>
<g id="a_edge10_Node000006_Node000003"><a xlink:title=" ">
<path fill="none" stroke="#63b8ff" d="M225.52,-128.23C245.71,-120.25 271.57,-108.92 293,-96 319.57,-79.98 347.05,-57.37 365.39,-41.27"/>
<polygon fill="#63b8ff" stroke="#63b8ff" points="224.17,-125 216.11,-131.88 226.7,-131.53 224.17,-125"/>
</a>
</g>
</g>
<!-- Node6&#45;&gt;Node4 -->
<g id="edge11_Node000006_Node000004" class="edge">
<title>Node6&#45;&gt;Node4</title>
<g id="a_edge11_Node000006_Node000004"><a xlink:title=" ">
<path fill="none" stroke="#63b8ff" d="M176.34,-124.57C155.13,-103 117.3,-64.52 94.34,-41.17"/>
<polygon fill="#63b8ff" stroke="#63b8ff" points="174.08,-127.26 183.59,-131.94 179.07,-122.36 174.08,-127.26"/>
</a>
</g>
</g>
<!-- Node6&#45;&gt;Node5 -->
<g id="edge12_Node000006_Node000005" class="edge">
<title>Node6&#45;&gt;Node5</title>
<g id="a_edge12_Node000006_Node000005"><a xlink:title=" ">
<path fill="none" stroke="#63b8ff" d="M204.27,-123.39C210.81,-114.27 218.57,-103.45 223.84,-96.09"/>
<polygon fill="#63b8ff" stroke="#63b8ff" points="201.26,-121.58 198.27,-131.75 206.95,-125.66 201.26,-121.58"/>
</a>
</g>
</g>
</g>
</svg>
