<?xml version="1.0" encoding="UTF-8" standalone="no"?>
<!DOCTYPE svg PUBLIC "-//W3C//DTD SVG 1.1//EN"
 "http://www.w3.org/Graphics/SVG/1.1/DTD/svg11.dtd">
<!-- Generated by graphviz version 2.43.0 (0)
 -->
<!-- Title: inc/MAX22200_Registers.h Pages: 1 -->
<svg width="322pt" height="203pt"
 viewBox="0.00 0.00 321.50 203.00" xmlns="http://www.w3.org/2000/svg" xmlns:xlink="http://www.w3.org/1999/xlink">
<g id="graph0" class="graph" transform="scale(1 1) rotate(0) translate(4 199)">
<title>inc/MAX22200_Registers.h</title>
<!-- Node1 -->
<g id="Node000001" class="node">
<title>Node1</title>
<g id="a_Node000001"><a xlink:title="Register definitions and constants for MAX22200 IC.">
<polygon fill="#999999" stroke="#666666" points="250,-195 104,-195 104,-176 250,-176 250,-195"/>
<text text-anchor="middle" x="177" y="-183" font-family="Helvetica,sans-Serif" font-size="10.00">inc/MAX22200_Registers.h</text>
</a>
</g>
</g>
<!-- Node2 -->
<g id="Node000002" class="node">
<title>Node2</title>
<g id="a_Node000002"><a xlink:href="MAX22200_8h.html" target="_top" xlink:title="Main driver class for MAX22200 octal solenoid and motor driver.">
<polygon fill="white" stroke="#666666" points="224.5,-85 129.5,-85 129.5,-66 224.5,-66 224.5,-85"/>
<text text-anchor="middle" x="177" y="-73" font-family="Helvetica,sans-Serif" font-size="10.00">inc/MAX22200.h</text>
</a>
</g>
</g>
<!-- Node1&#45;&gt;Node2 -->
<g id="edge1_Node000001_Node000002" class="edge">
<title>Node1&#45;&gt;Node2</title>
<g id="a_edge1_Node000001_Node000002"><a xlink:title=" ">
<path fill="none" stroke="#63b8ff" d="M163.79,-167.68C158.39,-159.75 152.76,-149.88 150,-140 144.32,-119.7 159.21,-97.3 169.07,-85.28"/>
<polygon fill="#63b8ff" stroke="#63b8ff" points="161.13,-169.96 169.85,-175.97 166.78,-165.83 161.13,-169.96"/>
</a>
</g>
</g>
<!-- Node5 -->
<g id="Node000005" class="node">
<title>Node5</title>
<g id="a_Node000005"><a xlink:href="MAX22200__Types_8h.html" target="_top" xlink:title="Type definitions and structures for MAX22200 driver.">
<polygon fill="white" stroke="#666666" points="287,-140 159,-140 159,-121 287,-121 287,-140"/>
<text text-anchor="middle" x="223" y="-128" font-family="Helvetica,sans-Serif" font-size="10.00">inc/MAX22200_Types.h</text>
</a>
</g>
</g>
<!-- Node1&#45;&gt;Node5 -->
<g id="edge4_Node000001_Node000005" class="edge">
<title>Node1&#45;&gt;Node5</title>
<g id="a_edge4_Node000001_Node000005"><a xlink:title=" ">
<path fill="none" stroke="#63b8ff" d="M191.36,-167.96C199.37,-158.72 209.03,-147.6 215.55,-140.09"/>
<polygon fill="#63b8ff" stroke="#63b8ff" points="188.51,-165.9 184.6,-175.75 193.79,-170.49 188.51,-165.9"/>
</a>
</g>
</g>
<!-- Node3 -->
<g id="Node000003" class="node">
<title>Node3</title>
<g id="a_Node000003"><a xlink:href="MAX22200ComprehensiveTest_8cpp.html" target="_top" xlink:title="Comprehensive test suite for MAX22200 driver on ESP32&#45;C6.">
<polygon fill="white" stroke="#666666" points="188,-30 0,-30 0,0 188,0 188,-30"/>
<text text-anchor="start" x="8" y="-18" font-family="Helvetica,sans-Serif" font-size="10.00">examples/esp32/main</text>
<text text-anchor="middle" x="94" y="-7" font-family="Helvetica,sans-Serif" font-size="10.00">/MAX22200ComprehensiveTest.cpp</text>
</a>
</g>
</g>
<!-- Node2&#45;&gt;Node3 -->
<g id="edge2_Node000002_Node000003" class="edge">
<title>Node2&#45;&gt;Node3</title>
<g id="a_edge2_Node000002_Node000003"><a xlink:title=" ">
<path fill="none" stroke="#63b8ff" d="M156.47,-60.03C143.52,-50.9 126.88,-39.17 114.03,-30.11"/>
<polygon fill="#63b8ff" stroke="#63b8ff" points="154.56,-62.97 164.75,-65.87 158.6,-57.25 154.56,-62.97"/>
</a>
</g>
</g>
<!-- Node4 -->
<g id="Node000004" class="node">
<title>Node4</title>
<g id="a_Node000004"><a xlink:href="MAX22200_8cpp.html" target="_top" xlink:title="Implementation of MAX22200 driver class.">
<polygon fill="white" stroke="#666666" points="313.5,-24.5 206.5,-24.5 206.5,-5.5 313.5,-5.5 313.5,-24.5"/>
<text text-anchor="middle" x="260" y="-12.5" font-family="Helvetica,sans-Serif" font-size="10.00">src/MAX22200.cpp</text>
</a>
</g>
</g>
<!-- Node2&#45;&gt;Node4 -->
<g id="edge3_Node000002_Node000004" class="edge">
<title>Node2&#45;&gt;Node4</title>
<g id="a_edge3_Node000002_Node000004"><a xlink:title=" ">
<path fill="none" stroke="#63b8ff" d="M197.79,-59.85C213.51,-48.77 234.56,-33.93 247.7,-24.67"/>
<polygon fill="#63b8ff" stroke="#63b8ff" points="195.4,-57.25 189.25,-65.87 199.44,-62.97 195.4,-57.25"/>
</a>
</g>
</g>
<!-- Node5&#45;&gt;Node2 -->
<g id="edge5_Node000005_Node000002" class="edge">
<title>Node5&#45;&gt;Node2</title>
<g id="a_edge5_Node000005_Node000002"><a xlink:title=" ">
<path fill="none" stroke="#63b8ff" d="M208.64,-112.96C200.63,-103.72 190.97,-92.6 184.45,-85.09"/>
<polygon fill="#63b8ff" stroke="#63b8ff" points="206.21,-115.49 215.4,-120.75 211.49,-110.9 206.21,-115.49"/>
</a>
</g>
</g>
</g>
</svg>
