<?xml version="1.0" encoding="UTF-8" standalone="no"?>
<!DOCTYPE svg PUBLIC "-//W3C//DTD SVG 1.1//EN"
 "http://www.w3.org/Graphics/SVG/1.1/DTD/svg11.dtd">
<!-- Generated by graphviz version 2.43.0 (0)
 -->
<!-- Title: inc/max22200_spi_interface.hpp Pages: 1 -->
<svg width="480pt" height="170pt"
 viewBox="0.00 0.00 480.00 170.00" xmlns="http://www.w3.org/2000/svg" xmlns:xlink="http://www.w3.org/1999/xlink">
<g id="graph0" class="graph" transform="scale(1 1) rotate(0) translate(4 166)">
<title>inc/max22200_spi_interface.hpp</title>
<!-- Node1 -->
<g id="Node000001" class="node">
<title>Node1</title>
<g id="a_Node000001"><a xlink:title="CRTP&#45;based template interface for SPI communication.">
<polygon fill="#999999" stroke="#666666" points="320.5,-162 145.5,-162 145.5,-143 320.5,-143 320.5,-162"/>
<text text-anchor="middle" x="233" y="-150" font-family="Helvetica,sans-Serif" font-size="10.00">inc/max22200_spi_interface.hpp</text>
</a>
</g>
</g>
<!-- Node2 -->
<g id="Node000002" class="node">
<title>Node2</title>
<g id="a_Node000002"><a xlink:href="esp32__max22200__bus_8hpp.html" target="_top" xlink:title="ESP32 SPI transport implementation for MAX22200 driver (header&#45;only)">
<polygon fill="white" stroke="#666666" points="307.5,-107 158.5,-107 158.5,-77 307.5,-77 307.5,-107"/>
<text text-anchor="start" x="166.5" y="-95" font-family="Helvetica,sans-Serif" font-size="10.00">examples/esp32/main</text>
<text text-anchor="middle" x="233" y="-84" font-family="Helvetica,sans-Serif" font-size="10.00">/esp32_max22200_bus.hpp</text>
</a>
</g>
</g>
<!-- Node1&#45;&gt;Node2 -->
<g id="edge1_Node000001_Node000002" class="edge">
<title>Node1&#45;&gt;Node2</title>
<g id="a_edge1_Node000001_Node000002"><a xlink:title=" ">
<path fill="none" stroke="#63b8ff" d="M233,-132.65C233,-124.36 233,-114.78 233,-107.11"/>
<polygon fill="#63b8ff" stroke="#63b8ff" points="229.5,-132.87 233,-142.87 236.5,-132.87 229.5,-132.87"/>
</a>
</g>
</g>
<!-- Node5 -->
<g id="Node000005" class="node">
<title>Node5</title>
<g id="a_Node000005"><a xlink:href="esp32__max22200__spi_8hpp.html" target="_top" xlink:title="ESP32 SPI transport implementation for MAX22200 driver (header&#45;only)">
<polygon fill="white" stroke="#666666" points="472,-107 326,-107 326,-77 472,-77 472,-107"/>
<text text-anchor="start" x="334" y="-95" font-family="Helvetica,sans-Serif" font-size="10.00">examples/esp32/main</text>
<text text-anchor="middle" x="399" y="-84" font-family="Helvetica,sans-Serif" font-size="10.00">/esp32_max22200_spi.hpp</text>
</a>
</g>
</g>
<!-- Node1&#45;&gt;Node5 -->
<g id="edge4_Node000001_Node000005" class="edge">
<title>Node1&#45;&gt;Node5</title>
<g id="a_edge4_Node000001_Node000005"><a xlink:title=" ">
<path fill="none" stroke="#63b8ff" d="M266.82,-139.58C293.54,-130.16 330.9,-117 359.09,-107.06"/>
<polygon fill="#63b8ff" stroke="#63b8ff" points="265.41,-136.37 257.14,-142.99 267.73,-142.97 265.41,-136.37"/>
</a>
</g>
</g>
<!-- Node6 -->
<g id="Node000006" class="node">
<title>Node6</title>
<g id="a_Node000006"><a xlink:href="max22200_8hpp.html" target="_top" xlink:title="Main driver class for MAX22200 octal solenoid and motor driver.">
<polygon fill="white" stroke="#666666" points="140.5,-101.5 33.5,-101.5 33.5,-82.5 140.5,-82.5 140.5,-101.5"/>
<text text-anchor="middle" x="87" y="-89.5" font-family="Helvetica,sans-Serif" font-size="10.00">inc/max22200.hpp</text>
</a>
</g>
</g>
<!-- Node1&#45;&gt;Node6 -->
<g id="edge5_Node000001_Node000006" class="edge">
<title>Node1&#45;&gt;Node6</title>
<g id="a_edge5_Node000001_Node000006"><a xlink:title=" ">
<path fill="none" stroke="#63b8ff" d="M202.38,-139.23C174.16,-127.92 133.03,-111.44 108.26,-101.52"/>
<polygon fill="#63b8ff" stroke="#63b8ff" points="201.19,-142.52 211.77,-142.99 203.79,-136.03 201.19,-142.52"/>
</a>
</g>
</g>
<!-- Node3 -->
<g id="Node000003" class="node">
<title>Node3</title>
<g id="a_Node000003"><a xlink:href="max22200__comprehensive__test_8cpp.html" target="_top" xlink:title="Comprehensive test suite for MAX22200 driver on ESP32.">
<polygon fill="white" stroke="#666666" points="152,-41 0,-41 0,0 152,0 152,-41"/>
<text text-anchor="start" x="8" y="-29" font-family="Helvetica,sans-Serif" font-size="10.00">examples/esp32/main</text>
<text text-anchor="start" x="8" y="-18" font-family="Helvetica,sans-Serif" font-size="10.00">/max22200_comprehensive</text>
<text text-anchor="middle" x="76" y="-7" font-family="Helvetica,sans-Serif" font-size="10.00">_test.cpp</text>
</a>
</g>
</g>
<!-- Node2&#45;&gt;Node3 -->
<g id="edge2_Node000002_Node000003" class="edge">
<title>Node2&#45;&gt;Node3</title>
<g id="a_edge2_Node000002_Node000003"><a xlink:title=" ">
<path fill="none" stroke="#63b8ff" d="M191.82,-72.77C169.8,-63.02 142.68,-51.02 120.22,-41.07"/>
<polygon fill="#63b8ff" stroke="#63b8ff" points="190.67,-76.09 201.23,-76.94 193.5,-69.69 190.67,-76.09"/>
</a>
</g>
</g>
<!-- Node4 -->
<g id="Node000004" class="node">
<title>Node4</title>
<g id="a_Node000004"><a xlink:href="max22200__solenoid__valve__test_8cpp.html" target="_top" xlink:title="Dedicated solenoid/valve test for MAX22200 driver on ESP32.">
<polygon fill="white" stroke="#666666" points="320,-41 170,-41 170,0 320,0 320,-41"/>
<text text-anchor="start" x="178" y="-29" font-family="Helvetica,sans-Serif" font-size="10.00">examples/esp32/main</text>
<text text-anchor="start" x="178" y="-18" font-family="Helvetica,sans-Serif" font-size="10.00">/max22200_solenoid_valve</text>
<text text-anchor="middle" x="245" y="-7" font-family="Helvetica,sans-Serif" font-size="10.00">_test.cpp</text>
</a>
</g>
</g>
<!-- Node2&#45;&gt;Node4 -->
<g id="edge3_Node000002_Node000004" class="edge">
<title>Node2&#45;&gt;Node4</title>
<g id="a_edge3_Node000002_Node000004"><a xlink:title=" ">
<path fill="none" stroke="#63b8ff" d="M237.16,-66.91C238.62,-58.47 240.23,-49.1 241.62,-41.07"/>
<polygon fill="#63b8ff" stroke="#63b8ff" points="233.68,-66.49 235.43,-76.94 240.58,-67.68 233.68,-66.49"/>
</a>
</g>
</g>
<!-- Node6&#45;&gt;Node3 -->
<g id="edge6_Node000006_Node000003" class="edge">
<title>Node6&#45;&gt;Node3</title>
<g id="a_edge6_Node000006_Node000003"><a xlink:title=" ">
<path fill="none" stroke="#63b8ff" d="M84.05,-72.38C82.53,-62.74 80.66,-50.96 79.11,-41.17"/>
<polygon fill="#63b8ff" stroke="#63b8ff" points="80.63,-73.15 85.65,-82.48 87.54,-72.05 80.63,-73.15"/>
</a>
</g>
</g>
<!-- Node6&#45;&gt;Node4 -->
<g id="edge7_Node000006_Node000004" class="edge">
<title>Node6&#45;&gt;Node4</title>
<g id="a_edge7_Node000006_Node000004"><a xlink:title=" ">
<path fill="none" stroke="#63b8ff" d="M115.53,-78.45C139.23,-68.03 173.34,-53.02 200.61,-41.03"/>
<polygon fill="#63b8ff" stroke="#63b8ff" points="114.12,-75.25 106.37,-82.48 116.94,-81.66 114.12,-75.25"/>
</a>
</g>
</g>
</g>
</svg>
