<?xml version="1.0" encoding="UTF-8" standalone="no"?>
<!DOCTYPE svg PUBLIC "-//W3C//DTD SVG 1.1//EN"
 "http://www.w3.org/Graphics/SVG/1.1/DTD/svg11.dtd">
<!-- Generated by graphviz version 2.43.0 (0)
 -->
<!-- Title: inc/max22200_spi_interface.hpp Pages: 1 -->
<svg width="799pt" height="170pt"
 viewBox="0.00 0.00 798.50 170.00" xmlns="http://www.w3.org/2000/svg" xmlns:xlink="http://www.w3.org/1999/xlink">
<g id="graph0" class="graph" transform="scale(1 1) rotate(0) translate(4 166)">
<title>inc/max22200_spi_interface.hpp</title>
<!-- Node1 -->
<g id="Node000001" class="node">
<title>Node1</title>
<g id="a_Node000001"><a xlink:title="CRTP&#45;based template interface for SPI communication.">
<polygon fill="#999999" stroke="#666666" points="493.5,-162 318.5,-162 318.5,-143 493.5,-143 493.5,-162"/>
<text text-anchor="middle" x="406" y="-150" font-family="Helvetica,sans-Serif" font-size="10.00">inc/max22200_spi_interface.hpp</text>
</a>
</g>
</g>
<!-- Node2 -->
<g id="Node000002" class="node">
<title>Node2</title>
<g id="a_Node000002"><a xlink:href="esp32__max22200__bus_8hpp.html" target="_top" xlink:title="ESP32 SPI transport implementation for MAX22200 driver (header&#45;only)">
<polygon fill="white" stroke="#666666" points="407.5,-107 258.5,-107 258.5,-77 407.5,-77 407.5,-107"/>
<text text-anchor="start" x="266.5" y="-95" font-family="Helvetica,sans-Serif" font-size="10.00">examples/esp32/main</text>
<text text-anchor="middle" x="333" y="-84" font-family="Helvetica,sans-Serif" font-size="10.00">/esp32_max22200_bus.hpp</text>
</a>
</g>
</g>
<!-- Node1&#45;&gt;Node2 -->
<g id="edge1_Node000001_Node000002" class="edge">
<title>Node1&#45;&gt;Node2</title>
<g id="a_edge1_Node000001_Node000002"><a xlink:title=" ">
<path fill="none" stroke="#63b8ff" d="M387.28,-136.5C375.99,-127.45 361.7,-116 350.61,-107.11"/>
<polygon fill="#63b8ff" stroke="#63b8ff" points="385.24,-139.35 395.23,-142.87 389.61,-133.88 385.24,-139.35"/>
</a>
</g>
</g>
<!-- Node8 -->
<g id="Node000008" class="node">
<title>Node8</title>
<g id="a_Node000008"><a xlink:href="max22200_8hpp.html" target="_top" xlink:title="Main driver class for MAX22200 octal solenoid and motor driver.">
<polygon fill="white" stroke="#666666" points="532.5,-101.5 425.5,-101.5 425.5,-82.5 532.5,-82.5 532.5,-101.5"/>
<text text-anchor="middle" x="479" y="-89.5" font-family="Helvetica,sans-Serif" font-size="10.00">inc/max22200.hpp</text>
</a>
</g>
</g>
<!-- Node1&#45;&gt;Node8 -->
<g id="edge7_Node000001_Node000008" class="edge">
<title>Node1&#45;&gt;Node8</title>
<g id="a_edge7_Node000001_Node000008"><a xlink:title=" ">
<path fill="none" stroke="#63b8ff" d="M424.67,-136.54C438.46,-125.49 456.74,-110.84 468.18,-101.67"/>
<polygon fill="#63b8ff" stroke="#63b8ff" points="422.39,-133.88 416.77,-142.87 426.76,-139.35 422.39,-133.88"/>
</a>
</g>
</g>
<!-- Node3 -->
<g id="Node000003" class="node">
<title>Node3</title>
<g id="a_Node000003"><a xlink:href="c21__cycle__test_8cpp.html" target="_top" xlink:title="Real&#45;hardware Parker C21 24 V solenoid cycle test on MAX22200 CH0.">
<polygon fill="white" stroke="#666666" points="790.5,-35.5 665.5,-35.5 665.5,-5.5 790.5,-5.5 790.5,-35.5"/>
<text text-anchor="start" x="673.5" y="-23.5" font-family="Helvetica,sans-Serif" font-size="10.00">examples/esp32/main</text>
<text text-anchor="middle" x="728" y="-12.5" font-family="Helvetica,sans-Serif" font-size="10.00">/c21_cycle_test.cpp</text>
</a>
</g>
</g>
<!-- Node2&#45;&gt;Node3 -->
<g id="edge2_Node000002_Node000003" class="edge">
<title>Node2&#45;&gt;Node3</title>
<g id="a_edge2_Node000002_Node000003"><a xlink:title=" ">
<path fill="none" stroke="#63b8ff" d="M417.61,-76.94C525.24,-60.3 554.57,-62.67 657,-41 664.38,-39.44 672.13,-37.56 679.68,-35.6"/>
<polygon fill="#63b8ff" stroke="#63b8ff" points="416.98,-73.49 407.64,-78.49 418.07,-80.41 416.98,-73.49"/>
</a>
</g>
</g>
<!-- Node4 -->
<g id="Node000004" class="node">
<title>Node4</title>
<g id="a_Node000004"><a xlink:href="c21__dpm__tuning__test_8cpp.html" target="_top" xlink:title="DPM (Detection of Plunger Movement) tuning + CSV&#45;logging cycle test.">
<polygon fill="white" stroke="#666666" points="144,-35.5 0,-35.5 0,-5.5 144,-5.5 144,-35.5"/>
<text text-anchor="start" x="8" y="-23.5" font-family="Helvetica,sans-Serif" font-size="10.00">examples/esp32/main</text>
<text text-anchor="middle" x="72" y="-12.5" font-family="Helvetica,sans-Serif" font-size="10.00">/c21_dpm_tuning_test.cpp</text>
</a>
</g>
</g>
<!-- Node2&#45;&gt;Node4 -->
<g id="edge3_Node000002_Node000004" class="edge">
<title>Node2&#45;&gt;Node4</title>
<g id="a_edge3_Node000002_Node000004"><a xlink:title=" ">
<path fill="none" stroke="#63b8ff" d="M270.35,-74.32C225.87,-62.47 166.82,-46.75 124.74,-35.54"/>
<polygon fill="#63b8ff" stroke="#63b8ff" points="269.62,-77.74 280.18,-76.94 271.42,-70.98 269.62,-77.74"/>
</a>
</g>
</g>
<!-- Node5 -->
<g id="Node000005" class="node">
<title>Node5</title>
<g id="a_Node000005"><a xlink:href="max22200__comprehensive__test_8cpp.html" target="_top" xlink:title="Comprehensive test suite for MAX22200 driver on ESP32.">
<polygon fill="white" stroke="#666666" points="314,-41 162,-41 162,0 314,0 314,-41"/>
<text text-anchor="start" x="170" y="-29" font-family="Helvetica,sans-Serif" font-size="10.00">examples/esp32/main</text>
<text text-anchor="start" x="170" y="-18" font-family="Helvetica,sans-Serif" font-size="10.00">/max22200_comprehensive</text>
<text text-anchor="middle" x="238" y="-7" font-family="Helvetica,sans-Serif" font-size="10.00">_test.cpp</text>
</a>
</g>
</g>
<!-- Node2&#45;&gt;Node5 -->
<g id="edge4_Node000002_Node000005" class="edge">
<title>Node2&#45;&gt;Node5</title>
<g id="a_edge4_Node000002_Node000005"><a xlink:title=" ">
<path fill="none" stroke="#63b8ff" d="M305.35,-70.77C292.56,-61.42 277.43,-50.35 264.76,-41.07"/>
<polygon fill="#63b8ff" stroke="#63b8ff" points="303.64,-73.86 313.78,-76.94 307.77,-68.21 303.64,-73.86"/>
</a>
</g>
</g>
<!-- Node6 -->
<g id="Node000006" class="node">
<title>Node6</title>
<g id="a_Node000006"><a xlink:href="max22200__diagnostic_8cpp.html" target="_top" xlink:title="End&#45;to&#45;end MAX22200 health&#45;check on real hardware.">
<polygon fill="white" stroke="#666666" points="479.5,-35.5 332.5,-35.5 332.5,-5.5 479.5,-5.5 479.5,-35.5"/>
<text text-anchor="start" x="340.5" y="-23.5" font-family="Helvetica,sans-Serif" font-size="10.00">examples/esp32/main</text>
<text text-anchor="middle" x="406" y="-12.5" font-family="Helvetica,sans-Serif" font-size="10.00">/max22200_diagnostic.cpp</text>
</a>
</g>
</g>
<!-- Node2&#45;&gt;Node6 -->
<g id="edge5_Node000002_Node000006" class="edge">
<title>Node2&#45;&gt;Node6</title>
<g id="a_edge5_Node000002_Node000006"><a xlink:title=" ">
<path fill="none" stroke="#63b8ff" d="M355.07,-69.99C366.78,-58.84 380.87,-45.43 391.25,-35.54"/>
<polygon fill="#63b8ff" stroke="#63b8ff" points="352.6,-67.51 347.77,-76.94 357.43,-72.58 352.6,-67.51"/>
</a>
</g>
</g>
<!-- Node7 -->
<g id="Node000007" class="node">
<title>Node7</title>
<g id="a_Node000007"><a xlink:href="max22200__solenoid__valve__test_8cpp.html" target="_top" xlink:title="Dedicated solenoid/valve test for MAX22200 driver on ESP32.">
<polygon fill="white" stroke="#666666" points="648,-41 498,-41 498,0 648,0 648,-41"/>
<text text-anchor="start" x="506" y="-29" font-family="Helvetica,sans-Serif" font-size="10.00">examples/esp32/main</text>
<text text-anchor="start" x="506" y="-18" font-family="Helvetica,sans-Serif" font-size="10.00">/max22200_solenoid_valve</text>
<text text-anchor="middle" x="573" y="-7" font-family="Helvetica,sans-Serif" font-size="10.00">_test.cpp</text>
</a>
</g>
</g>
<!-- Node2&#45;&gt;Node7 -->
<g id="edge6_Node000002_Node000007" class="edge">
<title>Node2&#45;&gt;Node7</title>
<g id="a_edge6_Node000002_Node000007"><a xlink:title=" ">
<path fill="none" stroke="#63b8ff" d="M391.47,-74.07C425.87,-64.11 469.53,-51.46 505.41,-41.07"/>
<polygon fill="#63b8ff" stroke="#63b8ff" points="390.2,-70.79 381.57,-76.94 392.15,-77.52 390.2,-70.79"/>
</a>
</g>
</g>
<!-- Node8&#45;&gt;Node3 -->
<g id="edge8_Node000008_Node000003" class="edge">
<title>Node8&#45;&gt;Node3</title>
<g id="a_edge8_Node000008_Node000003"><a xlink:title=" ">
<path fill="none" stroke="#63b8ff" d="M519.41,-79.72C562.61,-67.66 631.19,-48.52 677.82,-35.51"/>
<polygon fill="#63b8ff" stroke="#63b8ff" points="518.22,-76.42 509.53,-82.48 520.11,-83.16 518.22,-76.42"/>
</a>
</g>
</g>
<!-- Node8&#45;&gt;Node4 -->
<g id="edge9_Node000008_Node000004" class="edge">
<title>Node8&#45;&gt;Node4</title>
<g id="a_edge9_Node000008_Node000004"><a xlink:title=" ">
<path fill="none" stroke="#63b8ff" d="M432.98,-80.31C427.28,-79.12 421.51,-77.99 416,-77 299.87,-56.19 268.94,-62.83 153,-41 144.61,-39.42 135.79,-37.53 127.18,-35.56"/>
<polygon fill="#63b8ff" stroke="#63b8ff" points="432.61,-83.81 443.12,-82.49 434.08,-76.97 432.61,-83.81"/>
</a>
</g>
</g>
<!-- Node8&#45;&gt;Node5 -->
<g id="edge10_Node000008_Node000005" class="edge">
<title>Node8&#45;&gt;Node5</title>
<g id="a_edge10_Node000008_Node000005"><a xlink:title=" ">
<path fill="none" stroke="#63b8ff" d="M439.74,-79.68C403.52,-69.23 348.96,-53.5 305.71,-41.03"/>
<polygon fill="#63b8ff" stroke="#63b8ff" points="438.87,-83.07 449.45,-82.48 440.81,-76.34 438.87,-83.07"/>
</a>
</g>
</g>
<!-- Node8&#45;&gt;Node6 -->
<g id="edge11_Node000008_Node000006" class="edge">
<title>Node8&#45;&gt;Node6</title>
<g id="a_edge11_Node000008_Node000006"><a xlink:title=" ">
<path fill="none" stroke="#63b8ff" d="M462.58,-75.37C450.06,-63.45 432.96,-47.17 420.85,-35.64"/>
<polygon fill="#63b8ff" stroke="#63b8ff" points="460.39,-78.12 470.05,-82.48 465.22,-73.05 460.39,-78.12"/>
</a>
</g>
</g>
<!-- Node8&#45;&gt;Node7 -->
<g id="edge12_Node000008_Node000007" class="edge">
<title>Node8&#45;&gt;Node7</title>
<g id="a_edge12_Node000008_Node000007"><a xlink:title=" ">
<path fill="none" stroke="#63b8ff" d="M498.84,-76.33C512.67,-66.11 531.28,-52.35 546.39,-41.17"/>
<polygon fill="#63b8ff" stroke="#63b8ff" points="496.49,-73.72 490.53,-82.48 500.65,-79.35 496.49,-73.72"/>
</a>
</g>
</g>
</g>
</svg>
