<?xml version="1.0" encoding="UTF-8" standalone="no"?>
<!DOCTYPE svg PUBLIC "-//W3C//DTD SVG 1.1//EN"
 "http://www.w3.org/Graphics/SVG/1.1/DTD/svg11.dtd">
<!-- Generated by graphviz version 2.43.0 (0)
 -->
<!-- Title: examples/esp32/main/MAX22200ComprehensiveTest.cpp Pages: 1 -->
<svg width="1113pt" height="258pt"
 viewBox="0.00 0.00 1112.53 258.00" xmlns="http://www.w3.org/2000/svg" xmlns:xlink="http://www.w3.org/1999/xlink">
<g id="graph0" class="graph" transform="scale(1 1) rotate(0) translate(4 254)">
<title>examples/esp32/main/MAX22200ComprehensiveTest.cpp</title>
<!-- Node1 -->
<g id="Node000001" class="node">
<title>Node1</title>
<g id="a_Node000001"><a xlink:title="Comprehensive test suite for MAX22200 driver on ESP32&#45;C6.">
<polygon fill="#999999" stroke="#666666" points="661.53,-250 473.53,-250 473.53,-220 661.53,-220 661.53,-250"/>
<text text-anchor="start" x="481.53" y="-238" font-family="Helvetica,sans-Serif" font-size="10.00">examples/esp32/main</text>
<text text-anchor="middle" x="567.53" y="-227" font-family="Helvetica,sans-Serif" font-size="10.00">/MAX22200ComprehensiveTest.cpp</text>
</a>
</g>
</g>
<!-- Node2 -->
<g id="Node000002" class="node">
<title>Node2</title>
<g id="a_Node000002"><a xlink:title=" ">
<polygon fill="#e0e0e0" stroke="#999999" points="149.53,-184 91.53,-184 91.53,-165 149.53,-165 149.53,-184"/>
<text text-anchor="middle" x="120.53" y="-172" font-family="Helvetica,sans-Serif" font-size="10.00">memory</text>
</a>
</g>
</g>
<!-- Node1&#45;&gt;Node2 -->
<g id="edge1_Node000001_Node000002" class="edge">
<title>Node1&#45;&gt;Node2</title>
<g id="a_edge1_Node000001_Node000002"><a xlink:title=" ">
<path fill="none" stroke="#63b8ff" d="M473.34,-225.14C392.55,-216.93 272.87,-203.32 159.8,-184.07"/>
<polygon fill="#63b8ff" stroke="#63b8ff" points="160.38,-180.62 149.94,-182.38 159.2,-187.52 160.38,-180.62"/>
</a>
</g>
</g>
<!-- Node3 -->
<g id="Node000003" class="node">
<title>Node3</title>
<g id="a_Node000003"><a xlink:href="MAX22200_8h.html" target="_top" xlink:title="Main driver class for MAX22200 octal solenoid and motor driver.">
<polygon fill="white" stroke="#666666" points="245.53,-184 167.53,-184 167.53,-165 245.53,-165 245.53,-184"/>
<text text-anchor="middle" x="206.53" y="-172" font-family="Helvetica,sans-Serif" font-size="10.00">MAX22200.h</text>
</a>
</g>
</g>
<!-- Node1&#45;&gt;Node3 -->
<g id="edge2_Node000001_Node000003" class="edge">
<title>Node1&#45;&gt;Node3</title>
<g id="a_edge2_Node000001_Node000003"><a xlink:title=" ">
<path fill="none" stroke="#63b8ff" d="M481.07,-219.99C410.62,-208.57 313.66,-192.86 255.82,-183.49"/>
<polygon fill="#63b8ff" stroke="#63b8ff" points="256.27,-180.01 245.84,-181.87 255.15,-186.92 256.27,-180.01"/>
</a>
</g>
</g>
<!-- Node11 -->
<g id="Node000011" class="node">
<title>Node11</title>
<g id="a_Node000011"><a xlink:href="TestFramework_8h.html" target="_top" xlink:title="Shared testing framework for ESP32&#45;C6 comprehensive test suites.">
<polygon fill="white" stroke="#666666" points="717.53,-184 617.53,-184 617.53,-165 717.53,-165 717.53,-184"/>
<text text-anchor="middle" x="667.53" y="-172" font-family="Helvetica,sans-Serif" font-size="10.00">TestFramework.h</text>
</a>
</g>
</g>
<!-- Node1&#45;&gt;Node11 -->
<g id="edge15_Node000001_Node000011" class="edge">
<title>Node1&#45;&gt;Node11</title>
<g id="a_edge15_Node000001_Node000011"><a xlink:title=" ">
<path fill="none" stroke="#63b8ff" d="M591.49,-219.99C607.43,-210.66 628.27,-198.47 644.1,-189.21"/>
<polygon fill="#63b8ff" stroke="#63b8ff" points="645.9,-192.21 652.77,-184.14 642.37,-186.17 645.9,-192.21"/>
</a>
</g>
</g>
<!-- Node13 -->
<g id="Node000013" class="node">
<title>Node13</title>
<g id="a_Node000013"><a xlink:title=" ">
<polygon fill="#e0e0e0" stroke="#999999" points="442.03,-129 379.03,-129 379.03,-110 442.03,-110 442.03,-129"/>
<text text-anchor="middle" x="410.53" y="-117" font-family="Helvetica,sans-Serif" font-size="10.00">esp_log.h</text>
</a>
</g>
</g>
<!-- Node1&#45;&gt;Node13 -->
<g id="edge25_Node000001_Node000013" class="edge">
<title>Node1&#45;&gt;Node13</title>
<g id="a_edge25_Node000001_Node000013"><a xlink:title=" ">
<path fill="none" stroke="#63b8ff" d="M547.97,-219.85C518.04,-198.22 461.19,-157.12 430.83,-135.17"/>
<polygon fill="#63b8ff" stroke="#63b8ff" points="432.82,-132.29 422.67,-129.27 428.72,-137.97 432.82,-132.29"/>
</a>
</g>
</g>
<!-- Node15 -->
<g id="Node000015" class="node">
<title>Node15</title>
<g id="a_Node000015"><a xlink:title=" ">
<polygon fill="#e0e0e0" stroke="#999999" points="998.03,-129 885.03,-129 885.03,-110 998.03,-110 998.03,-129"/>
<text text-anchor="middle" x="941.53" y="-117" font-family="Helvetica,sans-Serif" font-size="10.00">freertos/FreeRTOS.h</text>
</a>
</g>
</g>
<!-- Node1&#45;&gt;Node15 -->
<g id="edge23_Node000001_Node000015" class="edge">
<title>Node1&#45;&gt;Node15</title>
<g id="a_edge23_Node000001_Node000015"><a xlink:title=" ">
<path fill="none" stroke="#63b8ff" d="M613.77,-219.97C688.47,-197.3 834.29,-153.05 903.42,-132.07"/>
<polygon fill="#63b8ff" stroke="#63b8ff" points="904.5,-135.4 913.05,-129.14 902.46,-128.7 904.5,-135.4"/>
</a>
</g>
</g>
<!-- Node18 -->
<g id="Node000018" class="node">
<title>Node18</title>
<g id="a_Node000018"><a xlink:title=" ">
<polygon fill="#e0e0e0" stroke="#999999" points="1104.53,-129 1016.53,-129 1016.53,-110 1104.53,-110 1104.53,-129"/>
<text text-anchor="middle" x="1060.53" y="-117" font-family="Helvetica,sans-Serif" font-size="10.00">freertos/task.h</text>
</a>
</g>
</g>
<!-- Node1&#45;&gt;Node18 -->
<g id="edge24_Node000001_Node000018" class="edge">
<title>Node1&#45;&gt;Node18</title>
<g id="a_edge24_Node000001_Node000018"><a xlink:title=" ">
<path fill="none" stroke="#63b8ff" d="M628.48,-219.97C728.08,-197.04 923.6,-152.03 1013.4,-131.35"/>
<polygon fill="#63b8ff" stroke="#63b8ff" points="1014.34,-134.73 1023.3,-129.07 1012.77,-127.9 1014.34,-134.73"/>
</a>
</g>
</g>
<!-- Node4 -->
<g id="Node000004" class="node">
<title>Node4</title>
<g id="a_Node000004"><a xlink:href="MAX22200__Registers_8h.html" target="_top" xlink:title="Register definitions and constants for MAX22200 IC.">
<polygon fill="white" stroke="#666666" points="262.03,-74 133.03,-74 133.03,-55 262.03,-55 262.03,-74"/>
<text text-anchor="middle" x="197.53" y="-62" font-family="Helvetica,sans-Serif" font-size="10.00">MAX22200_Registers.h</text>
</a>
</g>
</g>
<!-- Node3&#45;&gt;Node4 -->
<g id="edge3_Node000003_Node000004" class="edge">
<title>Node3&#45;&gt;Node4</title>
<g id="a_edge3_Node000003_Node000004"><a xlink:title=" ">
<path fill="none" stroke="#63b8ff" d="M213.15,-164.93C221.69,-152.77 234.76,-129.81 228.53,-110 225.3,-99.71 218.76,-89.72 212.51,-81.82"/>
<polygon fill="#63b8ff" stroke="#63b8ff" points="215.15,-79.52 206.02,-74.15 209.81,-84.04 215.15,-79.52"/>
</a>
</g>
</g>
<!-- Node5 -->
<g id="Node000005" class="node">
<title>Node5</title>
<g id="a_Node000005"><a xlink:title=" ">
<polygon fill="#e0e0e0" stroke="#999999" points="175.53,-19 125.53,-19 125.53,0 175.53,0 175.53,-19"/>
<text text-anchor="middle" x="150.53" y="-7" font-family="Helvetica,sans-Serif" font-size="10.00">cstdint</text>
</a>
</g>
</g>
<!-- Node3&#45;&gt;Node5 -->
<g id="edge13_Node000003_Node000005" class="edge">
<title>Node3&#45;&gt;Node5</title>
<g id="a_edge13_Node000003_Node000005"><a xlink:title=" ">
<path fill="none" stroke="#63b8ff" d="M167.26,-165.97C110.97,-155 13.53,-135.24 8.53,-129 -2.14,-115.66 -5.23,-80.18 15.53,-55 39.86,-25.49 84.21,-15.4 115.43,-12.03"/>
<polygon fill="#63b8ff" stroke="#63b8ff" points="115.81,-15.51 125.46,-11.13 115.19,-8.54 115.81,-15.51"/>
</a>
</g>
</g>
<!-- Node6 -->
<g id="Node000006" class="node">
<title>Node6</title>
<g id="a_Node000006"><a xlink:href="MAX22200__Types_8h.html" target="_top" xlink:title="Type definitions and structures for MAX22200 driver.">
<polygon fill="white" stroke="#666666" points="220.03,-129 109.03,-129 109.03,-110 220.03,-110 220.03,-129"/>
<text text-anchor="middle" x="164.53" y="-117" font-family="Helvetica,sans-Serif" font-size="10.00">MAX22200_Types.h</text>
</a>
</g>
</g>
<!-- Node3&#45;&gt;Node6 -->
<g id="edge5_Node000003_Node000006" class="edge">
<title>Node3&#45;&gt;Node6</title>
<g id="a_edge5_Node000003_Node000006"><a xlink:title=" ">
<path fill="none" stroke="#63b8ff" d="M199.6,-164.75C193.67,-157.26 184.96,-146.28 177.71,-137.13"/>
<polygon fill="#63b8ff" stroke="#63b8ff" points="180.29,-134.75 171.34,-129.09 174.81,-139.1 180.29,-134.75"/>
</a>
</g>
</g>
<!-- Node7 -->
<g id="Node000007" class="node">
<title>Node7</title>
<g id="a_Node000007"><a xlink:title=" ">
<polygon fill="#e0e0e0" stroke="#999999" points="66.53,-74 24.53,-74 24.53,-55 66.53,-55 66.53,-74"/>
<text text-anchor="middle" x="45.53" y="-62" font-family="Helvetica,sans-Serif" font-size="10.00">array</text>
</a>
</g>
</g>
<!-- Node3&#45;&gt;Node7 -->
<g id="edge12_Node000003_Node000007" class="edge">
<title>Node3&#45;&gt;Node7</title>
<g id="a_edge12_Node000003_Node000007"><a xlink:title=" ">
<path fill="none" stroke="#63b8ff" d="M167.49,-165.64C113.28,-154.55 21.27,-134.97 16.53,-129 5.19,-114.69 17.25,-95.22 29.1,-81.62"/>
<polygon fill="#63b8ff" stroke="#63b8ff" points="31.94,-83.71 36.23,-74.02 26.84,-78.92 31.94,-83.71"/>
</a>
</g>
</g>
<!-- Node8 -->
<g id="Node000008" class="node">
<title>Node8</title>
<g id="a_Node000008"><a xlink:href="SPIInterface_8h.html" target="_top" xlink:title="Abstract base class for SPI communication interface.">
<polygon fill="white" stroke="#666666" points="360.53,-129 276.53,-129 276.53,-110 360.53,-110 360.53,-129"/>
<text text-anchor="middle" x="318.53" y="-117" font-family="Helvetica,sans-Serif" font-size="10.00">SPIInterface.h</text>
</a>
</g>
</g>
<!-- Node3&#45;&gt;Node8 -->
<g id="edge9_Node000003_Node000008" class="edge">
<title>Node3&#45;&gt;Node8</title>
<g id="a_edge9_Node000003_Node000008"><a xlink:title=" ">
<path fill="none" stroke="#63b8ff" d="M224.53,-164.98C242.47,-156.5 270.25,-143.35 290.97,-133.54"/>
<polygon fill="#63b8ff" stroke="#63b8ff" points="292.67,-136.61 300.21,-129.17 289.68,-130.28 292.67,-136.61"/>
</a>
</g>
</g>
<!-- Node10 -->
<g id="Node000010" class="node">
<title>Node10</title>
<g id="a_Node000010"><a xlink:title=" ">
<polygon fill="#e0e0e0" stroke="#999999" points="91.03,-129 26.03,-129 26.03,-110 91.03,-110 91.03,-129"/>
<text text-anchor="middle" x="58.53" y="-117" font-family="Helvetica,sans-Serif" font-size="10.00">functional</text>
</a>
</g>
</g>
<!-- Node3&#45;&gt;Node10 -->
<g id="edge14_Node000003_Node000010" class="edge">
<title>Node3&#45;&gt;Node10</title>
<g id="a_edge14_Node000003_Node000010"><a xlink:title=" ">
<path fill="none" stroke="#63b8ff" d="M182.76,-164.98C158.3,-156.23 120,-142.51 92.39,-132.62"/>
<polygon fill="#63b8ff" stroke="#63b8ff" points="93.34,-129.25 82.75,-129.17 90.98,-135.84 93.34,-129.25"/>
</a>
</g>
</g>
<!-- Node4&#45;&gt;Node5 -->
<g id="edge4_Node000004_Node000005" class="edge">
<title>Node4&#45;&gt;Node5</title>
<g id="a_edge4_Node000004_Node000005"><a xlink:title=" ">
<path fill="none" stroke="#63b8ff" d="M189.77,-54.75C183.07,-47.18 173.19,-36.05 165.03,-26.84"/>
<polygon fill="#63b8ff" stroke="#63b8ff" points="167.4,-24.25 158.15,-19.09 162.17,-28.89 167.4,-24.25"/>
</a>
</g>
</g>
<!-- Node6&#45;&gt;Node4 -->
<g id="edge6_Node000006_Node000004" class="edge">
<title>Node6&#45;&gt;Node4</title>
<g id="a_edge6_Node000006_Node000004"><a xlink:title=" ">
<path fill="none" stroke="#63b8ff" d="M169.98,-109.75C174.55,-102.42 181.2,-91.73 186.83,-82.7"/>
<polygon fill="#63b8ff" stroke="#63b8ff" points="189.87,-84.43 192.19,-74.09 183.93,-80.73 189.87,-84.43"/>
</a>
</g>
</g>
<!-- Node6&#45;&gt;Node5 -->
<g id="edge8_Node000006_Node000005" class="edge">
<title>Node6&#45;&gt;Node5</title>
<g id="a_edge8_Node000006_Node000005"><a xlink:title=" ">
<path fill="none" stroke="#63b8ff" d="M152.61,-109.8C142.71,-101.77 129.34,-88.87 123.53,-74 117.23,-57.86 126.67,-39.69 136.07,-26.94"/>
<polygon fill="#63b8ff" stroke="#63b8ff" points="138.86,-29.05 142.38,-19.06 133.4,-24.68 138.86,-29.05"/>
</a>
</g>
</g>
<!-- Node6&#45;&gt;Node7 -->
<g id="edge7_Node000006_Node000007" class="edge">
<title>Node6&#45;&gt;Node7</title>
<g id="a_edge7_Node000006_Node000007"><a xlink:title=" ">
<path fill="none" stroke="#63b8ff" d="M145.42,-109.98C126.19,-101.42 96.3,-88.11 74.23,-78.28"/>
<polygon fill="#63b8ff" stroke="#63b8ff" points="75.56,-75.04 65,-74.17 72.71,-81.44 75.56,-75.04"/>
</a>
</g>
</g>
<!-- Node8&#45;&gt;Node5 -->
<g id="edge11_Node000008_Node000005" class="edge">
<title>Node8&#45;&gt;Node5</title>
<g id="a_edge11_Node000008_Node000005"><a xlink:title=" ">
<path fill="none" stroke="#63b8ff" d="M314.12,-109.86C306.81,-96.34 290.94,-70.17 270.53,-55 245.3,-36.24 211.3,-24.62 185.93,-17.98"/>
<polygon fill="#63b8ff" stroke="#63b8ff" points="186.53,-14.53 175.99,-15.52 184.85,-21.32 186.53,-14.53"/>
</a>
</g>
</g>
<!-- Node9 -->
<g id="Node000009" class="node">
<title>Node9</title>
<g id="a_Node000009"><a xlink:title=" ">
<polygon fill="#e0e0e0" stroke="#999999" points="372.03,-74 319.03,-74 319.03,-55 372.03,-55 372.03,-74"/>
<text text-anchor="middle" x="345.53" y="-62" font-family="Helvetica,sans-Serif" font-size="10.00">cstddef</text>
</a>
</g>
</g>
<!-- Node8&#45;&gt;Node9 -->
<g id="edge10_Node000008_Node000009" class="edge">
<title>Node8&#45;&gt;Node9</title>
<g id="a_edge10_Node000008_Node000009"><a xlink:title=" ">
<path fill="none" stroke="#63b8ff" d="M322.99,-109.75C326.65,-102.57 331.94,-92.18 336.48,-83.27"/>
<polygon fill="#63b8ff" stroke="#63b8ff" points="339.74,-84.59 341.16,-74.09 333.5,-81.41 339.74,-84.59"/>
</a>
</g>
</g>
<!-- Node12 -->
<g id="Node000012" class="node">
<title>Node12</title>
<g id="a_Node000012"><a xlink:title=" ">
<polygon fill="#e0e0e0" stroke="#999999" points="659.53,-129 581.53,-129 581.53,-110 659.53,-110 659.53,-129"/>
<text text-anchor="middle" x="620.53" y="-117" font-family="Helvetica,sans-Serif" font-size="10.00">driver/gpio.h</text>
</a>
</g>
</g>
<!-- Node11&#45;&gt;Node12 -->
<g id="edge16_Node000011_Node000012" class="edge">
<title>Node11&#45;&gt;Node12</title>
<g id="a_edge16_Node000011_Node000012"><a xlink:title=" ">
<path fill="none" stroke="#63b8ff" d="M659.77,-164.75C653.07,-157.18 643.19,-146.05 635.03,-136.84"/>
<polygon fill="#63b8ff" stroke="#63b8ff" points="637.4,-134.25 628.15,-129.09 632.17,-138.89 637.4,-134.25"/>
</a>
</g>
</g>
<!-- Node11&#45;&gt;Node13 -->
<g id="edge17_Node000011_Node000013" class="edge">
<title>Node11&#45;&gt;Node13</title>
<g id="a_edge17_Node000011_Node000013"><a xlink:title=" ">
<path fill="none" stroke="#63b8ff" d="M625.51,-164.97C583.92,-156.52 518.15,-143.09 452.51,-129.4"/>
<polygon fill="#63b8ff" stroke="#63b8ff" points="452.91,-125.91 442.41,-127.29 451.48,-132.76 452.91,-125.91"/>
</a>
</g>
</g>
<!-- Node14 -->
<g id="Node000014" class="node">
<title>Node14</title>
<g id="a_Node000014"><a xlink:title=" ">
<polygon fill="#e0e0e0" stroke="#999999" points="751.53,-129 677.53,-129 677.53,-110 751.53,-110 751.53,-129"/>
<text text-anchor="middle" x="714.53" y="-117" font-family="Helvetica,sans-Serif" font-size="10.00">esp_timer.h</text>
</a>
</g>
</g>
<!-- Node11&#45;&gt;Node14 -->
<g id="edge18_Node000011_Node000014" class="edge">
<title>Node11&#45;&gt;Node14</title>
<g id="a_edge18_Node000011_Node000014"><a xlink:title=" ">
<path fill="none" stroke="#63b8ff" d="M675.3,-164.75C682,-157.18 691.88,-146.05 700.04,-136.84"/>
<polygon fill="#63b8ff" stroke="#63b8ff" points="702.9,-138.89 706.92,-129.09 697.66,-134.25 702.9,-138.89"/>
</a>
</g>
</g>
<!-- Node11&#45;&gt;Node15 -->
<g id="edge19_Node000011_Node000015" class="edge">
<title>Node11&#45;&gt;Node15</title>
<g id="a_edge19_Node000011_Node000015"><a xlink:title=" ">
<path fill="none" stroke="#63b8ff" d="M711.56,-164.98C759.35,-155.74 835.73,-140.97 887.22,-131.01"/>
<polygon fill="#63b8ff" stroke="#63b8ff" points="888.01,-134.42 897.17,-129.08 886.68,-127.54 888.01,-134.42"/>
</a>
</g>
</g>
<!-- Node16 -->
<g id="Node000016" class="node">
<title>Node16</title>
<g id="a_Node000016"><a xlink:title=" ">
<polygon fill="#e0e0e0" stroke="#999999" points="867.03,-129 770.03,-129 770.03,-110 867.03,-110 867.03,-129"/>
<text text-anchor="middle" x="818.53" y="-117" font-family="Helvetica,sans-Serif" font-size="10.00">freertos/queue.h</text>
</a>
</g>
</g>
<!-- Node11&#45;&gt;Node16 -->
<g id="edge20_Node000011_Node000016" class="edge">
<title>Node11&#45;&gt;Node16</title>
<g id="a_edge20_Node000011_Node000016"><a xlink:title=" ">
<path fill="none" stroke="#63b8ff" d="M691.8,-164.98C716.85,-156.19 756.17,-142.39 784.36,-132.49"/>
<polygon fill="#63b8ff" stroke="#63b8ff" points="785.56,-135.78 793.83,-129.17 783.24,-129.18 785.56,-135.78"/>
</a>
</g>
</g>
<!-- Node17 -->
<g id="Node000017" class="node">
<title>Node17</title>
<g id="a_Node000017"><a xlink:title=" ">
<polygon fill="#e0e0e0" stroke="#999999" points="563.03,-129 460.03,-129 460.03,-110 563.03,-110 563.03,-129"/>
<text text-anchor="middle" x="511.53" y="-117" font-family="Helvetica,sans-Serif" font-size="10.00">freertos/semphr.h</text>
</a>
</g>
</g>
<!-- Node11&#45;&gt;Node17 -->
<g id="edge21_Node000011_Node000017" class="edge">
<title>Node11&#45;&gt;Node17</title>
<g id="a_edge21_Node000011_Node000017"><a xlink:title=" ">
<path fill="none" stroke="#63b8ff" d="M642.47,-164.98C616.51,-156.16 575.73,-142.31 546.58,-132.41"/>
<polygon fill="#63b8ff" stroke="#63b8ff" points="547.39,-128.99 536.8,-129.08 545.14,-135.61 547.39,-128.99"/>
</a>
</g>
</g>
<!-- Node11&#45;&gt;Node18 -->
<g id="edge22_Node000011_Node000018" class="edge">
<title>Node11&#45;&gt;Node18</title>
<g id="a_edge22_Node000011_Node000018"><a xlink:title=" ">
<path fill="none" stroke="#63b8ff" d="M717.72,-167.39C782.1,-159.45 897.48,-144.88 1006.15,-129.17"/>
<polygon fill="#63b8ff" stroke="#63b8ff" points="1006.91,-132.59 1016.3,-127.69 1005.9,-125.67 1006.91,-132.59"/>
</a>
</g>
</g>
</g>
</svg>
