<?xml version="1.0" encoding="UTF-8" standalone="no"?>
<!DOCTYPE svg PUBLIC "-//W3C//DTD SVG 1.1//EN"
 "http://www.w3.org/Graphics/SVG/1.1/DTD/svg11.dtd">
<!-- Generated by graphviz version 2.43.0 (0)
 -->
<!-- Title: inc/MAX22200_Types.h Pages: 1 -->
<svg width="236pt" height="137pt"
 viewBox="0.00 0.00 235.50 137.00" xmlns="http://www.w3.org/2000/svg" xmlns:xlink="http://www.w3.org/1999/xlink">
<g id="graph0" class="graph" transform="scale(1 1) rotate(0) translate(4 133)">
<title>inc/MAX22200_Types.h</title>
<!-- Node1 -->
<g id="Node000001" class="node">
<title>Node1</title>
<g id="a_Node000001"><a xlink:title="Type definitions and structures for MAX22200 driver.">
<polygon fill="#999999" stroke="#666666" points="221.5,-129 93.5,-129 93.5,-110 221.5,-110 221.5,-129"/>
<text text-anchor="middle" x="157.5" y="-117" font-family="Helvetica,sans-Serif" font-size="10.00">inc/MAX22200_Types.h</text>
</a>
</g>
</g>
<!-- Node2 -->
<g id="Node000002" class="node">
<title>Node2</title>
<g id="a_Node000002"><a xlink:href="MAX22200__Registers_8h.html" target="_top" xlink:title="Register definitions and constants for MAX22200 IC.">
<polygon fill="white" stroke="#666666" points="129,-74 0,-74 0,-55 129,-55 129,-74"/>
<text text-anchor="middle" x="64.5" y="-62" font-family="Helvetica,sans-Serif" font-size="10.00">MAX22200_Registers.h</text>
</a>
</g>
</g>
<!-- Node1&#45;&gt;Node2 -->
<g id="edge1_Node000001_Node000002" class="edge">
<title>Node1&#45;&gt;Node2</title>
<g id="a_edge1_Node000001_Node000002"><a xlink:title=" ">
<path fill="none" stroke="#63b8ff" d="M142.56,-109.98C128,-101.69 105.63,-88.94 88.57,-79.22"/>
<polygon fill="#63b8ff" stroke="#63b8ff" points="90.14,-76.08 79.71,-74.17 86.67,-82.16 90.14,-76.08"/>
</a>
</g>
</g>
<!-- Node3 -->
<g id="Node000003" class="node">
<title>Node3</title>
<g id="a_Node000003"><a xlink:title=" ">
<polygon fill="#e0e0e0" stroke="#999999" points="135.5,-19 85.5,-19 85.5,0 135.5,0 135.5,-19"/>
<text text-anchor="middle" x="110.5" y="-7" font-family="Helvetica,sans-Serif" font-size="10.00">cstdint</text>
</a>
</g>
</g>
<!-- Node1&#45;&gt;Node3 -->
<g id="edge4_Node000001_Node000003" class="edge">
<title>Node1&#45;&gt;Node3</title>
<g id="a_edge4_Node000001_Node000003"><a xlink:title=" ">
<path fill="none" stroke="#63b8ff" d="M155.64,-109.6C152.85,-97.06 146.97,-73.65 138.5,-55 134.21,-45.56 128.22,-35.74 122.88,-27.73"/>
<polygon fill="#63b8ff" stroke="#63b8ff" points="125.61,-25.53 117.05,-19.3 119.86,-29.51 125.61,-25.53"/>
</a>
</g>
</g>
<!-- Node4 -->
<g id="Node000004" class="node">
<title>Node4</title>
<g id="a_Node000004"><a xlink:title=" ">
<polygon fill="#e0e0e0" stroke="#999999" points="227.5,-74 185.5,-74 185.5,-55 227.5,-55 227.5,-74"/>
<text text-anchor="middle" x="206.5" y="-62" font-family="Helvetica,sans-Serif" font-size="10.00">array</text>
</a>
</g>
</g>
<!-- Node1&#45;&gt;Node4 -->
<g id="edge3_Node000001_Node000004" class="edge">
<title>Node1&#45;&gt;Node4</title>
<g id="a_edge3_Node000001_Node000004"><a xlink:title=" ">
<path fill="none" stroke="#63b8ff" d="M165.59,-109.75C172.66,-102.11 183.09,-90.82 191.65,-81.56"/>
<polygon fill="#63b8ff" stroke="#63b8ff" points="194.34,-83.81 198.56,-74.09 189.2,-79.06 194.34,-83.81"/>
</a>
</g>
</g>
<!-- Node2&#45;&gt;Node3 -->
<g id="edge2_Node000002_Node000003" class="edge">
<title>Node2&#45;&gt;Node3</title>
<g id="a_edge2_Node000002_Node000003"><a xlink:title=" ">
<path fill="none" stroke="#63b8ff" d="M72.1,-54.75C78.66,-47.18 88.32,-36.05 96.31,-26.84"/>
<polygon fill="#63b8ff" stroke="#63b8ff" points="99.13,-28.94 103.05,-19.09 93.85,-24.35 99.13,-28.94"/>
</a>
</g>
</g>
</g>
</svg>
