<?xml version="1.0" encoding="UTF-8" standalone="no"?>
<!DOCTYPE svg PUBLIC "-//W3C//DTD SVG 1.1//EN"
 "http://www.w3.org/Graphics/SVG/1.1/DTD/svg11.dtd">
<!-- Generated by graphviz version 2.43.0 (0)
 -->
<!-- Title: examples/esp32/main/MAX22200ComprehensiveTest.cpp Pages: 1 -->
<svg width="1316pt" height="258pt"
 viewBox="0.00 0.00 1315.67 258.00" xmlns="http://www.w3.org/2000/svg" xmlns:xlink="http://www.w3.org/1999/xlink">
<g id="graph0" class="graph" transform="scale(1 1) rotate(0) translate(4 254)">
<title>examples/esp32/main/MAX22200ComprehensiveTest.cpp</title>
<!-- Node1 -->
<g id="Node000001" class="node">
<title>Node1</title>
<g id="a_Node000001"><a xlink:title="Comprehensive test suite for MAX22200 driver on ESP32&#45;C6.">
<polygon fill="#999999" stroke="#666666" points="869.67,-250 681.67,-250 681.67,-220 869.67,-220 869.67,-250"/>
<text text-anchor="start" x="689.67" y="-238" font-family="Helvetica,sans-Serif" font-size="10.00">examples/esp32/main</text>
<text text-anchor="middle" x="775.67" y="-227" font-family="Helvetica,sans-Serif" font-size="10.00">/MAX22200ComprehensiveTest.cpp</text>
</a>
</g>
</g>
<!-- Node2 -->
<g id="Node000002" class="node">
<title>Node2</title>
<g id="a_Node000002"><a xlink:title=" ">
<polygon fill="#e0e0e0" stroke="#999999" points="309.67,-184 251.67,-184 251.67,-165 309.67,-165 309.67,-184"/>
<text text-anchor="middle" x="280.67" y="-172" font-family="Helvetica,sans-Serif" font-size="10.00">memory</text>
</a>
</g>
</g>
<!-- Node1&#45;&gt;Node2 -->
<g id="edge1_Node000001_Node000002" class="edge">
<title>Node1&#45;&gt;Node2</title>
<g id="a_edge1_Node000001_Node000002"><a xlink:title=" ">
<path fill="none" stroke="#63b8ff" d="M681.61,-226.78C591.27,-219.15 450.82,-205.44 320.25,-184.1"/>
<polygon fill="#63b8ff" stroke="#63b8ff" points="320.51,-180.59 310.07,-182.41 319.37,-187.5 320.51,-180.59"/>
</a>
</g>
</g>
<!-- Node3 -->
<g id="Node000003" class="node">
<title>Node3</title>
<g id="a_Node000003"><a xlink:href="MAX22200_8h.html" target="_top" xlink:title="Main driver class for MAX22200 octal solenoid and motor driver.">
<polygon fill="white" stroke="#666666" points="405.67,-184 327.67,-184 327.67,-165 405.67,-165 405.67,-184"/>
<text text-anchor="middle" x="366.67" y="-172" font-family="Helvetica,sans-Serif" font-size="10.00">MAX22200.h</text>
</a>
</g>
</g>
<!-- Node1&#45;&gt;Node3 -->
<g id="edge2_Node000001_Node000003" class="edge">
<title>Node1&#45;&gt;Node3</title>
<g id="a_edge2_Node000001_Node000003"><a xlink:title=" ">
<path fill="none" stroke="#63b8ff" d="M681.59,-220.54C598.74,-208.69 481.38,-191.91 415.83,-182.53"/>
<polygon fill="#63b8ff" stroke="#63b8ff" points="416.16,-179.04 405.77,-181.09 415.17,-185.97 416.16,-179.04"/>
</a>
</g>
</g>
<!-- Node13 -->
<g id="Node000013" class="node">
<title>Node13</title>
<g id="a_Node000013"><a xlink:href="TestFramework_8h.html" target="_top" xlink:title="Shared testing framework for ESP32&#45;C6 comprehensive test suites.">
<polygon fill="white" stroke="#666666" points="929.67,-184 829.67,-184 829.67,-165 929.67,-165 929.67,-184"/>
<text text-anchor="middle" x="879.67" y="-172" font-family="Helvetica,sans-Serif" font-size="10.00">TestFramework.h</text>
</a>
</g>
</g>
<!-- Node1&#45;&gt;Node13 -->
<g id="edge18_Node000001_Node000013" class="edge">
<title>Node1&#45;&gt;Node13</title>
<g id="a_edge18_Node000001_Node000013"><a xlink:title=" ">
<path fill="none" stroke="#63b8ff" d="M800.59,-219.99C817.16,-210.66 838.84,-198.47 855.3,-189.21"/>
<polygon fill="#63b8ff" stroke="#63b8ff" points="857.32,-192.09 864.32,-184.14 853.88,-185.99 857.32,-192.09"/>
</a>
</g>
</g>
<!-- Node15 -->
<g id="Node000015" class="node">
<title>Node15</title>
<g id="a_Node000015"><a xlink:title=" ">
<polygon fill="#e0e0e0" stroke="#999999" points="645.17,-129 582.17,-129 582.17,-110 645.17,-110 645.17,-129"/>
<text text-anchor="middle" x="613.67" y="-117" font-family="Helvetica,sans-Serif" font-size="10.00">esp_log.h</text>
</a>
</g>
</g>
<!-- Node1&#45;&gt;Node15 -->
<g id="edge28_Node000001_Node000015" class="edge">
<title>Node1&#45;&gt;Node15</title>
<g id="a_edge28_Node000001_Node000015"><a xlink:title=" ">
<path fill="none" stroke="#63b8ff" d="M755.48,-219.85C724.61,-198.22 665.94,-157.12 634.62,-135.17"/>
<polygon fill="#63b8ff" stroke="#63b8ff" points="636.39,-132.14 626.19,-129.27 632.37,-137.88 636.39,-132.14"/>
</a>
</g>
</g>
<!-- Node17 -->
<g id="Node000017" class="node">
<title>Node17</title>
<g id="a_Node000017"><a xlink:title=" ">
<polygon fill="#e0e0e0" stroke="#999999" points="1201.17,-129 1088.17,-129 1088.17,-110 1201.17,-110 1201.17,-129"/>
<text text-anchor="middle" x="1144.67" y="-117" font-family="Helvetica,sans-Serif" font-size="10.00">freertos/FreeRTOS.h</text>
</a>
</g>
</g>
<!-- Node1&#45;&gt;Node17 -->
<g id="edge26_Node000001_Node000017" class="edge">
<title>Node1&#45;&gt;Node17</title>
<g id="a_edge26_Node000001_Node000017"><a xlink:title=" ">
<path fill="none" stroke="#63b8ff" d="M821.7,-219.9C854.35,-209.89 899.21,-196.14 938.67,-184 997.66,-165.86 1066.13,-144.74 1107.39,-132.01"/>
<polygon fill="#63b8ff" stroke="#63b8ff" points="1108.5,-135.33 1117.02,-129.04 1106.44,-128.64 1108.5,-135.33"/>
</a>
</g>
</g>
<!-- Node20 -->
<g id="Node000020" class="node">
<title>Node20</title>
<g id="a_Node000020"><a xlink:title=" ">
<polygon fill="#e0e0e0" stroke="#999999" points="1307.67,-129 1219.67,-129 1219.67,-110 1307.67,-110 1307.67,-129"/>
<text text-anchor="middle" x="1263.67" y="-117" font-family="Helvetica,sans-Serif" font-size="10.00">freertos/task.h</text>
</a>
</g>
</g>
<!-- Node1&#45;&gt;Node20 -->
<g id="edge27_Node000001_Node000020" class="edge">
<title>Node1&#45;&gt;Node20</title>
<g id="a_edge27_Node000001_Node000020"><a xlink:title=" ">
<path fill="none" stroke="#63b8ff" d="M836,-219.97C934.59,-197.04 1128.13,-152.03 1217.02,-131.35"/>
<polygon fill="#63b8ff" stroke="#63b8ff" points="1217.87,-134.75 1226.82,-129.07 1216.29,-127.93 1217.87,-134.75"/>
</a>
</g>
</g>
<!-- Node4 -->
<g id="Node000004" class="node">
<title>Node4</title>
<g id="a_Node000004"><a xlink:href="MAX22200__Registers_8h.html" target="_top" xlink:title="Register definitions and constants for MAX22200 IC.">
<polygon fill="white" stroke="#666666" points="256.17,-74 127.17,-74 127.17,-55 256.17,-55 256.17,-74"/>
<text text-anchor="middle" x="191.67" y="-62" font-family="Helvetica,sans-Serif" font-size="10.00">MAX22200_Registers.h</text>
</a>
</g>
</g>
<!-- Node3&#45;&gt;Node4 -->
<g id="edge3_Node000003_Node000004" class="edge">
<title>Node3&#45;&gt;Node4</title>
<g id="a_edge3_Node000003_Node000004"><a xlink:title=" ">
<path fill="none" stroke="#63b8ff" d="M327.48,-166.45C277.21,-157 195.41,-140.15 186.67,-129 176.79,-116.37 179.71,-97.67 184.1,-83.83"/>
<polygon fill="#63b8ff" stroke="#63b8ff" points="187.41,-84.97 187.55,-74.38 180.83,-82.57 187.41,-84.97"/>
</a>
</g>
</g>
<!-- Node5 -->
<g id="Node000005" class="node">
<title>Node5</title>
<g id="a_Node000005"><a xlink:title=" ">
<polygon fill="#e0e0e0" stroke="#999999" points="169.67,-19 119.67,-19 119.67,0 169.67,0 169.67,-19"/>
<text text-anchor="middle" x="144.67" y="-7" font-family="Helvetica,sans-Serif" font-size="10.00">cstdint</text>
</a>
</g>
</g>
<!-- Node3&#45;&gt;Node5 -->
<g id="edge13_Node000003_Node000005" class="edge">
<title>Node3&#45;&gt;Node5</title>
<g id="a_edge13_Node000003_Node000005"><a xlink:title=" ">
<path fill="none" stroke="#63b8ff" d="M327.67,-166.45C324.63,-165.94 321.6,-165.45 318.67,-165 198.16,-146.36 151.09,-191.99 46.67,-129 14.84,-109.8 -14.18,-85.08 7.67,-55 30.72,-23.28 76.92,-13.72 109.27,-11.08"/>
<polygon fill="#63b8ff" stroke="#63b8ff" points="109.9,-14.55 119.66,-10.42 109.46,-7.56 109.9,-14.55"/>
</a>
</g>
</g>
<!-- Node6 -->
<g id="Node000006" class="node">
<title>Node6</title>
<g id="a_Node000006"><a xlink:href="MAX22200__Types_8h.html" target="_top" xlink:title="Type definitions and structures for MAX22200 driver.">
<polygon fill="white" stroke="#666666" points="307.17,-129 196.17,-129 196.17,-110 307.17,-110 307.17,-129"/>
<text text-anchor="middle" x="251.67" y="-117" font-family="Helvetica,sans-Serif" font-size="10.00">MAX22200_Types.h</text>
</a>
</g>
</g>
<!-- Node3&#45;&gt;Node6 -->
<g id="edge5_Node000003_Node000006" class="edge">
<title>Node3&#45;&gt;Node6</title>
<g id="a_edge5_Node000003_Node000006"><a xlink:title=" ">
<path fill="none" stroke="#63b8ff" d="M348.2,-164.98C329.7,-156.46 300.99,-143.23 279.69,-133.41"/>
<polygon fill="#63b8ff" stroke="#63b8ff" points="281.03,-130.18 270.49,-129.17 278.1,-136.53 281.03,-130.18"/>
</a>
</g>
</g>
<!-- Node7 -->
<g id="Node000007" class="node">
<title>Node7</title>
<g id="a_Node000007"><a xlink:title=" ">
<polygon fill="#e0e0e0" stroke="#999999" points="355.67,-74 313.67,-74 313.67,-55 355.67,-55 355.67,-74"/>
<text text-anchor="middle" x="334.67" y="-62" font-family="Helvetica,sans-Serif" font-size="10.00">array</text>
</a>
</g>
</g>
<!-- Node3&#45;&gt;Node7 -->
<g id="edge12_Node000003_Node000007" class="edge">
<title>Node3&#45;&gt;Node7</title>
<g id="a_edge12_Node000003_Node000007"><a xlink:title=" ">
<path fill="none" stroke="#63b8ff" d="M364.06,-164.66C358.85,-147.09 347.1,-107.45 340.14,-83.95"/>
<polygon fill="#63b8ff" stroke="#63b8ff" points="343.44,-82.75 337.24,-74.16 336.73,-84.74 343.44,-82.75"/>
</a>
</g>
</g>
<!-- Node8 -->
<g id="Node000008" class="node">
<title>Node8</title>
<g id="a_Node000008"><a xlink:href="SPIInterface_8h.html" target="_top" xlink:title="CRTP&#45;based template interface for SPI communication.">
<polygon fill="white" stroke="#666666" points="139.67,-129 55.67,-129 55.67,-110 139.67,-110 139.67,-129"/>
<text text-anchor="middle" x="97.67" y="-117" font-family="Helvetica,sans-Serif" font-size="10.00">SPIInterface.h</text>
</a>
</g>
</g>
<!-- Node3&#45;&gt;Node8 -->
<g id="edge9_Node000003_Node000008" class="edge">
<title>Node3&#45;&gt;Node8</title>
<g id="a_edge9_Node000003_Node000008"><a xlink:title=" ">
<path fill="none" stroke="#63b8ff" d="M327.56,-165.79C280.7,-156.56 202.03,-141.06 149.98,-130.81"/>
<polygon fill="#63b8ff" stroke="#63b8ff" points="150.43,-127.33 139.94,-128.83 149.08,-134.2 150.43,-127.33"/>
</a>
</g>
</g>
<!-- Node10 -->
<g id="Node000010" class="node">
<title>Node10</title>
<g id="a_Node000010"><a xlink:title=" ">
<polygon fill="#e0e0e0" stroke="#999999" points="429.17,-129 364.17,-129 364.17,-110 429.17,-110 429.17,-129"/>
<text text-anchor="middle" x="396.67" y="-117" font-family="Helvetica,sans-Serif" font-size="10.00">functional</text>
</a>
</g>
</g>
<!-- Node3&#45;&gt;Node10 -->
<g id="edge14_Node000003_Node000010" class="edge">
<title>Node3&#45;&gt;Node10</title>
<g id="a_edge14_Node000003_Node000010"><a xlink:title=" ">
<path fill="none" stroke="#63b8ff" d="M371.63,-164.75C375.74,-157.49 381.7,-146.95 386.78,-137.98"/>
<polygon fill="#63b8ff" stroke="#63b8ff" points="389.93,-139.52 391.81,-129.09 383.84,-136.07 389.93,-139.52"/>
</a>
</g>
</g>
<!-- Node11 -->
<g id="Node000011" class="node">
<title>Node11</title>
<g id="a_Node000011"><a xlink:href="MAX22200_8cpp.html" target="_top" xlink:title="Implementation of MAX22200 driver class.">
<polygon fill="white" stroke="#666666" points="563.67,-129 447.67,-129 447.67,-110 563.67,-110 563.67,-129"/>
<text text-anchor="middle" x="505.67" y="-117" font-family="Helvetica,sans-Serif" font-size="10.00">../src/MAX22200.cpp</text>
</a>
</g>
</g>
<!-- Node3&#45;&gt;Node11 -->
<g id="edge15_Node000003_Node000011" class="edge">
<title>Node3&#45;&gt;Node11</title>
<g id="a_edge15_Node000003_Node000011"><a xlink:title=" ">
<path fill="none" stroke="#63b8ff" d="M383.89,-164.98C404.93,-156.23 440.68,-142.51 468.1,-132.62"/>
<polygon fill="#63b8ff" stroke="#63b8ff" points="469.54,-135.83 477.79,-129.17 467.19,-129.23 469.54,-135.83"/>
</a>
</g>
</g>
<!-- Node4&#45;&gt;Node5 -->
<g id="edge4_Node000004_Node000005" class="edge">
<title>Node4&#45;&gt;Node5</title>
<g id="a_edge4_Node000004_Node000005"><a xlink:title=" ">
<path fill="none" stroke="#63b8ff" d="M183.91,-54.75C177.21,-47.18 167.33,-36.05 159.17,-26.84"/>
<polygon fill="#63b8ff" stroke="#63b8ff" points="161.54,-24.25 152.29,-19.09 156.31,-28.89 161.54,-24.25"/>
</a>
</g>
</g>
<!-- Node6&#45;&gt;Node4 -->
<g id="edge6_Node000006_Node000004" class="edge">
<title>Node6&#45;&gt;Node4</title>
<g id="a_edge6_Node000006_Node000004"><a xlink:title=" ">
<path fill="none" stroke="#63b8ff" d="M242.03,-109.98C233.17,-102.15 219.8,-90.34 209.07,-80.86"/>
<polygon fill="#63b8ff" stroke="#63b8ff" points="211.3,-78.17 201.49,-74.17 206.67,-83.41 211.3,-78.17"/>
</a>
</g>
</g>
<!-- Node6&#45;&gt;Node5 -->
<g id="edge8_Node000006_Node000005" class="edge">
<title>Node6&#45;&gt;Node5</title>
<g id="a_edge8_Node000006_Node000005"><a xlink:title=" ">
<path fill="none" stroke="#63b8ff" d="M257.24,-109.86C264.87,-96.81 276.37,-71.81 264.67,-55 245.77,-27.83 208.23,-17.21 180.15,-13.08"/>
<polygon fill="#63b8ff" stroke="#63b8ff" points="180.27,-9.57 169.91,-11.8 179.39,-16.52 180.27,-9.57"/>
</a>
</g>
</g>
<!-- Node6&#45;&gt;Node7 -->
<g id="edge7_Node000006_Node000007" class="edge">
<title>Node6&#45;&gt;Node7</title>
<g id="a_edge7_Node000006_Node000007"><a xlink:title=" ">
<path fill="none" stroke="#63b8ff" d="M265.01,-109.98C277.76,-101.84 297.23,-89.41 312.35,-79.76"/>
<polygon fill="#63b8ff" stroke="#63b8ff" points="314.55,-82.5 321.1,-74.17 310.78,-76.6 314.55,-82.5"/>
</a>
</g>
</g>
<!-- Node8&#45;&gt;Node5 -->
<g id="edge11_Node000008_Node000005" class="edge">
<title>Node8&#45;&gt;Node5</title>
<g id="a_edge11_Node000008_Node000005"><a xlink:title=" ">
<path fill="none" stroke="#63b8ff" d="M99.75,-109.63C102.83,-97.12 109.19,-73.74 117.67,-55 121.96,-45.53 127.85,-35.59 133.03,-27.51"/>
<polygon fill="#63b8ff" stroke="#63b8ff" points="136.05,-29.29 138.65,-19.02 130.21,-25.43 136.05,-29.29"/>
</a>
</g>
</g>
<!-- Node9 -->
<g id="Node000009" class="node">
<title>Node9</title>
<g id="a_Node000009"><a xlink:title=" ">
<polygon fill="#e0e0e0" stroke="#999999" points="70.17,-74 17.17,-74 17.17,-55 70.17,-55 70.17,-74"/>
<text text-anchor="middle" x="43.67" y="-62" font-family="Helvetica,sans-Serif" font-size="10.00">cstddef</text>
</a>
</g>
</g>
<!-- Node8&#45;&gt;Node9 -->
<g id="edge10_Node000008_Node000009" class="edge">
<title>Node8&#45;&gt;Node9</title>
<g id="a_edge10_Node000008_Node000009"><a xlink:title=" ">
<path fill="none" stroke="#63b8ff" d="M88.76,-109.75C80.89,-102.03 69.24,-90.6 59.76,-81.28"/>
<polygon fill="#63b8ff" stroke="#63b8ff" points="62.01,-78.6 52.43,-74.09 57.11,-83.59 62.01,-78.6"/>
</a>
</g>
</g>
<!-- Node11&#45;&gt;Node3 -->
<g id="edge16_Node000011_Node000003" class="edge">
<title>Node11&#45;&gt;Node3</title>
<g id="a_edge16_Node000011_Node000003"><a xlink:title=" ">
<path fill="none" stroke="#63b8ff" d="M488.08,-129.17C466.88,-137.98 431.09,-151.71 403.76,-161.55"/>
<polygon fill="#63b8ff" stroke="#63b8ff" points="402.37,-158.33 394.12,-164.98 404.72,-164.93 402.37,-158.33"/>
</a>
</g>
</g>
<!-- Node12 -->
<g id="Node000012" class="node">
<title>Node12</title>
<g id="a_Node000012"><a xlink:title=" ">
<polygon fill="#e0e0e0" stroke="#999999" points="532.17,-74 479.17,-74 479.17,-55 532.17,-55 532.17,-74"/>
<text text-anchor="middle" x="505.67" y="-62" font-family="Helvetica,sans-Serif" font-size="10.00">string.h</text>
</a>
</g>
</g>
<!-- Node11&#45;&gt;Node12 -->
<g id="edge17_Node000011_Node000012" class="edge">
<title>Node11&#45;&gt;Node12</title>
<g id="a_edge17_Node000011_Node000012"><a xlink:title=" ">
<path fill="none" stroke="#63b8ff" d="M505.67,-109.75C505.67,-102.8 505.67,-92.85 505.67,-84.13"/>
<polygon fill="#63b8ff" stroke="#63b8ff" points="509.17,-84.09 505.67,-74.09 502.17,-84.09 509.17,-84.09"/>
</a>
</g>
</g>
<!-- Node14 -->
<g id="Node000014" class="node">
<title>Node14</title>
<g id="a_Node000014"><a xlink:title=" ">
<polygon fill="#e0e0e0" stroke="#999999" points="977.67,-129 899.67,-129 899.67,-110 977.67,-110 977.67,-129"/>
<text text-anchor="middle" x="938.67" y="-117" font-family="Helvetica,sans-Serif" font-size="10.00">driver/gpio.h</text>
</a>
</g>
</g>
<!-- Node13&#45;&gt;Node14 -->
<g id="edge19_Node000013_Node000014" class="edge">
<title>Node13&#45;&gt;Node14</title>
<g id="a_edge19_Node000013_Node000014"><a xlink:title=" ">
<path fill="none" stroke="#63b8ff" d="M889.15,-164.98C897.88,-157.15 911.02,-145.34 921.57,-135.86"/>
<polygon fill="#63b8ff" stroke="#63b8ff" points="923.92,-138.46 929.02,-129.17 919.24,-133.25 923.92,-138.46"/>
</a>
</g>
</g>
<!-- Node13&#45;&gt;Node15 -->
<g id="edge20_Node000013_Node000015" class="edge">
<title>Node13&#45;&gt;Node15</title>
<g id="a_edge20_Node000013_Node000015"><a xlink:title=" ">
<path fill="none" stroke="#63b8ff" d="M835.46,-165C792.01,-156.6 723.55,-143.24 655.57,-129.37"/>
<polygon fill="#63b8ff" stroke="#63b8ff" points="656.04,-125.89 645.54,-127.32 654.64,-132.75 656.04,-125.89"/>
</a>
</g>
</g>
<!-- Node16 -->
<g id="Node000016" class="node">
<title>Node16</title>
<g id="a_Node000016"><a xlink:title=" ">
<polygon fill="#e0e0e0" stroke="#999999" points="1069.67,-129 995.67,-129 995.67,-110 1069.67,-110 1069.67,-129"/>
<text text-anchor="middle" x="1032.67" y="-117" font-family="Helvetica,sans-Serif" font-size="10.00">esp_timer.h</text>
</a>
</g>
</g>
<!-- Node13&#45;&gt;Node16 -->
<g id="edge21_Node000013_Node000016" class="edge">
<title>Node13&#45;&gt;Node16</title>
<g id="a_edge21_Node000013_Node000016"><a xlink:title=" ">
<path fill="none" stroke="#63b8ff" d="M904.26,-164.98C929.72,-156.16 969.72,-142.31 998.31,-132.41"/>
<polygon fill="#63b8ff" stroke="#63b8ff" points="999.6,-135.66 1007.9,-129.08 997.31,-129.05 999.6,-135.66"/>
</a>
</g>
</g>
<!-- Node13&#45;&gt;Node17 -->
<g id="edge22_Node000013_Node000017" class="edge">
<title>Node13&#45;&gt;Node17</title>
<g id="a_edge22_Node000013_Node000017"><a xlink:title=" ">
<path fill="none" stroke="#63b8ff" d="M922.25,-164.98C968.38,-155.76 1042.04,-141.03 1091.83,-131.07"/>
<polygon fill="#63b8ff" stroke="#63b8ff" points="1092.64,-134.48 1101.76,-129.08 1091.27,-127.61 1092.64,-134.48"/>
</a>
</g>
</g>
<!-- Node18 -->
<g id="Node000018" class="node">
<title>Node18</title>
<g id="a_Node000018"><a xlink:title=" ">
<polygon fill="#e0e0e0" stroke="#999999" points="760.17,-129 663.17,-129 663.17,-110 760.17,-110 760.17,-129"/>
<text text-anchor="middle" x="711.67" y="-117" font-family="Helvetica,sans-Serif" font-size="10.00">freertos/queue.h</text>
</a>
</g>
</g>
<!-- Node13&#45;&gt;Node18 -->
<g id="edge23_Node000013_Node000018" class="edge">
<title>Node13&#45;&gt;Node18</title>
<g id="a_edge23_Node000013_Node000018"><a xlink:title=" ">
<path fill="none" stroke="#63b8ff" d="M852.68,-164.98C824.48,-156.09 780.04,-142.07 748.59,-132.15"/>
<polygon fill="#63b8ff" stroke="#63b8ff" points="749.47,-128.75 738.88,-129.08 747.36,-135.43 749.47,-128.75"/>
</a>
</g>
</g>
<!-- Node19 -->
<g id="Node000019" class="node">
<title>Node19</title>
<g id="a_Node000019"><a xlink:title=" ">
<polygon fill="#e0e0e0" stroke="#999999" points="881.17,-129 778.17,-129 778.17,-110 881.17,-110 881.17,-129"/>
<text text-anchor="middle" x="829.67" y="-117" font-family="Helvetica,sans-Serif" font-size="10.00">freertos/semphr.h</text>
</a>
</g>
</g>
<!-- Node13&#45;&gt;Node19 -->
<g id="edge24_Node000013_Node000019" class="edge">
<title>Node13&#45;&gt;Node19</title>
<g id="a_edge24_Node000013_Node000019"><a xlink:title=" ">
<path fill="none" stroke="#63b8ff" d="M871.42,-164.75C864.21,-157.11 853.56,-145.82 844.83,-136.56"/>
<polygon fill="#63b8ff" stroke="#63b8ff" points="847.19,-133.96 837.78,-129.09 842.09,-138.76 847.19,-133.96"/>
</a>
</g>
</g>
<!-- Node13&#45;&gt;Node20 -->
<g id="edge25_Node000013_Node000020" class="edge">
<title>Node13&#45;&gt;Node20</title>
<g id="a_edge25_Node000013_Node000020"><a xlink:title=" ">
<path fill="none" stroke="#63b8ff" d="M929.92,-167.15C992.8,-159.11 1104.07,-144.59 1209.28,-129.17"/>
<polygon fill="#63b8ff" stroke="#63b8ff" points="1210.06,-132.6 1219.44,-127.68 1209.04,-125.67 1210.06,-132.6"/>
</a>
</g>
</g>
</g>
</svg>
