<?xml version="1.0" encoding="UTF-8" standalone="no"?>
<!DOCTYPE svg PUBLIC "-//W3C//DTD SVG 1.1//EN"
 "http://www.w3.org/Graphics/SVG/1.1/DTD/svg11.dtd">
<!-- Generated by graphviz version 2.43.0 (0)
 -->
<!-- Title: inc/MAX22200_Types.h Pages: 1 -->
<svg width="332pt" height="148pt"
 viewBox="0.00 0.00 332.00 148.00" xmlns="http://www.w3.org/2000/svg" xmlns:xlink="http://www.w3.org/1999/xlink">
<g id="graph0" class="graph" transform="scale(1 1) rotate(0) translate(4 144)">
<title>inc/MAX22200_Types.h</title>
<!-- Node1 -->
<g id="Node000001" class="node">
<title>Node1</title>
<g id="a_Node000001"><a xlink:title="Type definitions and structures for MAX22200 driver.">
<polygon fill="#999999" stroke="#666666" points="324,-140 196,-140 196,-121 324,-121 324,-140"/>
<text text-anchor="middle" x="260" y="-128" font-family="Helvetica,sans-Serif" font-size="10.00">inc/MAX22200_Types.h</text>
</a>
</g>
</g>
<!-- Node2 -->
<g id="Node000002" class="node">
<title>Node2</title>
<g id="a_Node000002"><a xlink:href="MAX22200_8h.html" target="_top" xlink:title="Main driver class for MAX22200 octal solenoid and motor driver.">
<polygon fill="white" stroke="#666666" points="307.5,-85 212.5,-85 212.5,-66 307.5,-66 307.5,-85"/>
<text text-anchor="middle" x="260" y="-73" font-family="Helvetica,sans-Serif" font-size="10.00">inc/MAX22200.h</text>
</a>
</g>
</g>
<!-- Node1&#45;&gt;Node2 -->
<g id="edge1_Node000001_Node000002" class="edge">
<title>Node1&#45;&gt;Node2</title>
<g id="a_edge1_Node000001_Node000002"><a xlink:title=" ">
<path fill="none" stroke="#63b8ff" d="M260,-110.66C260,-101.93 260,-91.99 260,-85.09"/>
<polygon fill="#63b8ff" stroke="#63b8ff" points="256.5,-110.75 260,-120.75 263.5,-110.75 256.5,-110.75"/>
</a>
</g>
</g>
<!-- Node3 -->
<g id="Node000003" class="node">
<title>Node3</title>
<g id="a_Node000003"><a xlink:href="MAX22200ComprehensiveTest_8cpp.html" target="_top" xlink:title="Comprehensive test suite for MAX22200 driver on ESP32&#45;C6.">
<polygon fill="white" stroke="#666666" points="188,-30 0,-30 0,0 188,0 188,-30"/>
<text text-anchor="start" x="8" y="-18" font-family="Helvetica,sans-Serif" font-size="10.00">examples/esp32/main</text>
<text text-anchor="middle" x="94" y="-7" font-family="Helvetica,sans-Serif" font-size="10.00">/MAX22200ComprehensiveTest.cpp</text>
</a>
</g>
</g>
<!-- Node2&#45;&gt;Node3 -->
<g id="edge2_Node000002_Node000003" class="edge">
<title>Node2&#45;&gt;Node3</title>
<g id="a_edge2_Node000002_Node000003"><a xlink:title=" ">
<path fill="none" stroke="#63b8ff" d="M226.18,-62.58C199.46,-53.16 162.1,-40 133.91,-30.06"/>
<polygon fill="#63b8ff" stroke="#63b8ff" points="225.27,-65.97 235.86,-65.99 227.59,-59.37 225.27,-65.97"/>
</a>
</g>
</g>
<!-- Node4 -->
<g id="Node000004" class="node">
<title>Node4</title>
<g id="a_Node000004"><a xlink:href="MAX22200_8cpp.html" target="_top" xlink:title="Implementation of MAX22200 driver class.">
<polygon fill="white" stroke="#666666" points="313.5,-24.5 206.5,-24.5 206.5,-5.5 313.5,-5.5 313.5,-24.5"/>
<text text-anchor="middle" x="260" y="-12.5" font-family="Helvetica,sans-Serif" font-size="10.00">src/MAX22200.cpp</text>
</a>
</g>
</g>
<!-- Node2&#45;&gt;Node4 -->
<g id="edge3_Node000002_Node000004" class="edge">
<title>Node2&#45;&gt;Node4</title>
<g id="a_edge3_Node000002_Node000004"><a xlink:title=" ">
<path fill="none" stroke="#63b8ff" d="M253.65,-55.66C252.82,-45.24 253.29,-32.8 255.04,-24.67"/>
<polygon fill="#63b8ff" stroke="#63b8ff" points="250.22,-56.44 255.04,-65.87 257.15,-55.49 250.22,-56.44"/>
</a>
</g>
</g>
<!-- Node4&#45;&gt;Node2 -->
<g id="edge4_Node000004_Node000002" class="edge">
<title>Node4&#45;&gt;Node2</title>
<g id="a_edge4_Node000004_Node000002"><a xlink:title=" ">
<path fill="none" stroke="#63b8ff" d="M266.36,-34.89C267.18,-45.31 266.71,-57.75 264.96,-65.87"/>
<polygon fill="#63b8ff" stroke="#63b8ff" points="269.78,-34.1 264.96,-24.67 262.85,-35.05 269.78,-34.1"/>
</a>
</g>
</g>
</g>
</svg>
