<?xml version="1.0" encoding="UTF-8" standalone="no"?>
<!DOCTYPE svg PUBLIC "-//W3C//DTD SVG 1.1//EN"
 "http://www.w3.org/Graphics/SVG/1.1/DTD/svg11.dtd">
<!-- Generated by graphviz version 2.43.0 (0)
 -->
<!-- Title: inc/max22200_types.hpp Pages: 1 -->
<svg width="800pt" height="159pt"
 viewBox="0.00 0.00 799.50 159.00" xmlns="http://www.w3.org/2000/svg" xmlns:xlink="http://www.w3.org/1999/xlink">
<g id="graph0" class="graph" transform="scale(1 1) rotate(0) translate(4 155)">
<title>inc/max22200_types.hpp</title>
<!-- Node1 -->
<g id="Node000001" class="node">
<title>Node1</title>
<g id="a_Node000001"><a xlink:title="Type definitions and structures for MAX22200 driver.">
<polygon fill="#999999" stroke="#666666" points="442,-151 303,-151 303,-132 442,-132 442,-151"/>
<text text-anchor="middle" x="372.5" y="-139" font-family="Helvetica,sans-Serif" font-size="10.00">inc/max22200_types.hpp</text>
</a>
</g>
</g>
<!-- Node2 -->
<g id="Node000002" class="node">
<title>Node2</title>
<g id="a_Node000002"><a xlink:href="c21__cycle__test_8cpp.html" target="_top" xlink:title="Real&#45;hardware Parker C21 24 V solenoid cycle test on MAX22200 CH0.">
<polygon fill="white" stroke="#666666" points="125,-35.5 0,-35.5 0,-5.5 125,-5.5 125,-35.5"/>
<text text-anchor="start" x="8" y="-23.5" font-family="Helvetica,sans-Serif" font-size="10.00">examples/esp32/main</text>
<text text-anchor="middle" x="62.5" y="-12.5" font-family="Helvetica,sans-Serif" font-size="10.00">/c21_cycle_test.cpp</text>
</a>
</g>
</g>
<!-- Node1&#45;&gt;Node2 -->
<g id="edge1_Node000001_Node000002" class="edge">
<title>Node1&#45;&gt;Node2</title>
<g id="a_edge1_Node000001_Node000002"><a xlink:title=" ">
<path fill="none" stroke="#63b8ff" d="M338.01,-128.65C312.83,-119.89 277.92,-107.54 247.5,-96 194.24,-75.81 133.04,-50.8 96.1,-35.51"/>
<polygon fill="#63b8ff" stroke="#63b8ff" points="336.89,-131.96 347.49,-131.93 339.19,-125.35 336.89,-131.96"/>
</a>
</g>
</g>
<!-- Node3 -->
<g id="Node000003" class="node">
<title>Node3</title>
<g id="a_Node000003"><a xlink:href="c21__dpm__tuning__test_8cpp.html" target="_top" xlink:title="DPM (Detection of Plunger Movement) tuning + CSV&#45;logging cycle test.">
<polygon fill="white" stroke="#666666" points="287.5,-35.5 143.5,-35.5 143.5,-5.5 287.5,-5.5 287.5,-35.5"/>
<text text-anchor="start" x="151.5" y="-23.5" font-family="Helvetica,sans-Serif" font-size="10.00">examples/esp32/main</text>
<text text-anchor="middle" x="215.5" y="-12.5" font-family="Helvetica,sans-Serif" font-size="10.00">/c21_dpm_tuning_test.cpp</text>
</a>
</g>
</g>
<!-- Node1&#45;&gt;Node3 -->
<g id="edge2_Node000001_Node000003" class="edge">
<title>Node1&#45;&gt;Node3</title>
<g id="a_edge2_Node000001_Node000003"><a xlink:title=" ">
<path fill="none" stroke="#63b8ff" d="M331.33,-128.74C310.97,-121.55 286.9,-110.83 268.5,-96 247.61,-79.17 231.21,-52.09 222.47,-35.63"/>
<polygon fill="#63b8ff" stroke="#63b8ff" points="330.38,-132.12 340.98,-132 332.62,-125.49 330.38,-132.12"/>
</a>
</g>
</g>
<!-- Node4 -->
<g id="Node000004" class="node">
<title>Node4</title>
<g id="a_Node000004"><a xlink:href="max22200__comprehensive__test_8cpp.html" target="_top" xlink:title="Comprehensive test suite for MAX22200 driver on ESP32.">
<polygon fill="white" stroke="#666666" points="457.5,-41 305.5,-41 305.5,0 457.5,0 457.5,-41"/>
<text text-anchor="start" x="313.5" y="-29" font-family="Helvetica,sans-Serif" font-size="10.00">examples/esp32/main</text>
<text text-anchor="start" x="313.5" y="-18" font-family="Helvetica,sans-Serif" font-size="10.00">/max22200_comprehensive</text>
<text text-anchor="middle" x="381.5" y="-7" font-family="Helvetica,sans-Serif" font-size="10.00">_test.cpp</text>
</a>
</g>
</g>
<!-- Node1&#45;&gt;Node4 -->
<g id="edge3_Node000001_Node000004" class="edge">
<title>Node1&#45;&gt;Node4</title>
<g id="a_edge3_Node000001_Node000004"><a xlink:title=" ">
<path fill="none" stroke="#63b8ff" d="M383.07,-122.77C387.2,-114.86 391.42,-105.26 393.5,-96 397.63,-77.59 393.31,-56.32 388.75,-41.23"/>
<polygon fill="#63b8ff" stroke="#63b8ff" points="379.9,-121.28 378.08,-131.72 386.01,-124.69 379.9,-121.28"/>
</a>
</g>
</g>
<!-- Node5 -->
<g id="Node000005" class="node">
<title>Node5</title>
<g id="a_Node000005"><a xlink:href="max22200__diagnostic_8cpp.html" target="_top" xlink:title="End&#45;to&#45;end MAX22200 health&#45;check on real hardware.">
<polygon fill="white" stroke="#666666" points="623,-35.5 476,-35.5 476,-5.5 623,-5.5 623,-35.5"/>
<text text-anchor="start" x="484" y="-23.5" font-family="Helvetica,sans-Serif" font-size="10.00">examples/esp32/main</text>
<text text-anchor="middle" x="549.5" y="-12.5" font-family="Helvetica,sans-Serif" font-size="10.00">/max22200_diagnostic.cpp</text>
</a>
</g>
</g>
<!-- Node1&#45;&gt;Node5 -->
<g id="edge4_Node000001_Node000005" class="edge">
<title>Node1&#45;&gt;Node5</title>
<g id="a_edge4_Node000001_Node000005"><a xlink:title=" ">
<path fill="none" stroke="#63b8ff" d="M393.54,-126.35C427.67,-103.41 494.68,-58.35 528.67,-35.5"/>
<polygon fill="#63b8ff" stroke="#63b8ff" points="391.58,-123.46 385.23,-131.94 395.48,-129.27 391.58,-123.46"/>
</a>
</g>
</g>
<!-- Node6 -->
<g id="Node000006" class="node">
<title>Node6</title>
<g id="a_Node000006"><a xlink:href="max22200__solenoid__valve__test_8cpp.html" target="_top" xlink:title="Dedicated solenoid/valve test for MAX22200 driver on ESP32.">
<polygon fill="white" stroke="#666666" points="791.5,-41 641.5,-41 641.5,0 791.5,0 791.5,-41"/>
<text text-anchor="start" x="649.5" y="-29" font-family="Helvetica,sans-Serif" font-size="10.00">examples/esp32/main</text>
<text text-anchor="start" x="649.5" y="-18" font-family="Helvetica,sans-Serif" font-size="10.00">/max22200_solenoid_valve</text>
<text text-anchor="middle" x="716.5" y="-7" font-family="Helvetica,sans-Serif" font-size="10.00">_test.cpp</text>
</a>
</g>
</g>
<!-- Node1&#45;&gt;Node6 -->
<g id="edge5_Node000001_Node000006" class="edge">
<title>Node1&#45;&gt;Node6</title>
<g id="a_edge5_Node000001_Node000006"><a xlink:title=" ">
<path fill="none" stroke="#63b8ff" d="M406.87,-128.61C466.13,-108.11 588.05,-65.93 659.96,-41.06"/>
<polygon fill="#63b8ff" stroke="#63b8ff" points="405.55,-125.36 397.24,-131.94 407.83,-131.98 405.55,-125.36"/>
</a>
</g>
</g>
<!-- Node7 -->
<g id="Node000007" class="node">
<title>Node7</title>
<g id="a_Node000007"><a xlink:href="max22200_8hpp.html" target="_top" xlink:title="Main driver class for MAX22200 octal solenoid and motor driver.">
<polygon fill="white" stroke="#666666" points="385,-96 278,-96 278,-77 385,-77 385,-96"/>
<text text-anchor="middle" x="331.5" y="-84" font-family="Helvetica,sans-Serif" font-size="10.00">inc/max22200.hpp</text>
</a>
</g>
</g>
<!-- Node1&#45;&gt;Node7 -->
<g id="edge6_Node000001_Node000007" class="edge">
<title>Node1&#45;&gt;Node7</title>
<g id="a_edge6_Node000001_Node000007"><a xlink:title=" ">
<path fill="none" stroke="#63b8ff" d="M359.48,-123.67C352.38,-114.5 343.9,-103.52 338.14,-96.09"/>
<polygon fill="#63b8ff" stroke="#63b8ff" points="356.84,-125.98 365.73,-131.75 362.38,-121.7 356.84,-125.98"/>
</a>
</g>
</g>
<!-- Node7&#45;&gt;Node2 -->
<g id="edge7_Node000007_Node000002" class="edge">
<title>Node7&#45;&gt;Node2</title>
<g id="a_edge7_Node000007_Node000002"><a xlink:title=" ">
<path fill="none" stroke="#63b8ff" d="M281.38,-74.79C241.48,-66.12 184.28,-53.36 134.5,-41 127.59,-39.28 120.32,-37.41 113.17,-35.51"/>
<polygon fill="#63b8ff" stroke="#63b8ff" points="280.87,-78.26 291.39,-76.96 282.36,-71.42 280.87,-78.26"/>
</a>
</g>
</g>
<!-- Node7&#45;&gt;Node3 -->
<g id="edge8_Node000007_Node000003" class="edge">
<title>Node7&#45;&gt;Node3</title>
<g id="a_edge8_Node000007_Node000003"><a xlink:title=" ">
<path fill="none" stroke="#63b8ff" d="M307.03,-72C287.67,-61.32 260.73,-46.45 241.08,-35.62"/>
<polygon fill="#63b8ff" stroke="#63b8ff" points="305.41,-75.1 315.86,-76.87 308.79,-68.97 305.41,-75.1"/>
</a>
</g>
</g>
<!-- Node7&#45;&gt;Node4 -->
<g id="edge9_Node000007_Node000004" class="edge">
<title>Node7&#45;&gt;Node4</title>
<g id="a_edge9_Node000007_Node000004"><a xlink:title=" ">
<path fill="none" stroke="#63b8ff" d="M344.53,-68.82C351.18,-60.31 359.32,-49.9 366.26,-41.01"/>
<polygon fill="#63b8ff" stroke="#63b8ff" points="341.64,-66.83 338.24,-76.87 347.16,-71.14 341.64,-66.83"/>
</a>
</g>
</g>
<!-- Node7&#45;&gt;Node5 -->
<g id="edge10_Node000007_Node000005" class="edge">
<title>Node7&#45;&gt;Node5</title>
<g id="a_edge10_Node000007_Node000005"><a xlink:title=" ">
<path fill="none" stroke="#63b8ff" d="M370.73,-73.98C407.37,-63.23 462.16,-47.14 501.42,-35.62"/>
<polygon fill="#63b8ff" stroke="#63b8ff" points="369.51,-70.69 360.9,-76.87 371.48,-77.41 369.51,-70.69"/>
</a>
</g>
</g>
<!-- Node7&#45;&gt;Node6 -->
<g id="edge11_Node000007_Node000006" class="edge">
<title>Node7&#45;&gt;Node6</title>
<g id="a_edge11_Node000007_Node000006"><a xlink:title=" ">
<path fill="none" stroke="#63b8ff" d="M395.26,-77.6C456.36,-69.68 551.06,-56.45 632.5,-41 635.44,-40.44 638.44,-39.85 641.46,-39.24"/>
<polygon fill="#63b8ff" stroke="#63b8ff" points="394.48,-74.18 385,-78.93 395.37,-81.12 394.48,-74.18"/>
</a>
</g>
</g>
</g>
</svg>
