<?xml version="1.0" encoding="UTF-8" standalone="no"?>
<!DOCTYPE svg PUBLIC "-//W3C//DTD SVG 1.1//EN"
 "http://www.w3.org/Graphics/SVG/1.1/DTD/svg11.dtd">
<!-- Generated by graphviz version 2.43.0 (0)
 -->
<!-- Title: inc/max22200.hpp Pages: 1 -->
<svg width="560pt" height="192pt"
 viewBox="0.00 0.00 559.63 192.00" xmlns="http://www.w3.org/2000/svg" xmlns:xlink="http://www.w3.org/1999/xlink">
<g id="graph0" class="graph" transform="scale(1 1) rotate(0) translate(4 188)">
<title>inc/max22200.hpp</title>
<!-- Node1 -->
<g id="Node000001" class="node">
<title>Node1</title>
<g id="a_Node000001"><a xlink:title="Main driver class for MAX22200 octal solenoid and motor driver.">
<polygon fill="#999999" stroke="#666666" points="242.63,-184 135.63,-184 135.63,-165 242.63,-165 242.63,-184"/>
<text text-anchor="middle" x="189.13" y="-172" font-family="Helvetica,sans-Serif" font-size="10.00">inc/max22200.hpp</text>
</a>
</g>
</g>
<!-- Node2 -->
<g id="Node000002" class="node">
<title>Node2</title>
<g id="a_Node000002"><a xlink:href="max22200__registers_8hpp.html" target="_top" xlink:title="Register definitions and constants for MAX22200 IC.">
<polygon fill="white" stroke="#666666" points="149.63,-74 12.63,-74 12.63,-55 149.63,-55 149.63,-74"/>
<text text-anchor="middle" x="81.13" y="-62" font-family="Helvetica,sans-Serif" font-size="10.00">max22200_registers.hpp</text>
</a>
</g>
</g>
<!-- Node1&#45;&gt;Node2 -->
<g id="edge1_Node000001_Node000002" class="edge">
<title>Node1&#45;&gt;Node2</title>
<g id="a_edge1_Node000001_Node000002"><a xlink:title=" ">
<path fill="none" stroke="#63b8ff" d="M135.43,-166.07C112.89,-160.01 88.79,-149 75.13,-129 66.16,-115.87 69.14,-97.49 73.49,-83.88"/>
<polygon fill="#63b8ff" stroke="#63b8ff" points="76.89,-84.77 77.07,-74.18 70.32,-82.35 76.89,-84.77"/>
</a>
</g>
</g>
<!-- Node3 -->
<g id="Node000003" class="node">
<title>Node3</title>
<g id="a_Node000003"><a xlink:title=" ">
<polygon fill="#e0e0e0" stroke="#999999" points="154.13,-19 104.13,-19 104.13,0 154.13,0 154.13,-19"/>
<text text-anchor="middle" x="129.13" y="-7" font-family="Helvetica,sans-Serif" font-size="10.00">cstdint</text>
</a>
</g>
</g>
<!-- Node1&#45;&gt;Node3 -->
<g id="edge11_Node000001_Node000003" class="edge">
<title>Node1&#45;&gt;Node3</title>
<g id="a_edge11_Node000001_Node000003"><a xlink:title=" ">
<path fill="none" stroke="#63b8ff" d="M142.24,-164.95C95.64,-153.51 27.68,-128.01 3.13,-74 -14.56,-35.06 50.49,-19.7 93.65,-13.87"/>
<polygon fill="#63b8ff" stroke="#63b8ff" points="94.33,-17.31 103.82,-12.61 93.47,-10.36 94.33,-17.31"/>
</a>
</g>
</g>
<!-- Node4 -->
<g id="Node000004" class="node">
<title>Node4</title>
<g id="a_Node000004"><a xlink:href="max22200__types_8hpp.html" target="_top" xlink:title="Type definitions and structures for MAX22200 driver.">
<polygon fill="white" stroke="#666666" points="206.13,-129 84.13,-129 84.13,-110 206.13,-110 206.13,-129"/>
<text text-anchor="middle" x="145.13" y="-117" font-family="Helvetica,sans-Serif" font-size="10.00">max22200_types.hpp</text>
</a>
</g>
</g>
<!-- Node1&#45;&gt;Node4 -->
<g id="edge3_Node000001_Node000004" class="edge">
<title>Node1&#45;&gt;Node4</title>
<g id="a_edge3_Node000001_Node000004"><a xlink:title=" ">
<path fill="none" stroke="#63b8ff" d="M181.87,-164.75C175.59,-157.18 166.34,-146.05 158.7,-136.84"/>
<polygon fill="#63b8ff" stroke="#63b8ff" points="161.34,-134.55 152.26,-129.09 155.96,-139.02 161.34,-134.55"/>
</a>
</g>
</g>
<!-- Node5 -->
<g id="Node000005" class="node">
<title>Node5</title>
<g id="a_Node000005"><a xlink:title=" ">
<polygon fill="#e0e0e0" stroke="#999999" points="248.13,-74 206.13,-74 206.13,-55 248.13,-55 248.13,-74"/>
<text text-anchor="middle" x="227.13" y="-62" font-family="Helvetica,sans-Serif" font-size="10.00">array</text>
</a>
</g>
</g>
<!-- Node1&#45;&gt;Node5 -->
<g id="edge10_Node000001_Node000005" class="edge">
<title>Node1&#45;&gt;Node5</title>
<g id="a_edge10_Node000001_Node000005"><a xlink:title=" ">
<path fill="none" stroke="#63b8ff" d="M195.47,-164.75C201.44,-156.09 210.18,-142.24 215.13,-129 220.54,-114.53 223.6,-97.26 225.28,-84.39"/>
<polygon fill="#63b8ff" stroke="#63b8ff" points="228.76,-84.71 226.42,-74.38 221.81,-83.92 228.76,-84.71"/>
</a>
</g>
</g>
<!-- Node6 -->
<g id="Node000006" class="node">
<title>Node6</title>
<g id="a_Node000006"><a xlink:href="max22200__spi__interface_8hpp.html" target="_top" xlink:title="CRTP&#45;based template interface for SPI communication.">
<polygon fill="white" stroke="#666666" points="420.13,-129 262.13,-129 262.13,-110 420.13,-110 420.13,-129"/>
<text text-anchor="middle" x="341.13" y="-117" font-family="Helvetica,sans-Serif" font-size="10.00">max22200_spi_interface.hpp</text>
</a>
</g>
</g>
<!-- Node1&#45;&gt;Node6 -->
<g id="edge7_Node000001_Node000006" class="edge">
<title>Node1&#45;&gt;Node6</title>
<g id="a_edge7_Node000001_Node000006"><a xlink:title=" ">
<path fill="none" stroke="#63b8ff" d="M213.55,-164.98C238.85,-156.16 278.59,-142.31 306.99,-132.41"/>
<polygon fill="#63b8ff" stroke="#63b8ff" points="308.23,-135.68 316.52,-129.08 305.92,-129.07 308.23,-135.68"/>
</a>
</g>
</g>
<!-- Node8 -->
<g id="Node000008" class="node">
<title>Node8</title>
<g id="a_Node000008"><a xlink:href="max22200_8ipp.html" target="_top" xlink:title="Template implementation for MAX22200 driver.">
<polygon fill="white" stroke="#666666" points="551.63,-129 438.63,-129 438.63,-110 551.63,-110 551.63,-129"/>
<text text-anchor="middle" x="495.13" y="-117" font-family="Helvetica,sans-Serif" font-size="10.00">../src/max22200.ipp</text>
</a>
</g>
</g>
<!-- Node1&#45;&gt;Node8 -->
<g id="edge12_Node000001_Node000008" class="edge">
<title>Node1&#45;&gt;Node8</title>
<g id="a_edge12_Node000001_Node000008"><a xlink:title=" ">
<path fill="none" stroke="#63b8ff" d="M238.3,-164.98C292.08,-155.67 378.29,-140.74 435.8,-130.78"/>
<polygon fill="#63b8ff" stroke="#63b8ff" points="436.58,-134.19 445.84,-129.04 435.38,-127.3 436.58,-134.19"/>
</a>
</g>
</g>
<!-- Node2&#45;&gt;Node3 -->
<g id="edge2_Node000002_Node000003" class="edge">
<title>Node2&#45;&gt;Node3</title>
<g id="a_edge2_Node000002_Node000003"><a xlink:title=" ">
<path fill="none" stroke="#63b8ff" d="M89.06,-54.75C95.98,-47.11 106.2,-35.82 114.58,-26.56"/>
<polygon fill="#63b8ff" stroke="#63b8ff" points="117.23,-28.85 121.35,-19.09 112.05,-24.15 117.23,-28.85"/>
</a>
</g>
</g>
<!-- Node4&#45;&gt;Node2 -->
<g id="edge4_Node000004_Node000002" class="edge">
<title>Node4&#45;&gt;Node2</title>
<g id="a_edge4_Node000004_Node000002"><a xlink:title=" ">
<path fill="none" stroke="#63b8ff" d="M134.85,-109.98C125.29,-102.07 110.85,-90.11 99.35,-80.58"/>
<polygon fill="#63b8ff" stroke="#63b8ff" points="101.53,-77.85 91.6,-74.17 97.07,-83.24 101.53,-77.85"/>
</a>
</g>
</g>
<!-- Node4&#45;&gt;Node3 -->
<g id="edge6_Node000004_Node000003" class="edge">
<title>Node4&#45;&gt;Node3</title>
<g id="a_edge6_Node000004_Node000003"><a xlink:title=" ">
<path fill="none" stroke="#63b8ff" d="M149.6,-109.75C155.32,-97.4 163.84,-74.2 158.13,-55 155.15,-44.98 149.13,-35.11 143.34,-27.22"/>
<polygon fill="#63b8ff" stroke="#63b8ff" points="146.01,-24.95 137.07,-19.25 140.5,-29.28 146.01,-24.95"/>
</a>
</g>
</g>
<!-- Node4&#45;&gt;Node5 -->
<g id="edge5_Node000004_Node000005" class="edge">
<title>Node4&#45;&gt;Node5</title>
<g id="a_edge5_Node000004_Node000005"><a xlink:title=" ">
<path fill="none" stroke="#63b8ff" d="M158.31,-109.98C170.9,-101.84 190.14,-89.41 205.07,-79.76"/>
<polygon fill="#63b8ff" stroke="#63b8ff" points="207.22,-82.54 213.72,-74.17 203.42,-76.66 207.22,-82.54"/>
</a>
</g>
</g>
<!-- Node6&#45;&gt;Node3 -->
<g id="edge9_Node000006_Node000003" class="edge">
<title>Node6&#45;&gt;Node3</title>
<g id="a_edge9_Node000006_Node000003"><a xlink:title=" ">
<path fill="none" stroke="#63b8ff" d="M342.07,-109.76C343.01,-96.11 342.64,-69.77 328.13,-55 305.67,-32.13 215.38,-19.34 164.48,-13.82"/>
<polygon fill="#63b8ff" stroke="#63b8ff" points="164.57,-10.31 154.26,-12.75 163.84,-17.28 164.57,-10.31"/>
</a>
</g>
</g>
<!-- Node7 -->
<g id="Node000007" class="node">
<title>Node7</title>
<g id="a_Node000007"><a xlink:title=" ">
<polygon fill="#e0e0e0" stroke="#999999" points="319.63,-74 266.63,-74 266.63,-55 319.63,-55 319.63,-74"/>
<text text-anchor="middle" x="293.13" y="-62" font-family="Helvetica,sans-Serif" font-size="10.00">cstddef</text>
</a>
</g>
</g>
<!-- Node6&#45;&gt;Node7 -->
<g id="edge8_Node000006_Node000007" class="edge">
<title>Node6&#45;&gt;Node7</title>
<g id="a_edge8_Node000006_Node000007"><a xlink:title=" ">
<path fill="none" stroke="#63b8ff" d="M333.2,-109.75C326.28,-102.11 316.07,-90.82 307.68,-81.56"/>
<polygon fill="#63b8ff" stroke="#63b8ff" points="310.22,-79.15 300.91,-74.09 305.03,-83.85 310.22,-79.15"/>
</a>
</g>
</g>
<!-- Node9 -->
<g id="Node000009" class="node">
<title>Node9</title>
<g id="a_Node000009"><a xlink:title=" ">
<polygon fill="#e0e0e0" stroke="#999999" points="520.13,-74 470.13,-74 470.13,-55 520.13,-55 520.13,-74"/>
<text text-anchor="middle" x="495.13" y="-62" font-family="Helvetica,sans-Serif" font-size="10.00">cstring</text>
</a>
</g>
</g>
<!-- Node8&#45;&gt;Node9 -->
<g id="edge13_Node000008_Node000009" class="edge">
<title>Node8&#45;&gt;Node9</title>
<g id="a_edge13_Node000008_Node000009"><a xlink:title=" ">
<path fill="none" stroke="#63b8ff" d="M495.13,-109.75C495.13,-102.8 495.13,-92.85 495.13,-84.13"/>
<polygon fill="#63b8ff" stroke="#63b8ff" points="498.63,-84.09 495.13,-74.09 491.63,-84.09 498.63,-84.09"/>
</a>
</g>
</g>
</g>
</svg>
