<?xml version="1.0" encoding="UTF-8" standalone="no"?>
<!DOCTYPE svg PUBLIC "-//W3C//DTD SVG 1.1//EN"
 "http://www.w3.org/Graphics/SVG/1.1/DTD/svg11.dtd">
<!-- Generated by graphviz version 2.43.0 (0)
 -->
<!-- Title: src/max22200.ipp Pages: 1 -->
<svg width="328pt" height="159pt"
 viewBox="0.00 0.00 328.00 159.00" xmlns="http://www.w3.org/2000/svg" xmlns:xlink="http://www.w3.org/1999/xlink">
<g id="graph0" class="graph" transform="scale(1 1) rotate(0) translate(4 155)">
<title>src/max22200.ipp</title>
<!-- Node1 -->
<g id="Node000001" class="node">
<title>Node1</title>
<g id="a_Node000001"><a xlink:title="Template implementation for MAX22200 driver.">
<polygon fill="#999999" stroke="#666666" points="212,-151 108,-151 108,-132 212,-132 212,-151"/>
<text text-anchor="middle" x="160" y="-139" font-family="Helvetica,sans-Serif" font-size="10.00">src/max22200.ipp</text>
</a>
</g>
</g>
<!-- Node2 -->
<g id="Node000002" class="node">
<title>Node2</title>
<g id="a_Node000002"><a xlink:href="max22200_8hpp.html" target="_top" xlink:title="Main driver class for MAX22200 octal solenoid and motor driver.">
<polygon fill="white" stroke="#666666" points="213.5,-96 106.5,-96 106.5,-77 213.5,-77 213.5,-96"/>
<text text-anchor="middle" x="160" y="-84" font-family="Helvetica,sans-Serif" font-size="10.00">inc/max22200.hpp</text>
</a>
</g>
</g>
<!-- Node1&#45;&gt;Node2 -->
<g id="edge1_Node000001_Node000002" class="edge">
<title>Node1&#45;&gt;Node2</title>
<g id="a_edge1_Node000001_Node000002"><a xlink:title=" ">
<path fill="none" stroke="#63b8ff" d="M160,-121.66C160,-112.93 160,-102.99 160,-96.09"/>
<polygon fill="#63b8ff" stroke="#63b8ff" points="156.5,-121.75 160,-131.75 163.5,-121.75 156.5,-121.75"/>
</a>
</g>
</g>
<!-- Node3 -->
<g id="Node000003" class="node">
<title>Node3</title>
<g id="a_Node000003"><a xlink:href="max22200__comprehensive__test_8cpp.html" target="_top" xlink:title="Comprehensive test suite for MAX22200 driver on ESP32.">
<polygon fill="white" stroke="#666666" points="152,-41 0,-41 0,0 152,0 152,-41"/>
<text text-anchor="start" x="8" y="-29" font-family="Helvetica,sans-Serif" font-size="10.00">examples/esp32/main</text>
<text text-anchor="start" x="8" y="-18" font-family="Helvetica,sans-Serif" font-size="10.00">/max22200_comprehensive</text>
<text text-anchor="middle" x="76" y="-7" font-family="Helvetica,sans-Serif" font-size="10.00">_test.cpp</text>
</a>
</g>
</g>
<!-- Node2&#45;&gt;Node3 -->
<g id="edge2_Node000002_Node000003" class="edge">
<title>Node2&#45;&gt;Node3</title>
<g id="a_edge2_Node000002_Node000003"><a xlink:title=" ">
<path fill="none" stroke="#63b8ff" d="M140.54,-70.67C128.96,-61.85 114.13,-50.55 101.61,-41.01"/>
<polygon fill="#63b8ff" stroke="#63b8ff" points="138.6,-73.59 148.67,-76.87 142.84,-68.02 138.6,-73.59"/>
</a>
</g>
</g>
<!-- Node4 -->
<g id="Node000004" class="node">
<title>Node4</title>
<g id="a_Node000004"><a xlink:href="max22200__solenoid__valve__test_8cpp.html" target="_top" xlink:title="Dedicated solenoid/valve test for MAX22200 driver on ESP32.">
<polygon fill="white" stroke="#666666" points="320,-41 170,-41 170,0 320,0 320,-41"/>
<text text-anchor="start" x="178" y="-29" font-family="Helvetica,sans-Serif" font-size="10.00">examples/esp32/main</text>
<text text-anchor="start" x="178" y="-18" font-family="Helvetica,sans-Serif" font-size="10.00">/max22200_solenoid_valve</text>
<text text-anchor="middle" x="245" y="-7" font-family="Helvetica,sans-Serif" font-size="10.00">_test.cpp</text>
</a>
</g>
</g>
<!-- Node2&#45;&gt;Node4 -->
<g id="edge3_Node000002_Node000004" class="edge">
<title>Node2&#45;&gt;Node4</title>
<g id="a_edge3_Node000002_Node000004"><a xlink:title=" ">
<path fill="none" stroke="#63b8ff" d="M179.69,-70.67C191.41,-61.85 206.42,-50.55 219.09,-41.01"/>
<polygon fill="#63b8ff" stroke="#63b8ff" points="177.35,-68.06 171.46,-76.87 181.56,-73.65 177.35,-68.06"/>
</a>
</g>
</g>
</g>
</svg>
